<svg width="158" height="45" viewBox="0 0 158 45" fill="none" xmlns="http://www.w3.org/2000/svg">
<rect x="0.610718" y="0.960449" width="156.608" height="43.1112" rx="4" fill="#1C1C1C" stroke="#979797" stroke-opacity="0.2"/>
<path d="M63.8352 31.0877H59.7612L59.0612 33.0757H57.3952L60.8812 23.3317H62.7292L66.2152 33.0757H64.5352L63.8352 31.0877ZM63.3872 29.7857L61.8052 25.2637L60.2092 29.7857H63.3872ZM69.3269 26.4957C69.5976 26.141 69.9662 25.8423 70.4329 25.5997C70.8996 25.357 71.4269 25.2357 72.0149 25.2357C72.6869 25.2357 73.2982 25.4037 73.8489 25.7397C74.4089 26.0663 74.8476 26.5283 75.1649 27.1257C75.4822 27.723 75.6409 28.409 75.6409 29.1837C75.6409 29.9584 75.4822 30.6537 75.1649 31.2697C74.8476 31.8764 74.4089 32.3524 73.8489 32.6977C73.2982 33.0337 72.6869 33.2017 72.0149 33.2017C71.4269 33.2017 70.9042 33.085 70.4469 32.8517C69.9896 32.609 69.6162 32.3104 69.3269 31.9557V36.7437H67.7309V25.3617H69.3269V26.4957ZM74.0169 29.1837C74.0169 28.6517 73.9049 28.1944 73.6809 27.8117C73.4662 27.4197 73.1769 27.1257 72.8129 26.9297C72.4582 26.7243 72.0756 26.6217 71.6649 26.6217C71.2636 26.6217 70.8809 26.7243 70.5169 26.9297C70.1622 27.135 69.8729 27.4337 69.6489 27.8257C69.4342 28.2177 69.3269 28.6797 69.3269 29.2117C69.3269 29.7437 69.4342 30.2104 69.6489 30.6117C69.8729 31.0037 70.1622 31.3024 70.5169 31.5077C70.8809 31.713 71.2636 31.8157 71.6649 31.8157C72.0756 31.8157 72.4582 31.713 72.8129 31.5077C73.1769 31.293 73.4662 30.985 73.6809 30.5837C73.9049 30.1824 74.0169 29.7157 74.0169 29.1837ZM78.8152 26.4957C79.0859 26.141 79.4545 25.8423 79.9212 25.5997C80.3879 25.357 80.9152 25.2357 81.5032 25.2357C82.1752 25.2357 82.7865 25.4037 83.3372 25.7397C83.8972 26.0663 84.3359 26.5283 84.6532 27.1257C84.9705 27.723 85.1292 28.409 85.1292 29.1837C85.1292 29.9584 84.9705 30.6537 84.6532 31.2697C84.3359 31.8764 83.8972 32.3524 83.3372 32.6977C82.7865 33.0337 82.1752 33.2017 81.5032 33.2017C80.9152 33.2017 80.3925 33.085 79.9352 32.8517C79.4779 32.609 79.1045 32.3104 78.8152 31.9557V36.7437H77.2192V25.3617H78.8152V26.4957ZM83.5052 29.1837C83.5052 28.6517 83.3932 28.1944 83.1692 27.8117C82.9545 27.4197 82.6652 27.1257 82.3012 26.9297C81.9465 26.7243 81.5639 26.6217 81.1532 26.6217C80.7519 26.6217 80.3692 26.7243 80.0052 26.9297C79.6505 27.135 79.3612 27.4337 79.1372 27.8257C78.9225 28.2177 78.8152 28.6797 78.8152 29.2117C78.8152 29.7437 78.9225 30.2104 79.1372 30.6117C79.3612 31.0037 79.6505 31.3024 80.0052 31.5077C80.3692 31.713 80.7519 31.8157 81.1532 31.8157C81.5639 31.8157 81.9465 31.713 82.3012 31.5077C82.6652 31.293 82.9545 30.985 83.1692 30.5837C83.3932 30.1824 83.5052 29.7157 83.5052 29.1837ZM88.3035 22.7157V33.0757H86.7075V22.7157H88.3035ZM97.4689 29.0297C97.4689 29.319 97.4502 29.5804 97.4129 29.8137H91.5189C91.5655 30.4297 91.7942 30.9244 92.2049 31.2977C92.6155 31.671 93.1195 31.8577 93.7169 31.8577C94.5755 31.8577 95.1822 31.4984 95.5369 30.7797H97.2589C97.0255 31.489 96.6009 32.0724 95.9849 32.5297C95.3782 32.9777 94.6222 33.2017 93.7169 33.2017C92.9795 33.2017 92.3169 33.0384 91.7289 32.7117C91.1502 32.3757 90.6929 31.909 90.3569 31.3117C90.0302 30.705 89.8669 30.005 89.8669 29.2117C89.8669 28.4183 90.0255 27.723 90.3429 27.1257C90.6695 26.519 91.1222 26.0524 91.7009 25.7257C92.2889 25.399 92.9609 25.2357 93.7169 25.2357C94.4449 25.2357 95.0935 25.3944 95.6629 25.7117C96.2322 26.029 96.6755 26.477 96.9929 27.0557C97.3102 27.625 97.4689 28.283 97.4689 29.0297ZM95.8029 28.5257C95.7935 27.9377 95.5835 27.4664 95.1729 27.1117C94.7622 26.757 94.2535 26.5797 93.6469 26.5797C93.0962 26.5797 92.6249 26.757 92.2329 27.1117C91.8409 27.457 91.6075 27.9283 91.5329 28.5257H95.8029ZM105.882 33.1737C105.229 33.1737 104.641 33.0617 104.118 32.8377C103.596 32.6044 103.185 32.2777 102.886 31.8577C102.588 31.4377 102.438 30.9477 102.438 30.3877H104.146C104.184 30.8077 104.347 31.153 104.636 31.4237C104.935 31.6944 105.35 31.8297 105.882 31.8297C106.433 31.8297 106.862 31.699 107.17 31.4377C107.478 31.167 107.632 30.8217 107.632 30.4017C107.632 30.075 107.534 29.809 107.338 29.6037C107.152 29.3984 106.914 29.2397 106.624 29.1277C106.344 29.0157 105.952 28.8944 105.448 28.7637C104.814 28.5957 104.296 28.4277 103.894 28.2597C103.502 28.0824 103.166 27.8117 102.886 27.4477C102.606 27.0837 102.466 26.5983 102.466 25.9917C102.466 25.4317 102.606 24.9417 102.886 24.5217C103.166 24.1017 103.558 23.7797 104.062 23.5557C104.566 23.3317 105.15 23.2197 105.812 23.2197C106.755 23.2197 107.525 23.4577 108.122 23.9337C108.729 24.4003 109.065 25.0443 109.13 25.8657H107.366C107.338 25.511 107.17 25.2077 106.862 24.9557C106.554 24.7037 106.148 24.5777 105.644 24.5777C105.187 24.5777 104.814 24.6943 104.524 24.9277C104.235 25.161 104.09 25.497 104.09 25.9357C104.09 26.2343 104.179 26.4817 104.356 26.6777C104.543 26.8644 104.776 27.0137 105.056 27.1257C105.336 27.2377 105.719 27.359 106.204 27.4897C106.848 27.667 107.371 27.8443 107.772 28.0217C108.183 28.199 108.528 28.4744 108.808 28.8477C109.098 29.2117 109.242 29.7017 109.242 30.3177C109.242 30.8124 109.107 31.279 108.836 31.7177C108.575 32.1564 108.188 32.511 107.674 32.7817C107.17 33.043 106.573 33.1737 105.882 33.1737ZM112.987 26.6637V30.9337C112.987 31.223 113.053 31.433 113.183 31.5637C113.323 31.685 113.557 31.7457 113.883 31.7457H114.863V33.0757H113.603C112.885 33.0757 112.334 32.9077 111.951 32.5717C111.569 32.2357 111.377 31.6897 111.377 30.9337V26.6637H110.467V25.3617H111.377V23.4437H112.987V25.3617H114.863V26.6637H112.987ZM119.68 33.2017C118.952 33.2017 118.294 33.0384 117.706 32.7117C117.118 32.3757 116.656 31.909 116.32 31.3117C115.984 30.705 115.816 30.005 115.816 29.2117C115.816 28.4277 115.989 27.7324 116.334 27.1257C116.68 26.519 117.151 26.0524 117.748 25.7257C118.346 25.399 119.013 25.2357 119.75 25.2357C120.488 25.2357 121.155 25.399 121.752 25.7257C122.35 26.0524 122.821 26.519 123.166 27.1257C123.512 27.7324 123.684 28.4277 123.684 29.2117C123.684 29.9957 123.507 30.691 123.152 31.2977C122.798 31.9044 122.312 32.3757 121.696 32.7117C121.09 33.0384 120.418 33.2017 119.68 33.2017ZM119.68 31.8157C120.091 31.8157 120.474 31.7177 120.828 31.5217C121.192 31.3257 121.486 31.0317 121.71 30.6397C121.934 30.2477 122.046 29.7717 122.046 29.2117C122.046 28.6517 121.939 28.1804 121.724 27.7977C121.51 27.4057 121.225 27.1117 120.87 26.9157C120.516 26.7197 120.133 26.6217 119.722 26.6217C119.312 26.6217 118.929 26.7197 118.574 26.9157C118.229 27.1117 117.954 27.4057 117.748 27.7977C117.543 28.1804 117.44 28.6517 117.44 29.2117C117.44 30.0424 117.65 30.6864 118.07 31.1437C118.5 31.5917 119.036 31.8157 119.68 31.8157ZM126.858 26.4817C127.091 26.0897 127.399 25.7864 127.782 25.5717C128.174 25.3477 128.636 25.2357 129.168 25.2357V26.8877H128.762C128.137 26.8877 127.661 27.0463 127.334 27.3637C127.017 27.681 126.858 28.2317 126.858 29.0157V33.0757H125.262V25.3617H126.858V26.4817ZM137.705 29.0297C137.705 29.319 137.687 29.5804 137.649 29.8137H131.755C131.802 30.4297 132.031 30.9244 132.441 31.2977C132.852 31.671 133.356 31.8577 133.953 31.8577C134.812 31.8577 135.419 31.4984 135.773 30.7797H137.495C137.262 31.489 136.837 32.0724 136.221 32.5297C135.615 32.9777 134.859 33.2017 133.953 33.2017C133.216 33.2017 132.553 33.0384 131.965 32.7117C131.387 32.3757 130.929 31.909 130.593 31.3117C130.267 30.705 130.103 30.005 130.103 29.2117C130.103 28.4183 130.262 27.723 130.579 27.1257C130.906 26.519 131.359 26.0524 131.937 25.7257C132.525 25.399 133.197 25.2357 133.953 25.2357C134.681 25.2357 135.33 25.3944 135.899 25.7117C136.469 26.029 136.912 26.477 137.229 27.0557C137.547 27.625 137.705 28.283 137.705 29.0297ZM136.039 28.5257C136.03 27.9377 135.82 27.4664 135.409 27.1117C134.999 26.757 134.49 26.5797 133.883 26.5797C133.333 26.5797 132.861 26.757 132.469 27.1117C132.077 27.457 131.844 27.9283 131.769 28.5257H136.039Z" fill="white"/>
<path d="M59.8592 10.9084C60.6192 10.9084 61.2759 11.0518 61.8292 11.3384C62.3892 11.6184 62.8159 12.0218 63.1092 12.5484C63.4092 13.0751 63.5592 13.6951 63.5592 14.4084C63.5592 15.1218 63.4092 15.7418 63.1092 16.2684C62.8159 16.7884 62.3892 17.1884 61.8292 17.4684C61.2759 17.7418 60.6192 17.8784 59.8592 17.8784H57.6892V10.9084H59.8592ZM59.8592 17.1284C60.7592 17.1284 61.4459 16.8918 61.9192 16.4184C62.3925 15.9384 62.6292 15.2684 62.6292 14.4084C62.6292 13.5418 62.3892 12.8651 61.9092 12.3784C61.4359 11.8918 60.7525 11.6484 59.8592 11.6484H58.5992V17.1284H59.8592ZM67.1495 17.9684C66.6362 17.9684 66.1695 17.8518 65.7495 17.6184C65.3362 17.3851 65.0095 17.0551 64.7695 16.6284C64.5362 16.1951 64.4195 15.6951 64.4195 15.1284C64.4195 14.5684 64.5395 14.0751 64.7795 13.6484C65.0262 13.2151 65.3595 12.8851 65.7795 12.6584C66.1995 12.4251 66.6695 12.3084 67.1895 12.3084C67.7095 12.3084 68.1795 12.4251 68.5995 12.6584C69.0195 12.8851 69.3495 13.2118 69.5895 13.6384C69.8362 14.0651 69.9595 14.5618 69.9595 15.1284C69.9595 15.6951 69.8328 16.1951 69.5795 16.6284C69.3328 17.0551 68.9962 17.3851 68.5695 17.6184C68.1428 17.8518 67.6695 17.9684 67.1495 17.9684ZM67.1495 17.1684C67.4762 17.1684 67.7828 17.0918 68.0695 16.9384C68.3562 16.7851 68.5862 16.5551 68.7595 16.2484C68.9395 15.9418 69.0295 15.5684 69.0295 15.1284C69.0295 14.6884 68.9428 14.3151 68.7695 14.0084C68.5962 13.7018 68.3695 13.4751 68.0895 13.3284C67.8095 13.1751 67.5062 13.0984 67.1795 13.0984C66.8462 13.0984 66.5395 13.1751 66.2595 13.3284C65.9862 13.4751 65.7662 13.7018 65.5995 14.0084C65.4328 14.3151 65.3495 14.6884 65.3495 15.1284C65.3495 15.5751 65.4295 15.9518 65.5895 16.2584C65.7562 16.5651 65.9762 16.7951 66.2495 16.9484C66.5228 17.0951 66.8228 17.1684 67.1495 17.1684ZM78.456 12.3984L76.746 17.8784H75.806L74.486 13.5284L73.166 17.8784H72.226L70.506 12.3984H71.436L72.696 16.9984L74.056 12.3984H74.986L76.316 17.0084L77.556 12.3984H78.456ZM82.0291 12.2984C82.6958 12.2984 83.2358 12.5018 83.6491 12.9084C84.0624 13.3084 84.2691 13.8884 84.2691 14.6484V17.8784H83.3691V14.7784C83.3691 14.2318 83.2324 13.8151 82.9591 13.5284C82.6858 13.2351 82.3124 13.0884 81.8391 13.0884C81.3591 13.0884 80.9758 13.2384 80.6891 13.5384C80.4091 13.8384 80.2691 14.2751 80.2691 14.8484V17.8784H79.3591V12.3984H80.2691V13.1784C80.4491 12.8984 80.6924 12.6818 80.9991 12.5284C81.3124 12.3751 81.6558 12.2984 82.0291 12.2984ZM86.6656 10.4784V17.8784H85.7556V10.4784H86.6656ZM90.6065 17.9684C90.0932 17.9684 89.6265 17.8518 89.2065 17.6184C88.7932 17.3851 88.4665 17.0551 88.2265 16.6284C87.9932 16.1951 87.8765 15.6951 87.8765 15.1284C87.8765 14.5684 87.9965 14.0751 88.2365 13.6484C88.4832 13.2151 88.8165 12.8851 89.2365 12.6584C89.6565 12.4251 90.1265 12.3084 90.6465 12.3084C91.1665 12.3084 91.6365 12.4251 92.0565 12.6584C92.4765 12.8851 92.8065 13.2118 93.0465 13.6384C93.2932 14.0651 93.4165 14.5618 93.4165 15.1284C93.4165 15.6951 93.2899 16.1951 93.0365 16.6284C92.7899 17.0551 92.4532 17.3851 92.0265 17.6184C91.5999 17.8518 91.1265 17.9684 90.6065 17.9684ZM90.6065 17.1684C90.9332 17.1684 91.2399 17.0918 91.5265 16.9384C91.8132 16.7851 92.0432 16.5551 92.2165 16.2484C92.3965 15.9418 92.4865 15.5684 92.4865 15.1284C92.4865 14.6884 92.3999 14.3151 92.2265 14.0084C92.0532 13.7018 91.8265 13.4751 91.5465 13.3284C91.2665 13.1751 90.9632 13.0984 90.6365 13.0984C90.3032 13.0984 89.9965 13.1751 89.7165 13.3284C89.4432 13.4751 89.2232 13.7018 89.0565 14.0084C88.8899 14.3151 88.8065 14.6884 88.8065 15.1284C88.8065 15.5751 88.8865 15.9518 89.0465 16.2584C89.2132 16.5651 89.4332 16.7951 89.7065 16.9484C89.9799 17.0951 90.2799 17.1684 90.6065 17.1684ZM94.273 15.1184C94.273 14.5584 94.3864 14.0684 94.613 13.6484C94.8397 13.2218 95.1497 12.8918 95.543 12.6584C95.943 12.4251 96.3864 12.3084 96.873 12.3084C97.353 12.3084 97.7697 12.4118 98.123 12.6184C98.4764 12.8251 98.7397 13.0851 98.913 13.3984V12.3984H99.833V17.8784H98.913V16.8584C98.733 17.1784 98.463 17.4451 98.103 17.6584C97.7497 17.8651 97.3364 17.9684 96.863 17.9684C96.3764 17.9684 95.9364 17.8484 95.543 17.6084C95.1497 17.3684 94.8397 17.0318 94.613 16.5984C94.3864 16.1651 94.273 15.6718 94.273 15.1184ZM98.913 15.1284C98.913 14.7151 98.8297 14.3551 98.663 14.0484C98.4964 13.7418 98.2697 13.5084 97.983 13.3484C97.703 13.1818 97.393 13.0984 97.053 13.0984C96.713 13.0984 96.403 13.1784 96.123 13.3384C95.843 13.4984 95.6197 13.7318 95.453 14.0384C95.2864 14.3451 95.203 14.7051 95.203 15.1184C95.203 15.5384 95.2864 15.9051 95.453 16.2184C95.6197 16.5251 95.843 16.7618 96.123 16.9284C96.403 17.0884 96.713 17.1684 97.053 17.1684C97.393 17.1684 97.703 17.0884 97.983 16.9284C98.2697 16.7618 98.4964 16.5251 98.663 16.2184C98.8297 15.9051 98.913 15.5418 98.913 15.1284ZM101.031 15.1184C101.031 14.5584 101.144 14.0684 101.371 13.6484C101.597 13.2218 101.907 12.8918 102.301 12.6584C102.701 12.4251 103.147 12.3084 103.641 12.3084C104.067 12.3084 104.464 12.4084 104.831 12.6084C105.197 12.8018 105.477 13.0584 105.671 13.3784V10.4784H106.591V17.8784H105.671V16.8484C105.491 17.1751 105.224 17.4451 104.871 17.6584C104.517 17.8651 104.104 17.9684 103.631 17.9684C103.144 17.9684 102.701 17.8484 102.301 17.6084C101.907 17.3684 101.597 17.0318 101.371 16.5984C101.144 16.1651 101.031 15.6718 101.031 15.1184ZM105.671 15.1284C105.671 14.7151 105.587 14.3551 105.421 14.0484C105.254 13.7418 105.027 13.5084 104.741 13.3484C104.461 13.1818 104.151 13.0984 103.811 13.0984C103.471 13.0984 103.161 13.1784 102.881 13.3384C102.601 13.4984 102.377 13.7318 102.211 14.0384C102.044 14.3451 101.961 14.7051 101.961 15.1184C101.961 15.5384 102.044 15.9051 102.211 16.2184C102.377 16.5251 102.601 16.7618 102.881 16.9284C103.161 17.0884 103.471 17.1684 103.811 17.1684C104.151 17.1684 104.461 17.0884 104.741 16.9284C105.027 16.7618 105.254 16.5251 105.421 16.2184C105.587 15.9051 105.671 15.5418 105.671 15.1284ZM113.955 17.9484C113.308 17.9484 112.718 17.7984 112.185 17.4984C111.651 17.1918 111.228 16.7684 110.915 16.2284C110.608 15.6818 110.455 15.0684 110.455 14.3884C110.455 13.7084 110.608 13.0984 110.915 12.5584C111.228 12.0118 111.651 11.5884 112.185 11.2884C112.718 10.9818 113.308 10.8284 113.955 10.8284C114.608 10.8284 115.201 10.9818 115.735 11.2884C116.268 11.5884 116.688 12.0084 116.995 12.5484C117.301 13.0884 117.455 13.7018 117.455 14.3884C117.455 15.0751 117.301 15.6884 116.995 16.2284C116.688 16.7684 116.268 17.1918 115.735 17.4984C115.201 17.7984 114.608 17.9484 113.955 17.9484ZM113.955 17.1584C114.441 17.1584 114.878 17.0451 115.265 16.8184C115.658 16.5918 115.965 16.2684 116.185 15.8484C116.411 15.4284 116.525 14.9418 116.525 14.3884C116.525 13.8284 116.411 13.3418 116.185 12.9284C115.965 12.5084 115.661 12.1851 115.275 11.9584C114.888 11.7318 114.448 11.6184 113.955 11.6184C113.461 11.6184 113.021 11.7318 112.635 11.9584C112.248 12.1851 111.941 12.5084 111.715 12.9284C111.495 13.3418 111.385 13.8284 111.385 14.3884C111.385 14.9418 111.495 15.4284 111.715 15.8484C111.941 16.2684 112.248 16.5918 112.635 16.8184C113.028 17.0451 113.468 17.1584 113.955 17.1584ZM121.326 12.2984C121.993 12.2984 122.533 12.5018 122.946 12.9084C123.359 13.3084 123.566 13.8884 123.566 14.6484V17.8784H122.666V14.7784C122.666 14.2318 122.529 13.8151 122.256 13.5284C121.983 13.2351 121.609 13.0884 121.136 13.0884C120.656 13.0884 120.273 13.2384 119.986 13.5384C119.706 13.8384 119.566 14.2751 119.566 14.8484V17.8784H118.656V12.3984H119.566V13.1784C119.746 12.8984 119.989 12.6818 120.296 12.5284C120.609 12.3751 120.953 12.2984 121.326 12.2984Z" fill="white"/>
<path d="M37.8934 36.3384H21.8058C18.7216 36.3384 16.2124 33.8292 16.2124 30.745V14.6573C16.2124 11.5732 18.7216 9.06396 21.8058 9.06396H37.8934C40.9776 9.06396 43.4868 11.5732 43.4868 14.6573V30.745C43.4868 33.8292 40.9776 36.3384 37.8934 36.3384Z" fill="#00C3FF"/>
<path d="M37.8929 9.06396H29.8491V36.3384H37.8929C40.9771 36.3384 43.4863 33.8292 43.4863 30.745V14.6573C43.4863 11.5732 40.9771 9.06396 37.8929 9.06396Z" fill="#00AAF0"/>
<path d="M24.6112 30.0798C24.3648 30.5065 23.9162 30.7453 23.4556 30.7454C23.2298 30.7454 23.0012 30.688 22.792 30.5673C22.156 30.2001 21.9373 29.384 22.3045 28.7481L22.5664 28.2944H25.642L24.6112 30.0798Z" fill="#1C1C1C"/>
<path d="M22.0987 27.2291C21.3644 27.2291 20.767 26.6317 20.767 25.8974C20.767 25.163 21.3644 24.5656 22.0987 24.5656H24.7185L28.3118 18.3418L27.3379 16.6551C26.9708 16.0191 27.1894 15.203 27.8253 14.8358H27.8254C28.4613 14.4687 29.2774 14.6874 29.6446 15.3233L29.8496 15.6784L30.0545 15.3234C30.4218 14.6874 31.2379 14.4688 31.8737 14.8359C32.1818 15.0138 32.4022 15.3009 32.4942 15.6445C32.5863 15.9881 32.539 16.3471 32.3611 16.6551L27.794 24.5656H30.6748L32.2126 27.2291H22.0987Z" fill="#1C1C1C"/>
<path d="M37.5982 27.2297H36.5162L37.3932 28.7487C37.7604 29.3846 37.5417 30.2007 36.9058 30.5678C36.7006 30.6863 36.4728 30.7469 36.242 30.7469C36.1263 30.7469 36.01 30.7317 35.8952 30.7009C35.5515 30.6088 35.2643 30.3884 35.0865 30.0803L30.4624 22.0712L32.0002 19.4077L34.9784 24.5661H37.5982C38.3325 24.5661 38.9299 25.1636 38.9299 25.8979C38.9299 26.6322 38.3325 27.2297 37.5982 27.2297Z" fill="#F2F2F2"/>
<path d="M29.8491 24.5659V27.2294H32.2122L30.6744 24.5659H29.8491Z" fill="#F2F2F2"/>
<path d="M32.4938 15.6445C32.4017 15.3009 32.1813 15.0137 31.8733 14.8359C31.2375 14.4687 30.4214 14.6873 30.0541 15.3234L29.8491 15.6783V21.0054L32.3607 16.6551C32.5386 16.3471 32.5859 15.9882 32.4938 15.6445Z" fill="#F2F2F2"/>
</svg>
