<svg width="159" height="45" viewBox="0 0 159 45" fill="none" xmlns="http://www.w3.org/2000/svg">
<rect x="1" y="0.960449" width="156.608" height="43.1112" rx="4" fill="#1C1C1C" stroke="#979797" stroke-opacity="0.2"/>
<path d="M62.7639 26.0256C62.5119 25.5402 62.1619 25.1762 61.7139 24.9336C61.2659 24.6816 60.7479 24.5556 60.1599 24.5556C59.5159 24.5556 58.9419 24.7002 58.4379 24.9896C57.9339 25.2789 57.5372 25.6896 57.2479 26.2216C56.9679 26.7536 56.8279 27.3696 56.8279 28.0696C56.8279 28.7696 56.9679 29.3902 57.2479 29.9316C57.5372 30.4636 57.9339 30.8742 58.4379 31.1636C58.9419 31.4529 59.5159 31.5976 60.1599 31.5976C61.0279 31.5976 61.7325 31.3549 62.2739 30.8696C62.8152 30.3842 63.1465 29.7262 63.2679 28.8956H59.6139V27.6216H64.9759V28.8676C64.8732 29.6236 64.6025 30.3189 64.1639 30.9536C63.7345 31.5882 63.1699 32.0969 62.4699 32.4796C61.7792 32.8529 61.0092 33.0396 60.1599 33.0396C59.2452 33.0396 58.4099 32.8296 57.6539 32.4096C56.8979 31.9802 56.2959 31.3876 55.8479 30.6316C55.4092 29.8756 55.1899 29.0216 55.1899 28.0696C55.1899 27.1176 55.4092 26.2636 55.8479 25.5076C56.2959 24.7516 56.8979 24.1636 57.6539 23.7436C58.4192 23.3142 59.2545 23.0996 60.1599 23.0996C61.1959 23.0996 62.1152 23.3562 62.9179 23.8696C63.7299 24.3736 64.3179 25.0922 64.6819 26.0256H62.7639ZM69.896 33.0816C69.168 33.0816 68.51 32.9182 67.922 32.5916C67.334 32.2556 66.872 31.7889 66.536 31.1916C66.2 30.5849 66.032 29.8849 66.032 29.0916C66.032 28.3076 66.2047 27.6122 66.55 27.0056C66.8953 26.3989 67.3667 25.9322 67.964 25.6056C68.5613 25.2789 69.2287 25.1156 69.966 25.1156C70.7033 25.1156 71.3707 25.2789 71.968 25.6056C72.5653 25.9322 73.0367 26.3989 73.382 27.0056C73.7273 27.6122 73.9 28.3076 73.9 29.0916C73.9 29.8756 73.7227 30.5709 73.368 31.1776C73.0133 31.7842 72.528 32.2556 71.912 32.5916C71.3053 32.9182 70.6333 33.0816 69.896 33.0816ZM69.896 31.6956C70.3067 31.6956 70.6893 31.5976 71.044 31.4016C71.408 31.2056 71.702 30.9116 71.926 30.5196C72.15 30.1276 72.262 29.6516 72.262 29.0916C72.262 28.5316 72.1547 28.0602 71.94 27.6776C71.7253 27.2856 71.4407 26.9916 71.086 26.7956C70.7313 26.5996 70.3487 26.5016 69.938 26.5016C69.5273 26.5016 69.1447 26.5996 68.79 26.7956C68.4447 26.9916 68.1693 27.2856 67.964 27.6776C67.7587 28.0602 67.656 28.5316 67.656 29.0916C67.656 29.9222 67.866 30.5662 68.286 31.0236C68.7153 31.4716 69.252 31.6956 69.896 31.6956ZM78.8237 33.0816C78.0957 33.0816 77.4377 32.9182 76.8497 32.5916C76.2617 32.2556 75.7997 31.7889 75.4637 31.1916C75.1277 30.5849 74.9597 29.8849 74.9597 29.0916C74.9597 28.3076 75.1324 27.6122 75.4777 27.0056C75.8231 26.3989 76.2944 25.9322 76.8917 25.6056C77.4891 25.2789 78.1564 25.1156 78.8937 25.1156C79.6311 25.1156 80.2984 25.2789 80.8957 25.6056C81.4931 25.9322 81.9644 26.3989 82.3097 27.0056C82.6551 27.6122 82.8277 28.3076 82.8277 29.0916C82.8277 29.8756 82.6504 30.5709 82.2957 31.1776C81.9411 31.7842 81.4557 32.2556 80.8397 32.5916C80.2331 32.9182 79.5611 33.0816 78.8237 33.0816ZM78.8237 31.6956C79.2344 31.6956 79.6171 31.5976 79.9717 31.4016C80.3357 31.2056 80.6297 30.9116 80.8537 30.5196C81.0777 30.1276 81.1897 29.6516 81.1897 29.0916C81.1897 28.5316 81.0824 28.0602 80.8677 27.6776C80.6531 27.2856 80.3684 26.9916 80.0137 26.7956C79.6591 26.5996 79.2764 26.5016 78.8657 26.5016C78.4551 26.5016 78.0724 26.5996 77.7177 26.7956C77.3724 26.9916 77.0971 27.2856 76.8917 27.6776C76.6864 28.0602 76.5837 28.5316 76.5837 29.0916C76.5837 29.9222 76.7937 30.5662 77.2137 31.0236C77.6431 31.4716 78.1797 31.6956 78.8237 31.6956ZM87.5135 25.1156C88.1108 25.1156 88.6381 25.2369 89.0955 25.4796C89.5621 25.7129 89.9261 26.0069 90.1875 26.3616V25.2416H91.7975V33.0816C91.7975 33.7909 91.6481 34.4209 91.3495 34.9716C91.0508 35.5316 90.6168 35.9702 90.0475 36.2876C89.4875 36.6049 88.8155 36.7636 88.0315 36.7636C86.9861 36.7636 86.1181 36.5162 85.4275 36.0216C84.7368 35.5362 84.3448 34.8736 84.2515 34.0336H85.8335C85.9548 34.4349 86.2115 34.7569 86.6035 34.9996C87.0048 35.2516 87.4808 35.3776 88.0315 35.3776C88.6755 35.3776 89.1935 35.1816 89.5855 34.7896C89.9868 34.3976 90.1875 33.8282 90.1875 33.0816V31.7936C89.9168 32.1576 89.5481 32.4656 89.0815 32.7176C88.6241 32.9602 88.1015 33.0816 87.5135 33.0816C86.8415 33.0816 86.2255 32.9136 85.6655 32.5776C85.1148 32.2322 84.6761 31.7562 84.3495 31.1496C84.0321 30.5336 83.8735 29.8382 83.8735 29.0636C83.8735 28.2889 84.0321 27.6029 84.3495 27.0056C84.6761 26.4082 85.1148 25.9462 85.6655 25.6196C86.2255 25.2836 86.8415 25.1156 87.5135 25.1156ZM90.1875 29.0916C90.1875 28.5596 90.0755 28.0976 89.8515 27.7056C89.6368 27.3136 89.3521 27.0149 88.9975 26.8096C88.6428 26.6042 88.2601 26.5016 87.8495 26.5016C87.4388 26.5016 87.0561 26.6042 86.7015 26.8096C86.3468 27.0056 86.0575 27.2996 85.8335 27.6916C85.6188 28.0742 85.5115 28.5316 85.5115 29.0636C85.5115 29.5956 85.6188 30.0622 85.8335 30.4636C86.0575 30.8649 86.3468 31.1729 86.7015 31.3876C87.0655 31.5929 87.4481 31.6956 87.8495 31.6956C88.2601 31.6956 88.6428 31.5929 88.9975 31.3876C89.3521 31.1822 89.6368 30.8836 89.8515 30.4916C90.0755 30.0902 90.1875 29.6236 90.1875 29.0916ZM95.4898 22.5956V32.9556H93.8938V22.5956H95.4898ZM104.655 28.9096C104.655 29.1989 104.636 29.4602 104.599 29.6936H98.7052C98.7518 30.3096 98.9805 30.8042 99.3912 31.1776C99.8018 31.5509 100.306 31.7376 100.903 31.7376C101.762 31.7376 102.368 31.3782 102.723 30.6596H104.445C104.212 31.3689 103.787 31.9522 103.171 32.4096C102.564 32.8576 101.808 33.0816 100.903 33.0816C100.166 33.0816 99.5032 32.9182 98.9152 32.5916C98.3365 32.2556 97.8792 31.7889 97.5432 31.1916C97.2165 30.5849 97.0532 29.8849 97.0532 29.0916C97.0532 28.2982 97.2118 27.6029 97.5292 27.0056C97.8558 26.3989 98.3085 25.9322 98.8872 25.6056C99.4752 25.2789 100.147 25.1156 100.903 25.1156C101.631 25.1156 102.28 25.2742 102.849 25.5916C103.418 25.9089 103.862 26.3569 104.179 26.9356C104.496 27.5049 104.655 28.1629 104.655 28.9096ZM102.989 28.4056C102.98 27.8176 102.77 27.3462 102.359 26.9916C101.948 26.6369 101.44 26.4596 100.833 26.4596C100.282 26.4596 99.8112 26.6369 99.4192 26.9916C99.0272 27.3369 98.7938 27.8082 98.7192 28.4056H102.989ZM116.667 26.1236C116.667 26.6182 116.55 27.0849 116.317 27.5236C116.083 27.9622 115.71 28.3216 115.197 28.6016C114.683 28.8722 114.025 29.0076 113.223 29.0076H111.459V32.9556H109.863V23.2256H113.223C113.969 23.2256 114.599 23.3562 115.113 23.6176C115.635 23.8696 116.023 24.2149 116.275 24.6536C116.536 25.0922 116.667 25.5822 116.667 26.1236ZM113.223 27.7056C113.829 27.7056 114.282 27.5702 114.581 27.2996C114.879 27.0196 115.029 26.6276 115.029 26.1236C115.029 25.0596 114.427 24.5276 113.223 24.5276H111.459V27.7056H113.223ZM119.785 22.5956V32.9556H118.189V22.5956H119.785ZM121.348 29.0636C121.348 28.2889 121.507 27.6029 121.824 27.0056C122.151 26.4082 122.589 25.9462 123.14 25.6196C123.7 25.2836 124.316 25.1156 124.988 25.1156C125.595 25.1156 126.122 25.2369 126.57 25.4796C127.027 25.7129 127.391 26.0069 127.662 26.3616V25.2416H129.272V32.9556H127.662V31.8076C127.391 32.1716 127.023 32.4749 126.556 32.7176C126.089 32.9602 125.557 33.0816 124.96 33.0816C124.297 33.0816 123.691 32.9136 123.14 32.5776C122.589 32.2322 122.151 31.7562 121.824 31.1496C121.507 30.5336 121.348 29.8382 121.348 29.0636ZM127.662 29.0916C127.662 28.5596 127.55 28.0976 127.326 27.7056C127.111 27.3136 126.827 27.0149 126.472 26.8096C126.117 26.6042 125.735 26.5016 125.324 26.5016C124.913 26.5016 124.531 26.6042 124.176 26.8096C123.821 27.0056 123.532 27.2996 123.308 27.6916C123.093 28.0742 122.986 28.5316 122.986 29.0636C122.986 29.5956 123.093 30.0622 123.308 30.4636C123.532 30.8649 123.821 31.1729 124.176 31.3876C124.54 31.5929 124.923 31.6956 125.324 31.6956C125.735 31.6956 126.117 31.5929 126.472 31.3876C126.827 31.1822 127.111 30.8836 127.326 30.4916C127.55 30.0902 127.662 29.6236 127.662 29.0916ZM138.312 25.2416L133.58 36.5816H131.928L133.496 32.8296L130.458 25.2416H132.236L134.406 31.1216L136.66 25.2416H138.312Z" fill="white"/>
<path d="M58.4869 10.9084C59.2469 10.9084 59.9035 11.0518 60.4569 11.3384C61.0169 11.6184 61.4435 12.0218 61.7369 12.5484C62.0369 13.0751 62.1869 13.6951 62.1869 14.4084C62.1869 15.1218 62.0369 15.7418 61.7369 16.2684C61.4435 16.7884 61.0169 17.1884 60.4569 17.4684C59.9035 17.7418 59.2469 17.8784 58.4869 17.8784H56.3169V10.9084H58.4869ZM58.4869 17.1284C59.3869 17.1284 60.0735 16.8918 60.5469 16.4184C61.0202 15.9384 61.2569 15.2684 61.2569 14.4084C61.2569 13.5418 61.0169 12.8651 60.5369 12.3784C60.0635 11.8918 59.3802 11.6484 58.4869 11.6484H57.2269V17.1284H58.4869ZM65.7772 17.9684C65.2639 17.9684 64.7972 17.8518 64.3772 17.6184C63.9639 17.3851 63.6372 17.0551 63.3972 16.6284C63.1639 16.1951 63.0472 15.6951 63.0472 15.1284C63.0472 14.5684 63.1672 14.0751 63.4072 13.6484C63.6539 13.2151 63.9872 12.8851 64.4072 12.6584C64.8272 12.4251 65.2972 12.3084 65.8172 12.3084C66.3372 12.3084 66.8072 12.4251 67.2272 12.6584C67.6472 12.8851 67.9772 13.2118 68.2172 13.6384C68.4639 14.0651 68.5872 14.5618 68.5872 15.1284C68.5872 15.6951 68.4605 16.1951 68.2072 16.6284C67.9605 17.0551 67.6239 17.3851 67.1972 17.6184C66.7705 17.8518 66.2972 17.9684 65.7772 17.9684ZM65.7772 17.1684C66.1039 17.1684 66.4105 17.0918 66.6972 16.9384C66.9839 16.7851 67.2139 16.5551 67.3872 16.2484C67.5672 15.9418 67.6572 15.5684 67.6572 15.1284C67.6572 14.6884 67.5705 14.3151 67.3972 14.0084C67.2239 13.7018 66.9972 13.4751 66.7172 13.3284C66.4372 13.1751 66.1339 13.0984 65.8072 13.0984C65.4739 13.0984 65.1672 13.1751 64.8872 13.3284C64.6139 13.4751 64.3939 13.7018 64.2272 14.0084C64.0605 14.3151 63.9772 14.6884 63.9772 15.1284C63.9772 15.5751 64.0572 15.9518 64.2172 16.2584C64.3839 16.5651 64.6039 16.7951 64.8772 16.9484C65.1505 17.0951 65.4505 17.1684 65.7772 17.1684ZM77.0837 12.3984L75.3737 17.8784H74.4337L73.1137 13.5284L71.7937 17.8784H70.8537L69.1337 12.3984H70.0637L71.3237 16.9984L72.6837 12.3984H73.6137L74.9437 17.0084L76.1837 12.3984H77.0837ZM80.6568 12.2984C81.3235 12.2984 81.8635 12.5018 82.2768 12.9084C82.6901 13.3084 82.8968 13.8884 82.8968 14.6484V17.8784H81.9968V14.7784C81.9968 14.2318 81.8601 13.8151 81.5868 13.5284C81.3135 13.2351 80.9401 13.0884 80.4668 13.0884C79.9868 13.0884 79.6035 13.2384 79.3168 13.5384C79.0368 13.8384 78.8968 14.2751 78.8968 14.8484V17.8784H77.9868V12.3984H78.8968V13.1784C79.0768 12.8984 79.3201 12.6818 79.6268 12.5284C79.9401 12.3751 80.2835 12.2984 80.6568 12.2984ZM85.2933 10.4784V17.8784H84.3833V10.4784H85.2933ZM89.2342 17.9684C88.7209 17.9684 88.2542 17.8518 87.8342 17.6184C87.4209 17.3851 87.0942 17.0551 86.8542 16.6284C86.6209 16.1951 86.5042 15.6951 86.5042 15.1284C86.5042 14.5684 86.6242 14.0751 86.8642 13.6484C87.1109 13.2151 87.4442 12.8851 87.8642 12.6584C88.2842 12.4251 88.7542 12.3084 89.2742 12.3084C89.7942 12.3084 90.2642 12.4251 90.6842 12.6584C91.1042 12.8851 91.4342 13.2118 91.6742 13.6384C91.9209 14.0651 92.0442 14.5618 92.0442 15.1284C92.0442 15.6951 91.9176 16.1951 91.6642 16.6284C91.4176 17.0551 91.0809 17.3851 90.6542 17.6184C90.2276 17.8518 89.7542 17.9684 89.2342 17.9684ZM89.2342 17.1684C89.5609 17.1684 89.8676 17.0918 90.1542 16.9384C90.4409 16.7851 90.6709 16.5551 90.8442 16.2484C91.0242 15.9418 91.1142 15.5684 91.1142 15.1284C91.1142 14.6884 91.0276 14.3151 90.8542 14.0084C90.6809 13.7018 90.4542 13.4751 90.1742 13.3284C89.8942 13.1751 89.5909 13.0984 89.2642 13.0984C88.9309 13.0984 88.6242 13.1751 88.3442 13.3284C88.0709 13.4751 87.8509 13.7018 87.6842 14.0084C87.5176 14.3151 87.4342 14.6884 87.4342 15.1284C87.4342 15.5751 87.5142 15.9518 87.6742 16.2584C87.8409 16.5651 88.0609 16.7951 88.3342 16.9484C88.6076 17.0951 88.9076 17.1684 89.2342 17.1684ZM92.9007 15.1184C92.9007 14.5584 93.014 14.0684 93.2407 13.6484C93.4674 13.2218 93.7774 12.8918 94.1707 12.6584C94.5707 12.4251 95.014 12.3084 95.5007 12.3084C95.9807 12.3084 96.3974 12.4118 96.7507 12.6184C97.104 12.8251 97.3674 13.0851 97.5407 13.3984V12.3984H98.4607V17.8784H97.5407V16.8584C97.3607 17.1784 97.0907 17.4451 96.7307 17.6584C96.3774 17.8651 95.964 17.9684 95.4907 17.9684C95.004 17.9684 94.564 17.8484 94.1707 17.6084C93.7774 17.3684 93.4674 17.0318 93.2407 16.5984C93.014 16.1651 92.9007 15.6718 92.9007 15.1184ZM97.5407 15.1284C97.5407 14.7151 97.4574 14.3551 97.2907 14.0484C97.124 13.7418 96.8974 13.5084 96.6107 13.3484C96.3307 13.1818 96.0207 13.0984 95.6807 13.0984C95.3407 13.0984 95.0307 13.1784 94.7507 13.3384C94.4707 13.4984 94.2474 13.7318 94.0807 14.0384C93.914 14.3451 93.8307 14.7051 93.8307 15.1184C93.8307 15.5384 93.914 15.9051 94.0807 16.2184C94.2474 16.5251 94.4707 16.7618 94.7507 16.9284C95.0307 17.0884 95.3407 17.1684 95.6807 17.1684C96.0207 17.1684 96.3307 17.0884 96.6107 16.9284C96.8974 16.7618 97.124 16.5251 97.2907 16.2184C97.4574 15.9051 97.5407 15.5418 97.5407 15.1284ZM99.6585 15.1184C99.6585 14.5584 99.7718 14.0684 99.9985 13.6484C100.225 13.2218 100.535 12.8918 100.929 12.6584C101.329 12.4251 101.775 12.3084 102.269 12.3084C102.695 12.3084 103.092 12.4084 103.459 12.6084C103.825 12.8018 104.105 13.0584 104.299 13.3784V10.4784H105.219V17.8784H104.299V16.8484C104.119 17.1751 103.852 17.4451 103.499 17.6584C103.145 17.8651 102.732 17.9684 102.259 17.9684C101.772 17.9684 101.329 17.8484 100.929 17.6084C100.535 17.3684 100.225 17.0318 99.9985 16.5984C99.7718 16.1651 99.6585 15.6718 99.6585 15.1184ZM104.299 15.1284C104.299 14.7151 104.215 14.3551 104.049 14.0484C103.882 13.7418 103.655 13.5084 103.369 13.3484C103.089 13.1818 102.779 13.0984 102.439 13.0984C102.099 13.0984 101.789 13.1784 101.509 13.3384C101.229 13.4984 101.005 13.7318 100.839 14.0384C100.672 14.3451 100.589 14.7051 100.589 15.1184C100.589 15.5384 100.672 15.9051 100.839 16.2184C101.005 16.5251 101.229 16.7618 101.509 16.9284C101.789 17.0884 102.099 17.1684 102.439 17.1684C102.779 17.1684 103.089 17.0884 103.369 16.9284C103.655 16.7618 103.882 16.5251 104.049 16.2184C104.215 15.9051 104.299 15.5418 104.299 15.1284ZM112.582 17.9484C111.936 17.9484 111.346 17.7984 110.812 17.4984C110.279 17.1918 109.856 16.7684 109.542 16.2284C109.236 15.6818 109.082 15.0684 109.082 14.3884C109.082 13.7084 109.236 13.0984 109.542 12.5584C109.856 12.0118 110.279 11.5884 110.812 11.2884C111.346 10.9818 111.936 10.8284 112.582 10.8284C113.236 10.8284 113.829 10.9818 114.362 11.2884C114.896 11.5884 115.316 12.0084 115.622 12.5484C115.929 13.0884 116.082 13.7018 116.082 14.3884C116.082 15.0751 115.929 15.6884 115.622 16.2284C115.316 16.7684 114.896 17.1918 114.362 17.4984C113.829 17.7984 113.236 17.9484 112.582 17.9484ZM112.582 17.1584C113.069 17.1584 113.506 17.0451 113.892 16.8184C114.286 16.5918 114.592 16.2684 114.812 15.8484C115.039 15.4284 115.152 14.9418 115.152 14.3884C115.152 13.8284 115.039 13.3418 114.812 12.9284C114.592 12.5084 114.289 12.1851 113.902 11.9584C113.516 11.7318 113.076 11.6184 112.582 11.6184C112.089 11.6184 111.649 11.7318 111.262 11.9584C110.876 12.1851 110.569 12.5084 110.342 12.9284C110.122 13.3418 110.012 13.8284 110.012 14.3884C110.012 14.9418 110.122 15.4284 110.342 15.8484C110.569 16.2684 110.876 16.5918 111.262 16.8184C111.656 17.0451 112.096 17.1584 112.582 17.1584ZM119.954 12.2984C120.62 12.2984 121.16 12.5018 121.574 12.9084C121.987 13.3084 122.194 13.8884 122.194 14.6484V17.8784H121.294V14.7784C121.294 14.2318 121.157 13.8151 120.884 13.5284C120.61 13.2351 120.237 13.0884 119.764 13.0884C119.284 13.0884 118.9 13.2384 118.614 13.5384C118.334 13.8384 118.194 14.2751 118.194 14.8484V17.8784H117.284V12.3984H118.194V13.1784C118.374 12.8984 118.617 12.6818 118.924 12.5284C119.237 12.3751 119.58 12.2984 119.954 12.2984Z" fill="white"/>
<path d="M32.5568 22.7015L17.9259 34.0516C17.3657 33.6134 16.9883 32.9328 16.9883 32.1214V13.2816C16.9883 12.4702 17.3657 11.7896 17.9259 11.3521L32.5568 22.7015Z" fill="#9DC6FB"/>
<path d="M36.9862 24.8267L33.446 26.8707L30.3431 26.4827L29.2773 22.7014L29.8186 19.0812L33.446 18.5327L36.9862 20.5762C38.6224 21.5208 38.6224 23.882 36.9862 24.8267V24.8267Z" fill="#FFE07D"/>
<path d="M33.4445 26.871L20.6691 34.2468C19.7356 34.7854 18.6694 34.6329 17.9258 34.0517L29.2758 22.7017L33.4445 26.871Z" fill="#DD5790"/>
<path d="M33.4445 18.5325L29.2758 22.7013L17.9258 11.3518C18.6694 10.7699 19.7356 10.6175 20.6691 11.1561L33.4445 18.5325Z" fill="#95D6A4"/>
<path d="M19.7543 32.1215C19.7543 32.2863 19.7696 32.4455 19.7992 32.5985L17.9261 34.0515C17.3659 33.6137 16.9883 32.9331 16.9883 32.1215V13.2816C16.9883 12.4705 17.3659 11.7899 17.9261 11.3521L19.7992 12.8051C19.7696 12.958 19.7543 13.1172 19.7543 13.2816V32.1215Z" fill="#80B4FB"/>
<path d="M20.8319 34.1532L20.6694 34.2468C19.7359 34.785 18.6695 34.6326 17.9258 34.0514L19.7559 32.2212C19.7856 32.9888 20.1546 33.6317 20.6914 34.0514H20.6918C20.7372 34.0867 20.7841 34.1211 20.8319 34.1532V34.1532Z" fill="#DA387D"/>
<path d="M20.6918 11.3516L20.6923 11.3526L20.6913 11.3516C20.1541 11.7713 19.7855 12.4146 19.7559 13.1818L17.9258 11.3516C18.6695 10.7699 19.7359 10.6175 20.6693 11.1561L20.8318 11.2498C20.7841 11.2818 20.7372 11.3162 20.6918 11.3516Z" fill="#78C2A4"/>
</svg>
