<svg width="56" height="56" viewBox="0 0 56 56" fill="none" xmlns="http://www.w3.org/2000/svg">
<g clip-path="url(#clip0_1886_19442)">
<path d="M50.0946 2.7207H13.8831C10.7404 2.7207 8.18364 5.2536 8.18364 8.35684L7.95028 40.243H0.883413C0.382591 40.243 0 40.6858 0 41.1866V45.5749C0 49.6829 3.28745 53.0425 7.25506 53.2267V53.2794H37.749V53.2201C37.9757 53.2294 38.113 53.2794 38.2688 53.2794H38.2905C42.5221 53.2546 45.9331 49.8055 45.9109 45.574V17.6843H55.1166C55.6174 17.6843 56 17.2308 56 16.7304V8.67876C56.0057 5.40637 53.367 2.74417 50.0946 2.7207ZM7.65182 51.4656H7.64562C4.41972 51.4656 1.81376 48.7994 1.81376 45.574V42.0567H30.6073V45.5589C30.6002 47.6003 31.4066 49.5602 32.8479 51.0055C33.0011 51.1596 33.1614 51.2389 33.3253 51.4656H7.65182ZM44.0972 45.5731C44.0972 48.7994 41.5164 51.4656 38.2892 51.4656H38.2706C35.0274 51.4422 32.4135 48.8025 32.421 45.5594V41.1866C32.4237 40.6787 32.0221 40.2607 31.5142 40.243H9.76404L9.9974 8.36303C9.9974 6.25391 11.7403 4.53447 13.8831 4.53447H45.8131C44.7795 5.66807 44.0972 7.10234 44.0972 8.70312V45.5731ZM54.1862 8.6947V15.8705H45.9109V8.70134C45.9109 6.43148 47.7991 4.53447 50.0681 4.53447H50.0933C52.368 4.55705 54.1968 6.41288 54.1862 8.68806V8.6947Z" fill="#282828"/>
<path d="M21.2946 25.042L25.9702 28.2387C26.2753 28.449 26.6788 28.449 26.9838 28.2387L31.6453 25.0429C33.2647 23.9381 34.4608 21.6284 34.4608 19.6698V13.2021C34.4705 12.8602 34.2819 12.5432 33.9772 12.3877L26.8581 8.88596C26.6083 8.76197 26.3152 8.76197 26.0655 8.88596L18.9596 12.378C18.655 12.5334 18.4668 12.8505 18.477 13.1923V19.6698C18.477 21.6284 19.6757 23.9381 21.2946 25.042ZM20.2907 13.7582L26.4689 10.7099L32.647 13.7667V19.6698C32.647 21.0359 31.7516 22.7735 30.622 23.5435L26.4582 26.3913L22.3108 23.544C21.1812 22.773 20.2907 21.0359 20.2907 19.6698V13.7582Z" fill="#282828"/>
<path d="M24.9366 21.0395C25.1058 21.2122 25.3369 21.3101 25.5787 21.3114H25.5809C25.8218 21.3105 26.0525 21.214 26.2221 21.043L29.8297 17.4341C30.1844 17.0799 30.1844 16.5051 29.8302 16.1508C29.4764 15.7961 28.9016 15.7961 28.5473 16.1504L25.584 19.1133L24.3995 17.9172C24.0466 17.5612 23.4723 17.5585 23.1162 17.9115C22.7602 18.2644 22.758 18.8387 23.1105 19.1947L24.9366 21.0395Z" fill="#282828"/>
<path d="M37.7482 30.834H15.9831C15.4822 30.834 15.0762 31.24 15.0762 31.7409C15.0762 32.2417 15.4822 32.6477 15.9831 32.6477H37.7482C38.2491 32.6477 38.6551 32.2417 38.6551 31.7409C38.6551 31.24 38.2491 30.834 37.7482 30.834Z" fill="#282828"/>
<path d="M37.7482 35.0293H15.9831C15.4822 35.0293 15.0762 35.4354 15.0762 35.9362C15.0762 36.437 15.4822 36.8431 15.9831 36.8431H37.7482C38.2491 36.8431 38.6551 36.437 38.6551 35.9362C38.6551 35.4354 38.2491 35.0293 37.7482 35.0293Z" fill="#282828"/>
</g>
<defs>
<clipPath id="clip0_1886_19442">
<rect width="56" height="56" fill="white"/>
</clipPath>
</defs>
</svg>
