<svg width="56" height="56" viewBox="0 0 56 56" fill="none" xmlns="http://www.w3.org/2000/svg">
<path d="M47.25 0.875H35C33.5528 0.875 32.375 2.05275 32.375 3.5V5.25C30.4447 5.25 28.875 6.81975 28.875 8.75C28.875 10.6803 30.4447 12.25 32.375 12.25V16.625H39.375V14.875C39.375 13.9099 40.1599 13.125 41.125 13.125C42.0901 13.125 42.875 13.9099 42.875 14.875V16.625H47.25C48.6973 16.625 49.875 15.4473 49.875 14V3.5C49.875 2.05275 48.6973 0.875 47.25 0.875ZM48.125 14C48.125 14.4821 47.733 14.875 47.25 14.875H44.625C44.625 12.9447 43.0553 11.375 41.125 11.375C39.1947 11.375 37.625 12.9447 37.625 14.875H34.125V10.5H32.375C31.4099 10.5 30.625 9.71513 30.625 8.75C30.625 7.78487 31.4099 7 32.375 7H34.125V3.5C34.125 3.01787 34.517 2.625 35 2.625H47.25C47.733 2.625 48.125 3.01787 48.125 3.5V14Z" fill="#282828"/>
<path d="M32.375 18.375C30.4447 18.375 28.875 19.9447 28.875 21.875H25.375V17.5H23.625C22.6599 17.5 21.875 16.7151 21.875 15.75C21.875 14.7849 22.6599 14 23.625 14H25.375V6.125H23.0291C13.7086 6.125 6.125 13.7086 6.125 23.0291C6.125 28.1199 8.38513 32.8886 12.3253 36.1121L15.75 38.9147V41.2869C14.7341 41.6491 14 42.6116 14 43.7509C14 44.961 14.8269 45.9725 15.9425 46.2744C15.8209 46.5762 15.75 46.9044 15.75 47.25C15.75 48.4067 16.5069 49.3797 17.5473 49.7289C17.9095 52.7634 20.4951 55.125 23.625 55.125C26.7549 55.125 29.3405 52.7634 29.7027 49.7289C30.7431 49.3797 31.5 48.4067 31.5 47.25C31.5 46.9044 31.4291 46.5762 31.3075 46.2735C32.4231 45.9707 33.25 44.9601 33.25 43.75C33.25 42.6107 32.5159 41.6482 31.5 41.286V38.9139L34.9247 36.1112C38.8649 32.8886 41.125 28.1199 41.125 23.0291V21.875H35.875C35.875 19.9447 34.3052 18.375 32.375 18.375ZM23.0291 7.875H23.625V12.25C21.6947 12.25 20.125 13.8197 20.125 15.75C20.125 17.6802 21.6947 19.25 23.625 19.25V21.875H20.125C20.125 19.9447 18.5552 18.375 16.625 18.375C14.6947 18.375 13.125 19.9447 13.125 21.875H7.91875C8.51025 14.056 15.0614 7.875 23.0291 7.875ZM13.433 34.7576C10.0546 31.9935 8.05437 27.9632 7.88725 23.625H14.875V21.875C14.875 20.9099 15.6599 20.125 16.625 20.125C17.5901 20.125 18.375 20.9099 18.375 21.875V23.625H23.625V27.125C21.6947 27.125 20.125 28.6947 20.125 30.625C20.125 32.5552 21.6947 34.125 23.625 34.125V41.125H17.5V38.0852L13.433 34.7576ZM23.625 53.375C21.5127 53.375 19.7452 51.8691 19.3384 49.875H27.9116C27.5047 51.8691 25.7372 53.375 23.625 53.375ZM28.875 48.125H18.375C17.892 48.125 17.5 47.7321 17.5 47.25C17.5 46.7679 17.892 46.375 18.375 46.375H28.875C29.358 46.375 29.75 46.7679 29.75 47.25C29.75 47.7321 29.358 48.125 28.875 48.125ZM30.625 44.625H28.875H18.375H16.625C16.142 44.625 15.75 44.2321 15.75 43.75C15.75 43.2679 16.142 42.875 16.625 42.875H30.625C31.108 42.875 31.5 43.2679 31.5 43.75C31.5 44.2321 31.108 44.625 30.625 44.625ZM33.817 34.7576L29.75 38.0852V41.125H25.375V32.375H23.625C22.6599 32.375 21.875 31.5901 21.875 30.625C21.875 29.6599 22.6599 28.875 23.625 28.875H25.375V23.625H30.625V21.875C30.625 20.9099 31.4099 20.125 32.375 20.125C33.3401 20.125 34.125 20.9099 34.125 21.875V23.625H39.3627C39.1956 27.9632 37.1954 31.9935 33.817 34.7576Z" fill="#282828"/>
</svg>
