<svg width="56" height="56" viewBox="0 0 56 56" fill="none" xmlns="http://www.w3.org/2000/svg">
<g clip-path="url(#clip0_1886_19418)">
<path d="M38.8341 48.7751C42.0875 48.7751 44.3849 45.5878 43.3562 42.5013C42.6255 40.311 40.7612 38.6942 38.4887 38.2806L32.4525 37.1822V36.7144C33.5029 36.1047 34.417 35.2891 35.145 34.3235H36.9686C38.4625 34.3235 39.6783 33.1078 39.6783 31.6138V20.7751C39.6783 14.3008 34.4107 9.0332 27.9363 9.0332C21.462 9.0332 16.1944 14.3008 16.1944 20.7751V27.0977C16.1944 28.8391 17.4327 30.296 19.0748 30.6357C19.5815 33.2315 21.2037 35.4282 23.4202 36.7144V37.1822L17.3831 38.2806C15.1114 38.6942 13.2463 40.311 12.5165 42.5013L12.1552 43.5861L9.07879 40.5097C8.72654 40.1575 8.72654 39.5839 9.07879 39.2316L9.29764 39.0129C11.1471 37.1639 11.1473 34.1656 9.29806 32.3163C7.44899 30.4673 4.45105 30.4673 2.60197 32.3163L1.91802 33.0003C0.723954 34.1944 0.0664062 35.7822 0.0664062 37.4713C0.0664062 39.1603 0.723954 40.7473 1.91802 41.9413L14.1251 54.1484C15.3192 55.3425 16.9071 56.0009 18.5961 56.0009C20.2851 56.0009 21.8721 55.3425 23.0381 54.1755L26.0086 51.4539C26.7873 50.7404 26.8134 49.5213 26.0658 48.7751H38.8341ZM37.8718 31.6138C37.8718 32.1124 37.4663 32.5171 36.9686 32.5171H36.209C36.4709 31.92 36.6696 31.2905 36.7979 30.6357C37.1845 30.5553 37.5403 30.4017 37.8718 30.2084V31.6138ZM36.9686 28.6531V25.5424C37.506 25.8558 37.8718 26.432 37.8718 27.0977C37.8718 27.7634 37.506 28.3397 36.9686 28.6531ZM18.9041 28.6531C18.3667 28.3397 18.0009 27.7634 18.0009 27.0977C18.0009 26.432 18.3667 25.8558 18.9041 25.5424V28.6531ZM19.8073 22.5816C19.3085 22.5816 18.9041 22.986 18.9041 23.4848V23.6131C18.5825 23.6971 18.2809 23.8235 18.0009 23.987V20.7751C18.0009 15.2971 22.4583 10.8397 27.9363 10.8397C33.4144 10.8397 37.8718 15.2971 37.8718 20.7751V23.987C37.5918 23.8235 37.2901 23.6962 36.9686 23.6131V23.4848C36.9686 22.986 36.5642 22.5816 36.0654 22.5816C33.3945 22.5816 30.8836 21.5411 28.994 19.6524C28.4099 19.0683 27.4628 19.0683 26.8787 19.6524C24.9891 21.5411 22.4781 22.5816 19.8073 22.5816ZM20.7105 28.9042V24.3537C23.4229 24.1496 25.952 23.0305 27.9363 21.1437C29.9207 23.0305 32.4498 24.1505 35.1622 24.3537V28.9042C35.1622 30.2211 34.8027 31.4531 34.1849 32.5171H28.8396C28.3407 32.5171 27.9363 32.9215 27.9363 33.4203C27.9363 33.9191 28.3407 34.3235 28.8396 34.3235H32.7C31.4264 35.4444 29.7618 36.13 27.9363 36.13C23.9522 36.13 20.7105 32.8883 20.7105 28.9042ZM30.646 37.52V37.5625L27.9363 40.2722L25.2267 37.5625V37.52C26.0829 37.7892 26.9925 37.9364 27.9363 37.9364C28.8802 37.9364 29.7898 37.7892 30.646 37.52ZM14.229 43.0722C14.7501 41.5078 16.0824 40.3526 17.7055 40.0563L24.0191 38.9092L27.9363 42.8265L31.8527 38.9101L38.1654 40.0572C39.7885 40.3535 41.1207 41.5078 41.6419 43.0731C42.2812 44.9893 40.855 46.9687 38.8349 46.9687H24.2593C22.2885 44.9979 19.1185 44.9185 17.0515 46.7882L16.8321 46.9867C16.4916 47.3291 15.8963 47.3291 15.5549 46.9867L13.5823 45.0141L14.229 43.0722ZM5.94912 31.5226L10.0913 35.6648L9.11041 36.6457L4.96821 32.5035L5.94912 31.5226ZM21.7872 52.8731C20.9345 53.7239 19.8001 54.1945 18.5943 54.1945C17.3885 54.1945 16.254 53.7239 15.4005 52.8713L3.19337 40.6651C2.34073 39.8124 1.87105 38.678 1.87105 37.4722C1.87105 36.2655 2.34073 35.131 3.19337 34.2784L3.69015 33.7816L7.83234 37.9238L7.79983 37.9563C6.74395 39.0131 6.74395 40.7319 7.79983 41.7887L14.2769 48.2657C14.789 48.7769 15.4691 49.0597 16.1935 49.0597C16.9179 49.0597 17.598 48.7778 18.0767 48.2973L18.1445 48.2368L22.3056 52.398L21.7872 52.8731ZM23.6388 51.175L19.4867 47.0229L20.6798 45.9444L24.8247 50.0893L23.6388 51.175Z" fill="#282828"/>
<path d="M53.2259 0H40.5808C39.0868 0 37.8711 1.21574 37.8711 2.70968V9.93548C37.8711 11.4294 39.0868 12.6452 40.5808 12.6452H42.9933C42.6319 14.753 44.9326 16.2968 46.7462 15.1634L50.7755 12.6452H53.2259C54.7199 12.6452 55.9356 11.4294 55.9356 9.93548V2.70968C55.9356 1.21574 54.7199 0 53.2259 0ZM54.1292 9.93548C54.1292 10.4332 53.7236 10.8387 53.2259 10.8387H50.257L44.5206 14.4236L45.1357 10.8387H40.5808C40.0831 10.8387 39.6775 10.4332 39.6775 9.93548V2.70968C39.6775 2.212 40.0831 1.80645 40.5808 1.80645H53.2259C53.7236 1.80645 54.1292 2.212 54.1292 2.70968V9.93548Z" fill="#282828"/>
<path d="M52.3231 3.61328H41.4844V5.41973H52.3231V3.61328Z" fill="#282828"/>
<path d="M48.7102 7.22656H41.4844V9.03301H48.7102V7.22656Z" fill="#282828"/>
<path d="M52.3221 7.22656H50.5156V9.03301H52.3221V7.22656Z" fill="#282828"/>
<path d="M27.9353 2.70898C16.1337 2.70898 5.96794 10.8723 3.3251 22.2593L2.07812 20.1806C1.82152 19.7528 1.26671 19.6141 0.838972 19.8707C0.41123 20.1274 0.272554 20.6822 0.529242 21.1099L1.65195 22.9807C2.52861 24.4414 4.42348 24.915 5.88425 24.0383L7.75505 22.9156C8.18277 22.6589 8.32145 22.1041 8.0648 21.6763C7.80813 21.2485 7.25329 21.1098 6.82551 21.3665L5.15232 22.3704C7.71207 11.9535 17.0794 4.51544 27.9353 4.51544C30.004 4.51544 32.0486 4.78319 34.0262 5.31271C34.5079 5.44172 35.0134 5.177 35.1611 4.70059C35.3088 4.22419 35.0427 3.71662 34.5613 3.5862C32.4103 3.00345 30.1857 2.70898 27.9353 2.70898Z" fill="#282828"/>
<path d="M55.0319 20.7736C55.2886 20.3458 55.1499 19.791 54.7221 19.5343L52.8519 18.4119C51.3909 17.5351 49.4958 18.0089 48.6193 19.47L47.4971 21.3408C47.2405 21.7686 47.3792 22.3233 47.8069 22.58C48.2347 22.8367 48.7896 22.6979 49.0462 22.2701L50.1622 20.41C50.994 22.8442 51.4194 25.3904 51.4194 27.9998C51.4194 33.0693 49.7622 38.0318 46.7369 42.0733C46.4379 42.4726 46.4956 43.0404 46.883 43.3547C47.2703 43.6689 47.8406 43.6106 48.1406 43.2122C51.4262 38.8493 53.2259 33.4822 53.2259 27.9998C53.2259 25.2369 52.7806 22.5389 51.9126 19.9557L53.7926 21.0835C54.2204 21.3401 54.7752 21.2013 55.0319 20.7736Z" fill="#282828"/>
</g>
<defs>
<clipPath id="clip0_1886_19418">
<rect width="56" height="56" fill="white"/>
</clipPath>
</defs>
</svg>
