<svg width="24" height="24" viewBox="0 0 24 24" fill="none" xmlns="http://www.w3.org/2000/svg">
<g clip-path="url(#clip0_1_5280)">
<path d="M1.5 23.25H3.75C4.16363 23.25 4.5 22.9136 4.5 22.5V21.75H12.9772C14.8612 21.75 16.7021 21.222 18.2996 20.2238C20.7083 18.7181 22.3729 16.2503 22.8668 13.4528L23.0295 12.531C23.1022 12.1193 22.9901 11.6993 22.7213 11.379C22.4524 11.0588 22.0583 10.875 21.6401 10.875C21.4118 10.875 21.1943 10.9316 21 11.0306V9.375H21.375C21.5265 9.375 21.6637 9.2835 21.7215 9.14363C21.7796 9.00338 21.7474 8.84213 21.6401 8.73488L18.6401 5.73488C18.4935 5.58825 18.2565 5.58825 18.1099 5.73488L17.25 6.59475V1.5C17.25 1.293 17.0824 1.125 16.875 1.125H13.125C12.9176 1.125 12.75 1.293 12.75 1.5V5.625H11.2305C10.9451 4.99725 10.734 4.63013 10.5645 4.41713L11.5121 2.10113C11.6175 1.848 11.556 1.56338 11.3554 1.37625C11.1547 1.18875 10.8664 1.14788 10.6215 1.27013L9.91238 1.6245L9.46575 1.029C9.35287 0.878254 9.18038 0.783754 8.9925 0.770254C8.80425 0.756379 8.62013 0.825004 8.4855 0.958879L7.91512 1.52888L7.5405 1.029C7.42725 0.877879 7.25475 0.783754 7.0665 0.770254C6.87862 0.756379 6.69375 0.825379 6.56025 0.958879L5.84062 1.6785L4.75912 1.3695C4.50525 1.29675 4.23713 1.383 4.07325 1.58813C3.909 1.79325 3.88388 2.07488 4.0095 2.30475L5.1435 4.39838C4.34737 5.11763 3.375 7.1385 3.375 8.97488V10.125C3.375 11.3659 4.38412 12.375 5.625 12.375H9.75H13.125H16.125H20.0182L19.2262 13.9594L17.1641 14.8433C16.9328 14.0696 16.2229 13.5 15.375 13.5H9.97613C8.02463 13.5 6.147 14.0378 4.5 15.0548V14.25C4.5 13.8364 4.16363 13.5 3.75 13.5H1.5C1.08637 13.5 0.75 13.8364 0.75 14.25V22.5C0.75 22.9136 1.08637 23.25 1.5 23.25ZM5.69137 2.41613C5.91825 2.481 6.16313 2.418 6.32963 2.25075L7.0095 1.57088L7.3845 2.0715C7.49812 2.22225 7.671 2.31675 7.85925 2.32988C8.04975 2.34225 8.23125 2.274 8.36438 2.14088L8.93475 1.57088L9.36263 2.14088C9.5505 2.39288 9.891 2.47388 10.1734 2.33288L10.719 2.05988L9.873 4.125H8.85675L9.33525 3.16763L8.66437 2.832L8.01825 4.125H7.36088L6.83813 3.0375L6.162 3.36263L6.52838 4.125H5.84812L4.782 2.15625L5.69137 2.41613ZM9.375 6V11.625H5.625C4.79775 11.625 4.125 10.9523 4.125 10.125V8.97488C4.125 6.9675 5.36737 5.0955 5.72287 4.875H9.9705C10.0312 4.9485 10.1689 5.14575 10.4018 5.625H9.75C9.54263 5.625 9.375 5.793 9.375 6ZM10.125 6.375H12.75V11.625H10.125V6.375ZM18.375 6.53025L20.4697 8.625H16.2803L18.375 6.53025ZM13.5 1.875H16.5V7.34475L15.1099 8.73488C15.0026 8.84213 14.9704 9.00338 15.0285 9.14363C15.0863 9.2835 15.2235 9.375 15.375 9.375H15.75V11.625H13.5V1.875ZM16.5 9.375H20.25V11.625H19.5V10.125C19.5 9.918 19.3324 9.75 19.125 9.75H17.625C17.4176 9.75 17.25 9.918 17.25 10.125V11.625H16.5V9.375ZM18.75 11.625H18V10.5H18.75V11.625ZM9.97613 14.25H15.375C15.9952 14.25 16.5 14.7548 16.5 15.375C16.5 15.9953 15.9952 16.5 15.375 16.5H9.375V17.25H15.375C16.3204 17.25 17.0966 16.5443 17.2238 15.6334L19.6474 14.5946C19.7291 14.5598 19.7959 14.4971 19.8353 14.4176L21.0487 11.9903C21.162 11.7649 21.3881 11.625 21.6401 11.625C21.8359 11.625 22.0208 11.7109 22.1467 11.8613C22.2727 12.0116 22.3256 12.2081 22.2915 12.4009L22.1287 13.3226C21.6716 15.9113 20.1315 18.1946 17.9021 19.5878C16.4239 20.5118 14.721 21 12.9772 21H4.5V15.9518C6.11963 14.841 8.00738 14.25 9.97613 14.25ZM1.5 14.25H3.75L3.75038 22.5H1.5V14.25Z" fill="#282828"/>
<path d="M2.25 15.375H3V16.5H2.25V15.375Z" fill="#282828"/>
<path d="M14.25 2.625H14.625V3.375H14.25V2.625Z" fill="#282828"/>
<path d="M15.375 2.625H15.75V3.375H15.375V2.625Z" fill="#282828"/>
<path d="M14.25 4.125H14.625V4.875H14.25V4.125Z" fill="#282828"/>
<path d="M15.375 4.125H15.75V4.875H15.375V4.125Z" fill="#282828"/>
<path d="M14.25 5.625H14.625V6.375H14.25V5.625Z" fill="#282828"/>
<path d="M15.375 5.625H15.75V6.375H15.375V5.625Z" fill="#282828"/>
<path d="M10.875 7.125H11.25V7.875H10.875V7.125Z" fill="#282828"/>
<path d="M12 7.125H12.375V7.875H12V7.125Z" fill="#282828"/>
<path d="M10.875 8.625H11.25V9.375H10.875V8.625Z" fill="#282828"/>
<path d="M12 8.625H12.375V9.375H12V8.625Z" fill="#282828"/>
<path d="M10.875 10.125H11.25V10.875H10.875V10.125Z" fill="#282828"/>
<path d="M12 10.125H12.375V10.875H12V10.125Z" fill="#282828"/>
<path d="M14.25 7.125H14.625V7.875H14.25V7.125Z" fill="#282828"/>
<path d="M15.375 7.125H15.75V7.875H15.375V7.125Z" fill="#282828"/>
<path d="M8.25 6.75H7.875V6.375H7.125V6.75H6.75C6.54263 6.75 6.375 6.918 6.375 7.125V8.25C6.375 8.457 6.54263 8.625 6.75 8.625H7.875V9H6.375V9.375C6.375 9.582 6.54263 9.75 6.75 9.75H7.125V10.125H7.875V9.75H8.25C8.45738 9.75 8.625 9.582 8.625 9.375V8.25C8.625 8.043 8.45738 7.875 8.25 7.875H7.125V7.5H8.625V7.125C8.625 6.918 8.45738 6.75 8.25 6.75Z" fill="#282828"/>
</g>
<defs>
<clipPath id="clip0_1_5280">
<rect width="24" height="24" fill="white"/>
</clipPath>
</defs>
</svg>
