<svg width="24" height="24" viewBox="0 0 24 24" fill="none" xmlns="http://www.w3.org/2000/svg">
<g clip-path="url(#clip0_3531_573)">
<path d="M1.5 23.2491H3.75C4.16363 23.2491 4.5 22.9127 4.5 22.4991V21.7491H12.9772C14.8612 21.7491 16.7021 21.2211 18.2996 20.2228C20.7083 18.7172 22.3729 16.2493 22.8668 13.4518L23.0295 12.5301C23.1022 12.1183 22.9901 11.6983 22.7213 11.3781C22.4524 11.0578 22.0583 10.8741 21.6401 10.8741C21.4118 10.8741 21.1943 10.9307 21 11.0297V9.37409H21.375C21.5265 9.37409 21.6637 9.28259 21.7215 9.14271C21.7796 9.00246 21.7474 8.84121 21.6401 8.73396L18.6401 5.73396C18.4935 5.58734 18.2565 5.58734 18.1099 5.73396L17.25 6.59384V1.49909C17.25 1.29209 17.0824 1.12409 16.875 1.12409H13.125C12.9176 1.12409 12.75 1.29209 12.75 1.49909V5.62409H11.2305C10.9451 4.99634 10.734 4.62921 10.5645 4.41621L11.5121 2.10021C11.6175 1.84709 11.556 1.56246 11.3554 1.37534C11.1547 1.18784 10.8664 1.14696 10.6215 1.26921L9.91238 1.62359L9.46575 1.02809C9.35287 0.877339 9.18038 0.782839 8.9925 0.769339C8.80425 0.755464 8.62013 0.824089 8.4855 0.957964L7.91512 1.52796L7.5405 1.02809C7.42725 0.876964 7.25475 0.782839 7.0665 0.769339C6.87862 0.755464 6.69375 0.824464 6.56025 0.957964L5.84062 1.67759L4.75912 1.36859C4.50525 1.29584 4.23713 1.38209 4.07325 1.58721C3.909 1.79234 3.88388 2.07396 4.0095 2.30384L5.1435 4.39746C4.34737 5.11671 3.375 7.13759 3.375 8.97396V10.1241C3.375 11.365 4.38412 12.3741 5.625 12.3741H9.75H13.125H16.125H20.0182L19.2262 13.9585L17.1641 14.8423C16.9328 14.0687 16.2229 13.4991 15.375 13.4991H9.97613C8.02463 13.4991 6.147 14.0368 4.5 15.0538V14.2491C4.5 13.8355 4.16363 13.4991 3.75 13.4991H1.5C1.08637 13.4991 0.75 13.8355 0.75 14.2491V22.4991C0.75 22.9127 1.08637 23.2491 1.5 23.2491ZM5.69137 2.41521C5.91825 2.48009 6.16313 2.41709 6.32963 2.24984L7.0095 1.56996L7.3845 2.07059C7.49812 2.22134 7.671 2.31584 7.85925 2.32896C8.04975 2.34134 8.23125 2.27309 8.36438 2.13996L8.93475 1.56996L9.36263 2.13996C9.5505 2.39196 9.891 2.47296 10.1734 2.33196L10.719 2.05896L9.873 4.12409H8.85675L9.33525 3.16671L8.66437 2.83109L8.01825 4.12409H7.36088L6.83813 3.03659L6.162 3.36171L6.52838 4.12409H5.84812L4.782 2.15534L5.69137 2.41521ZM9.375 5.99909V11.6241H5.625C4.79775 11.6241 4.125 10.9513 4.125 10.1241V8.97396C4.125 6.96659 5.36737 5.09459 5.72287 4.87409H9.9705C10.0312 4.94759 10.1689 5.14484 10.4018 5.62409H9.75C9.54263 5.62409 9.375 5.79209 9.375 5.99909ZM10.125 6.37409H12.75V11.6241H10.125V6.37409ZM18.375 6.52934L20.4697 8.62409H16.2803L18.375 6.52934ZM13.5 1.87409H16.5V7.34384L15.1099 8.73396C15.0026 8.84121 14.9704 9.00246 15.0285 9.14271C15.0863 9.28259 15.2235 9.37409 15.375 9.37409H15.75V11.6241H13.5V1.87409ZM16.5 9.37409H20.25V11.6241H19.5V10.1241C19.5 9.91709 19.3324 9.74909 19.125 9.74909H17.625C17.4176 9.74909 17.25 9.91709 17.25 10.1241V11.6241H16.5V9.37409ZM18.75 11.6241H18V10.4991H18.75V11.6241ZM9.97613 14.2491H15.375C15.9952 14.2491 16.5 14.7538 16.5 15.3741C16.5 15.9943 15.9952 16.4991 15.375 16.4991H9.375V17.2491H15.375C16.3204 17.2491 17.0966 16.5433 17.2238 15.6325L19.6474 14.5937C19.7291 14.5588 19.7959 14.4962 19.8353 14.4167L21.0487 11.9893C21.162 11.764 21.3881 11.6241 21.6401 11.6241C21.8359 11.6241 22.0208 11.71 22.1467 11.8603C22.2727 12.0107 22.3256 12.2072 22.2915 12.4L22.1287 13.3217C21.6716 15.9103 20.1315 18.1937 17.9021 19.5868C16.4239 20.5108 14.721 20.9991 12.9772 20.9991H4.5V15.9508C6.11963 14.8401 8.00738 14.2491 9.97613 14.2491ZM1.5 14.2491H3.75L3.75038 22.4991H1.5V14.2491Z" fill="#282828"/>
<path d="M2.25 15.375H3V16.5H2.25V15.375Z" fill="#282828"/>
<path d="M14.25 2.625H14.625V3.375H14.25V2.625Z" fill="#282828"/>
<path d="M15.375 2.625H15.75V3.375H15.375V2.625Z" fill="#282828"/>
<path d="M14.25 4.125H14.625V4.875H14.25V4.125Z" fill="#282828"/>
<path d="M15.375 4.125H15.75V4.875H15.375V4.125Z" fill="#282828"/>
<path d="M14.25 5.625H14.625V6.375H14.25V5.625Z" fill="#282828"/>
<path d="M15.375 5.625H15.75V6.375H15.375V5.625Z" fill="#282828"/>
<path d="M10.875 7.125H11.25V7.875H10.875V7.125Z" fill="#282828"/>
<path d="M12 7.125H12.375V7.875H12V7.125Z" fill="#282828"/>
<path d="M10.875 8.625H11.25V9.375H10.875V8.625Z" fill="#282828"/>
<path d="M12 8.625H12.375V9.375H12V8.625Z" fill="#282828"/>
<path d="M10.875 10.125H11.25V10.875H10.875V10.125Z" fill="#282828"/>
<path d="M12 10.125H12.375V10.875H12V10.125Z" fill="#282828"/>
<path d="M14.25 7.125H14.625V7.875H14.25V7.125Z" fill="#282828"/>
<path d="M15.375 7.125H15.75V7.875H15.375V7.125Z" fill="#282828"/>
<path d="M8.25 6.75H7.875V6.375H7.125V6.75H6.75C6.54263 6.75 6.375 6.918 6.375 7.125V8.25C6.375 8.457 6.54263 8.625 6.75 8.625H7.875V9H6.375V9.375C6.375 9.582 6.54263 9.75 6.75 9.75H7.125V10.125H7.875V9.75H8.25C8.45738 9.75 8.625 9.582 8.625 9.375V8.25C8.625 8.043 8.45738 7.875 8.25 7.875H7.125V7.5H8.625V7.125C8.625 6.918 8.45738 6.75 8.25 6.75Z" fill="#282828"/>
</g>
<defs>
<clipPath id="clip0_3531_573">
<rect width="24" height="24" fill="white"/>
</clipPath>
</defs>
</svg>
