<svg width="44" height="44" viewBox="0 0 44 44" fill="none" xmlns="http://www.w3.org/2000/svg">
<path d="M20.6339 40.5323C18.3458 40.7062 16.0782 39.9946 14.2997 38.5445C12.5212 37.0943 11.3677 35.0165 11.0774 32.7401C14.1878 34.185 16.7604 34.1866 18.7379 31.7276C19.4943 30.9019 20.0918 30.25 21.3127 30.25C23.8746 30.331 26.3402 31.2453 28.3354 32.8543C28.4794 32.9621 28.66 33.0092 28.8383 32.9853C29.0167 32.9615 29.1786 32.8688 29.2893 32.7269C29.4 32.5851 29.4507 32.4055 29.4305 32.2268C29.4103 32.048 29.3208 31.8842 29.1813 31.7707C26.9445 29.9731 24.1812 28.9562 21.3127 28.875C16.3185 29.192 18.371 34.7162 11.0179 31.1994C11.1133 29.3533 11.7758 27.5816 12.915 26.1257C14.0542 24.6699 15.6147 23.6009 17.3837 23.0645C17.5257 23.0222 17.6502 22.9353 17.7388 22.8165C17.8273 22.6978 17.8752 22.5536 17.8752 22.4055V10.003C17.8752 9.84951 17.8238 9.70042 17.7293 9.57948C17.6348 9.45854 17.5025 9.37271 17.3535 9.33566C16.1846 9.04529 15.8352 8.66092 15.8114 8.60622C16.7047 7.2326 23.1765 7.27272 24.064 8.58104C24.0402 8.66094 23.6907 9.04531 22.5219 9.33568C22.3729 9.37273 22.2406 9.45855 22.1461 9.57948C22.0516 9.70041 22.0002 9.84949 22.0002 10.003V22.4055C21.9866 23.0314 22.6871 23.106 23.1335 23.283C23.2297 23.3148 23.3316 23.3255 23.4323 23.3143C23.533 23.3032 23.6302 23.2706 23.7171 23.2186C23.8041 23.1666 23.8788 23.0965 23.9363 23.013C23.9937 22.9296 24.0326 22.8347 24.0501 22.735C24.0676 22.6352 24.0635 22.5328 24.0379 22.4347C24.0123 22.3367 23.966 22.2453 23.9019 22.1668C23.8379 22.0883 23.7577 22.0245 23.6668 21.9797C23.5759 21.9349 23.4765 21.9103 23.3752 21.9073V10.5223C24.7106 10.092 25.4377 9.41724 25.4377 8.59378C25.4377 6.94046 22.5866 6.1875 19.9377 6.1875C17.2888 6.1875 14.4377 6.94046 14.4377 8.59375C14.4377 9.4172 15.1648 10.0919 16.5002 10.5223V21.9067C15.298 22.3348 14.1866 22.9843 13.2235 23.8215C12.7171 23.4703 12.1688 23.1837 11.5914 22.9685V15.1216C12.8576 14.6742 13.0627 13.9967 13.0627 13.6056C13.0627 12.2807 10.9908 11.6875 8.93769 11.6875C6.88459 11.6875 4.81269 12.2807 4.81269 13.6056C4.81269 13.9967 5.0178 14.6741 6.28404 15.1216V22.9705C-2.77966 26.7849 1.83381 39.9509 11.294 37.2309C12.3069 38.7928 13.7237 40.0515 15.394 40.8734C17.0644 41.6953 18.9261 42.0498 20.7816 41.8992C20.9602 41.8764 21.1228 41.7845 21.2343 41.6431C21.3459 41.5018 21.3975 41.3223 21.3782 41.1433C21.3588 40.9643 21.27 40.8 21.1309 40.6858C20.9917 40.5715 20.8133 40.5164 20.6339 40.5323ZM7.16792 24.1233C7.30982 24.0809 7.43427 23.9939 7.52275 23.8752C7.61124 23.7565 7.65904 23.6124 7.65904 23.4643V14.6094C7.65898 14.4558 7.60756 14.3067 7.51296 14.1858C7.41837 14.0649 7.28604 13.9791 7.13704 13.942C6.83262 13.8783 6.54123 13.7633 6.27531 13.602C7.10135 13.1954 8.01855 13.0096 8.93769 13.0625C9.85684 13.0096 10.774 13.1954 11.6001 13.602C11.3342 13.7633 11.0428 13.8783 10.7384 13.942C10.5894 13.9791 10.457 14.0649 10.3624 14.1858C10.2678 14.3067 10.2164 14.4558 10.2163 14.6094V23.4643C10.2163 23.6128 10.2644 23.7574 10.3535 23.8763C10.4425 23.9952 10.5676 24.0821 10.7102 24.1239C11.2448 24.2825 11.7548 24.5147 12.2254 24.814C11.4173 25.7298 10.7762 26.7803 10.3312 27.9177C6.35723 27.6639 7.76651 32.1144 2.76786 29.6259C2.8593 28.3715 3.32869 27.1742 4.11417 26.1919C4.89964 25.2096 5.96434 24.4884 7.16792 24.1233ZM8.93769 36.2381C7.49144 36.2357 6.09161 35.7274 4.98088 34.8011C3.87015 33.8749 3.11854 32.5891 2.85636 31.1669C4.98108 32.1185 6.91078 31.926 8.22436 30.259C8.80018 29.6307 9.16617 29.2751 9.90392 29.269C9.3707 31.5292 9.62115 33.9035 10.6142 36.0027C10.069 36.1585 9.50475 36.2378 8.93769 36.2381Z" fill="#282828"/>
<path d="M41.25 36.4375H39.7672C43.7792 29.8494 39.2315 20.8262 31.625 20.0395V19.25C31.6246 18.8854 31.4797 18.5359 31.2219 18.2781C30.9641 18.0203 30.6146 17.8754 30.25 17.875V15.8125C30.25 15.6302 30.1776 15.4553 30.0486 15.3264C29.9197 15.1974 29.7448 15.125 29.5625 15.125H26.8125C26.6302 15.125 26.4553 15.1974 26.3264 15.3264C26.1974 15.4553 26.125 15.6302 26.125 15.8125V17.875C25.7604 17.8754 25.4109 18.0203 25.1531 18.2781C24.8953 18.5359 24.7504 18.8854 24.75 19.25V27.5C24.7504 27.8646 24.8953 28.2141 25.1531 28.4719C25.4109 28.7297 25.7604 28.8746 26.125 28.875H30.25C30.6146 28.8746 30.9641 28.7297 31.2219 28.4719C31.4797 28.2141 31.6246 27.8646 31.625 27.5V24.2079C37.3445 25.3402 39.1155 32.9576 34.3564 36.4375H24.75V35.0625H32.3125C32.4925 35.059 32.664 34.985 32.79 34.8564C32.9161 34.7279 32.9867 34.555 32.9867 34.375C32.9867 34.1949 32.9161 34.0221 32.79 33.8935C32.6639 33.765 32.4925 33.691 32.3125 33.6875H24.0625C23.8802 33.6875 23.7053 33.7599 23.5764 33.8889C23.4474 34.0178 23.375 34.1927 23.375 34.375V36.4375C23.0104 36.4379 22.6609 36.5828 22.4031 36.8406C22.1453 37.0984 22.0004 37.4479 22 37.8125V40.5625C22.0004 40.9271 22.1453 41.2766 22.4031 41.5344C22.6609 41.7922 23.0104 41.9371 23.375 41.9375H41.25C41.6146 41.9371 41.9641 41.7922 42.2219 41.5344C42.4797 41.2766 42.6246 40.9271 42.625 40.5625V37.8125C42.6246 37.4479 42.4797 37.0984 42.2219 36.8406C41.9641 36.5828 41.6146 36.4379 41.25 36.4375ZM27.5 16.5H28.875V17.875H27.5V16.5ZM30.25 27.5H26.125V19.25H30.25V19.9375C29.707 19.9436 29.1883 20.1636 28.8065 20.5497C28.4247 20.9359 28.2106 21.457 28.2106 22C28.2106 22.543 28.4247 23.0641 28.8065 23.4503C29.1883 23.8364 29.707 24.0564 30.25 24.0625V27.5ZM38.5 30.9375C38.4884 28.8828 37.7149 26.9055 36.3293 25.3883C34.9437 23.8711 33.0445 22.9219 30.9993 22.7244C30.4365 22.6758 29.5798 22.801 29.5625 22C29.5728 21.2812 30.3436 21.2566 30.8928 21.3387C38.2397 21.7192 42.4553 30.4706 38.1395 36.4375H36.3874C37.7445 34.9266 38.4967 32.9683 38.5 30.9375ZM23.375 40.5625V37.8125H41.25L41.251 40.5625H23.375Z" fill="#282828"/>
<path d="M7.5625 7.56252C7.56862 8.10551 7.78862 8.62418 8.17475 9.00598C8.56089 9.38778 9.08201 9.60191 9.62503 9.60191C10.1681 9.6019 10.6892 9.38775 11.0753 9.00594C11.4614 8.62412 11.6814 8.10545 11.6875 7.56246C11.6814 7.01947 11.4614 6.5008 11.0752 6.119C10.6891 5.73719 10.168 5.52306 9.62497 5.52307C9.08195 5.52308 8.56083 5.73723 8.17471 6.11904C7.78858 6.50085 7.5686 7.01953 7.5625 7.56252ZM10.3125 7.56252C10.309 7.74254 10.235 7.91399 10.1065 8.04005C9.9779 8.16612 9.80503 8.23673 9.62498 8.23673C9.44493 8.23672 9.27206 8.1661 9.14352 8.04003C9.01497 7.91395 8.941 7.74249 8.9375 7.56248C8.94101 7.38246 9.01499 7.21101 9.14355 7.08494C9.2721 6.95888 9.44497 6.88827 9.62502 6.88827C9.80507 6.88828 9.97794 6.9589 10.1065 7.08497C10.235 7.21104 10.309 7.3825 10.3125 7.56252Z" fill="#282828"/>
<path d="M11.6875 4.12502C11.6936 4.66801 11.9136 5.18668 12.2998 5.56848C12.6859 5.95028 13.207 6.16441 13.75 6.16441C14.2931 6.1644 14.8142 5.95025 15.2003 5.56844C15.5864 5.18662 15.8064 4.66795 15.8125 4.12496C15.8064 3.58197 15.5864 3.0633 15.2002 2.6815C14.8141 2.29969 14.293 2.08556 13.75 2.08557C13.2069 2.08558 12.6858 2.29973 12.2997 2.68154C11.9136 3.06335 11.6936 3.58203 11.6875 4.12502ZM14.4375 4.12502C14.434 4.30504 14.36 4.47649 14.2315 4.60255C14.1029 4.72862 13.93 4.79923 13.75 4.79923C13.5699 4.79922 13.3971 4.7286 13.2685 4.60253C13.14 4.47645 13.066 4.30499 13.0625 4.12498C13.066 3.94496 13.14 3.77351 13.2685 3.64744C13.3971 3.52138 13.57 3.45077 13.75 3.45077C13.9301 3.45078 14.1029 3.5214 14.2315 3.64747C14.36 3.77354 14.434 3.945 14.4375 4.12502Z" fill="#282828"/>
</svg>
