<svg width="24" height="24" viewBox="0 0 24 24" fill="none" xmlns="http://www.w3.org/2000/svg">
<path d="M7.16602 6.49219H4.96289C4.7558 6.49219 4.58789 6.66009 4.58789 6.86719V9.07031C4.58789 9.27741 4.7558 9.44531 4.96289 9.44531H7.16602C7.37311 9.44531 7.54102 9.27741 7.54102 9.07031V6.86719C7.54102 6.66009 7.37311 6.49219 7.16602 6.49219ZM6.79102 8.69531H5.33789V7.24219H6.79102V8.69531ZM9.22852 6.86723C9.22852 6.66014 9.39642 6.49223 9.60352 6.49223H15.2051C15.4122 6.49223 15.5801 6.66014 15.5801 6.86723C15.5801 7.07433 15.4122 7.24223 15.2051 7.24223H9.60352C9.39642 7.24223 9.22852 7.07433 9.22852 6.86723ZM9.22852 9.07026C9.22852 8.86317 9.39642 8.69526 9.60352 8.69526H15.2051C15.4122 8.69526 15.5801 8.86317 15.5801 9.07026C15.5801 9.27736 15.4122 9.44526 15.2051 9.44526H9.60352C9.39642 9.44526 9.22852 9.27736 9.22852 9.07026ZM7.16602 11.5078H4.96289C4.7558 11.5078 4.58789 11.6757 4.58789 11.8828V14.0859C4.58789 14.293 4.7558 14.4609 4.96289 14.4609H7.16602C7.37311 14.4609 7.54102 14.293 7.54102 14.0859V11.8828C7.54102 11.6757 7.37311 11.5078 7.16602 11.5078ZM6.79102 13.7109H5.33789V12.2578H6.79102V13.7109ZM9.22852 11.8828C9.22852 11.6757 9.39642 11.5078 9.60352 11.5078H15.2051C15.4122 11.5078 15.5801 11.6757 15.5801 11.8828C15.5801 12.0899 15.4122 12.2578 15.2051 12.2578H9.60352C9.39642 12.2578 9.22852 12.0899 9.22852 11.8828ZM12.6153 14.0859C12.6153 14.293 12.4474 14.4609 12.2403 14.4609H9.60352C9.39642 14.4609 9.22852 14.293 9.22852 14.0859C9.22852 13.8788 9.39642 13.7109 9.60352 13.7109H12.2403C12.4474 13.7109 12.6153 13.8788 12.6153 14.0859ZM7.16602 16.5234H4.96289C4.7558 16.5234 4.58789 16.6913 4.58789 16.8984V19.1016C4.58789 19.3087 4.7558 19.4766 4.96289 19.4766H7.16602C7.37311 19.4766 7.54102 19.3087 7.54102 19.1016V16.8984C7.54102 16.6913 7.37311 16.5234 7.16602 16.5234ZM6.79102 18.7266H5.33789V17.2734H6.79102V18.7266ZM12.6153 16.8984C12.6153 17.1055 12.4474 17.2734 12.2403 17.2734H9.60352C9.39642 17.2734 9.22852 17.1055 9.22852 16.8984C9.22852 16.6913 9.39642 16.5234 9.60352 16.5234H12.2403C12.4474 16.5234 12.6153 16.6913 12.6153 16.8984ZM11.7012 19.1015C11.7012 19.3086 11.5333 19.4765 11.3262 19.4765H9.60352C9.39642 19.4765 9.22852 19.3086 9.22852 19.1015C9.22852 18.8944 9.39642 18.7265 9.60352 18.7265H11.3262C11.5333 18.7265 11.7012 18.8944 11.7012 19.1015ZM22.1684 20.8977L18.6152 14.7434V3.74995C18.6152 3.0263 18.0264 2.4375 17.3027 2.4375H14.0684V1.59375C14.0684 1.38666 13.9005 1.21875 13.6934 1.21875H11.9051C11.6063 0.488391 10.8948 0 10.084 0C9.27314 0 8.56167 0.488391 8.26284 1.21875H6.47461C6.26752 1.21875 6.09961 1.38666 6.09961 1.59375V2.4375H2.86523C2.14153 2.4375 1.55273 3.0263 1.55273 3.74995V21C1.55273 21.7237 2.14153 22.3125 2.86523 22.3125H10.9266C10.9696 22.5376 11.0505 22.7582 11.1704 22.9658C11.5442 23.6134 12.2138 24 12.9616 24H20.3773C21.125 24 21.7945 23.6134 22.1684 22.9658C22.5422 22.3184 22.5422 21.5452 22.1684 20.8977ZM6.84961 1.96875H8.53472C8.70797 1.96875 8.85867 1.85011 8.89927 1.68169C9.03155 1.13311 9.51872 0.75 10.084 0.75C10.6493 0.75 11.1364 1.13311 11.2687 1.68169C11.3093 1.85011 11.46 1.96875 11.6332 1.96875H13.3184V3.65625H6.84961V1.96875ZM11.1705 20.8977C11.0486 21.1088 10.9672 21.3333 10.9247 21.5625H2.86523C2.55506 21.5625 2.30273 21.3102 2.30273 21V3.74995C2.30273 3.43983 2.55506 3.1875 2.86523 3.1875H6.09961V4.03125C6.09961 4.23834 6.26752 4.40625 6.47461 4.40625H13.6934C13.9005 4.40625 14.0684 4.23834 14.0684 4.03125V3.1875H17.3027C17.6129 3.1875 17.8652 3.43983 17.8652 3.74995V13.8197C17.5233 13.5767 17.1102 13.4414 16.6694 13.4414C15.9217 13.4414 15.2521 13.828 14.8783 14.4755L11.1705 20.8977ZM21.5189 22.5908C21.2805 23.0036 20.8538 23.25 20.3772 23.25H12.9616C12.485 23.25 12.0583 23.0036 11.82 22.5908C11.5817 22.1781 11.5817 21.6854 11.82 21.2727L15.5279 14.8505C15.7661 14.4377 16.1929 14.1914 16.6695 14.1914C17.146 14.1914 17.5728 14.4377 17.811 14.8505L21.5189 21.2727C21.7571 21.6854 21.7571 22.1782 21.5189 22.5908ZM16.6694 20.8863C16.1495 20.8863 15.7266 21.3093 15.7266 21.8292C15.7266 22.3491 16.1495 22.772 16.6694 22.772C17.1893 22.772 17.6123 22.3491 17.6123 21.8292C17.6123 21.3093 17.1893 20.8863 16.6694 20.8863ZM16.6694 22.0221C16.563 22.0221 16.4766 21.9355 16.4766 21.8292C16.4766 21.7229 16.5631 21.6364 16.6694 21.6364C16.7758 21.6364 16.8623 21.7229 16.8623 21.8292C16.8623 21.9355 16.7758 22.0221 16.6694 22.0221ZM16.6693 20.6226H16.6695C17.112 20.6226 17.4712 20.2761 17.4871 19.8339L17.5991 16.731C17.6073 16.5038 17.5282 16.2972 17.3703 16.1334C17.2125 15.9698 17.0088 15.8833 16.7814 15.8833H16.5573C16.3299 15.8833 16.1263 15.9698 15.9684 16.1334C15.8105 16.2972 15.7313 16.5038 15.7396 16.731L15.8517 19.8339C15.8676 20.2762 16.2267 20.6226 16.6693 20.6226ZM16.5082 16.6541C16.5242 16.6375 16.5343 16.6333 16.5573 16.6333H16.7814C16.8045 16.6333 16.8146 16.6376 16.8305 16.6541C16.8465 16.6707 16.8504 16.6809 16.8496 16.7039L16.7376 19.8068C16.7363 19.8437 16.7063 19.8726 16.6694 19.8726H16.6693C16.6324 19.8726 16.6025 19.8437 16.6011 19.8068L16.4891 16.7039C16.4883 16.6809 16.4922 16.6707 16.5082 16.6541Z" fill="black"/>
</svg>
