<svg width="24" height="24" viewBox="0 0 24 24" fill="none" xmlns="http://www.w3.org/2000/svg">
<path d="M0.78 16.353C0.793125 16.518 0.91275 16.6549 1.07475 16.6898L2.38162 16.9718C2.42775 17.1945 2.48625 17.4142 2.55712 17.6287L1.56788 18.525C1.44525 18.636 1.41 18.8145 1.48125 18.9641C1.662 19.3444 1.86337 19.6958 2.07975 20.0085C2.1735 20.1442 2.34525 20.2028 2.50313 20.1521L3.77325 19.743C3.92513 19.9132 4.08675 20.0749 4.257 20.2268L3.84787 21.4969C3.79725 21.654 3.85538 21.8261 3.9915 21.9202C4.30425 22.1366 4.65562 22.338 5.03587 22.5188C5.18587 22.59 5.364 22.5544 5.475 22.4321L6.37125 21.4429C6.58612 21.5134 6.80587 21.5722 7.02863 21.6184L7.31063 22.9253C7.3455 23.0869 7.48238 23.2065 7.647 23.22C7.8465 23.2358 8.04637 23.25 8.25 23.25C8.45363 23.25 8.6535 23.2358 8.853 23.22C9.018 23.2069 9.15487 23.0872 9.18975 22.9253L9.47175 21.6184C9.6945 21.5722 9.91463 21.5138 10.1291 21.4429L11.0254 22.4321C11.1367 22.5548 11.3153 22.5904 11.4645 22.5188C11.8448 22.338 12.1961 22.1362 12.5089 21.9202C12.645 21.8261 12.7031 21.654 12.6525 21.4969L12.2434 20.2268C12.4136 20.0749 12.5752 19.9132 12.7271 19.7434L13.9972 20.1525C14.1544 20.2035 14.3265 20.145 14.4206 20.0089C14.637 19.6961 14.8384 19.3448 15.0191 18.9645C15.0904 18.8149 15.0551 18.6364 14.9325 18.5254L13.9432 17.6291C14.0138 17.4143 14.0726 17.1945 14.1188 16.9718L15.4256 16.6898C15.5872 16.6549 15.7069 16.518 15.7204 16.3534C15.7358 16.1535 15.75 15.9536 15.75 15.75C15.75 15.5464 15.7357 15.3465 15.72 15.147C15.7069 14.982 15.5872 14.8451 15.4252 14.8103L14.1184 14.5283C14.0722 14.3055 14.0138 14.0854 13.9429 13.8709L14.9321 12.9746C15.0548 12.8636 15.09 12.6851 15.0187 12.5355C14.838 12.1553 14.6362 11.8039 14.4202 11.4911C14.3261 11.355 14.154 11.2965 13.9969 11.3475L12.7267 11.7566C12.5749 11.5864 12.4132 11.4248 12.243 11.2729L12.6521 10.0028C12.7027 9.84563 12.6446 9.6735 12.5085 9.57938C12.1957 9.363 11.8444 9.16162 11.4641 8.98087C11.3141 8.90925 11.136 8.94488 11.025 9.0675L10.1287 10.0568C9.91387 9.98625 9.69413 9.92738 9.47137 9.88125L9.18937 8.57438C9.1545 8.41275 9.01762 8.29313 8.853 8.27963C8.45362 8.24738 8.046 8.24813 7.64663 8.27963C7.48163 8.29275 7.34475 8.41238 7.30988 8.57438L7.02787 9.88125C6.80512 9.92738 6.58538 9.98588 6.37088 10.0568L5.47463 9.0675C5.36363 8.94488 5.1855 8.90962 5.0355 8.98087C4.65525 9.16162 4.30387 9.363 3.99112 9.57938C3.855 9.6735 3.79688 9.84563 3.8475 10.0028L4.25662 11.2729C4.08637 11.4248 3.92475 11.5864 3.77287 11.7566L2.50313 11.3475C2.34563 11.2965 2.1735 11.355 2.07975 11.4911C1.86337 11.8039 1.662 12.1553 1.48125 12.5355C1.41 12.6851 1.44525 12.8636 1.56788 12.9746L2.55712 13.8709C2.48662 14.0857 2.42775 14.3055 2.38162 14.5283L1.07475 14.8103C0.913125 14.8451 0.7935 14.982 0.78 15.1466C0.76425 15.3465 0.75 15.5464 0.75 15.75C0.75 15.9536 0.76425 16.1535 0.78 16.353ZM1.50787 15.4841L2.78362 15.2085C2.93438 15.1759 3.04988 15.0544 3.07463 14.9021C3.13088 14.5564 3.22163 14.217 3.34425 13.893C3.399 13.749 3.35963 13.5859 3.24525 13.4824L2.28188 12.6094C2.36588 12.4485 2.45362 12.2944 2.54437 12.1485L3.78038 12.5468C3.92663 12.5936 4.08787 12.5468 4.18575 12.4275C4.407 12.1567 4.65675 11.9074 4.9275 11.6858C5.04675 11.5883 5.09438 11.4274 5.04675 11.2804L4.6485 10.0444C4.79437 9.95325 4.94812 9.8655 5.10938 9.78187L5.98238 10.7456C6.08625 10.86 6.24975 10.8994 6.39337 10.8446C6.71662 10.722 7.056 10.6313 7.40213 10.575C7.55438 10.5503 7.67587 10.4348 7.7085 10.284L7.98375 9.00825C8.16038 8.99887 8.34 8.9985 8.51587 9.00825L8.7915 10.284C8.82413 10.4348 8.94563 10.5503 9.09787 10.575C9.44362 10.6313 9.783 10.722 10.107 10.8446C10.2502 10.8994 10.4138 10.8604 10.5176 10.7456L11.3906 9.78225C11.5515 9.86625 11.7056 9.954 11.8515 10.0447L11.4532 11.2808C11.406 11.4278 11.4532 11.5883 11.5725 11.6861C11.8433 11.9074 12.0926 12.1571 12.3143 12.4279C12.4121 12.5475 12.573 12.5951 12.7196 12.5471L13.9556 12.1489C14.0468 12.2947 14.1345 12.4485 14.2181 12.6094L13.2544 13.4824C13.14 13.5859 13.1006 13.749 13.1554 13.8934C13.278 14.2166 13.3687 14.556 13.425 14.9021C13.4497 15.0544 13.5653 15.1759 13.716 15.2085L14.9918 15.4838C14.9966 15.5719 15 15.6608 15 15.75C15 15.8393 14.997 15.9281 14.9921 16.0159L13.7164 16.2915C13.5656 16.3241 13.4501 16.4456 13.4254 16.5979C13.3691 16.9436 13.2784 17.283 13.1558 17.607C13.101 17.751 13.1404 17.9141 13.2548 18.0176L14.2181 18.8906C14.1341 19.0515 14.0464 19.2056 13.9556 19.3515L12.7196 18.9533C12.5722 18.9053 12.4121 18.9529 12.3143 19.0725C12.0934 19.3425 11.8436 19.5923 11.5725 19.8143C11.4532 19.9118 11.406 20.0726 11.4532 20.2192L11.8515 21.4553C11.7056 21.5464 11.5519 21.6341 11.391 21.7178L10.518 20.754C10.4145 20.6396 10.2514 20.601 10.107 20.655C9.78375 20.7776 9.44438 20.8684 9.09825 20.9246C8.946 20.9494 8.8245 21.0649 8.79187 21.2156L8.51663 22.4914C8.34 22.5008 8.16038 22.5011 7.9845 22.4914L7.70887 21.2156C7.67625 21.0649 7.55475 20.9494 7.4025 20.9246C7.05675 20.8684 6.71737 20.7776 6.39337 20.655C6.24975 20.6003 6.08625 20.6393 5.98275 20.754L5.10975 21.7174C4.94887 21.6334 4.79475 21.5456 4.64888 21.4549L5.04712 20.2189C5.09437 20.0719 5.04712 19.9114 4.92788 19.8135C4.65712 19.5922 4.40775 19.3425 4.18613 19.0718C4.08825 18.9521 3.927 18.9049 3.78075 18.9525L2.54475 19.3508C2.45362 19.2049 2.36588 19.0511 2.28225 18.8899L3.246 18.0169C3.36038 17.9134 3.39975 17.7503 3.345 17.6059C3.22237 17.2826 3.13163 16.9432 3.07538 16.5971C3.05063 16.4449 2.93513 16.3234 2.78438 16.2908L1.50787 16.0163C1.50337 15.9281 1.5 15.8393 1.5 15.75C1.5 15.6608 1.503 15.5719 1.50787 15.4841Z" fill="#282828"/>
<path d="M20.3321 6.08813C20.4731 6.04388 20.5751 5.9205 20.592 5.7735C20.6145 5.58413 20.625 5.41275 20.625 5.25C20.625 5.08725 20.6145 4.91588 20.5924 4.7265C20.5755 4.5795 20.4735 4.45613 20.3325 4.41188L19.2926 4.08525C19.2615 4.00013 19.227 3.9165 19.1891 3.83475L19.6931 2.86913C19.7614 2.73825 19.7464 2.57925 19.6549 2.463C19.4377 2.1885 19.188 1.93875 18.9127 1.72088C18.7965 1.629 18.6375 1.61438 18.5066 1.68225L17.5402 2.18625C17.4585 2.14875 17.3749 2.11425 17.2897 2.08313L16.9631 1.04325C16.9189 0.902253 16.7955 0.800253 16.6485 0.783378C16.269 0.739128 15.9806 0.739128 15.6011 0.783378C15.4541 0.800253 15.3307 0.902253 15.2865 1.04325L14.9599 2.08313C14.8748 2.11425 14.7911 2.14875 14.7094 2.18663L13.7438 1.68263C13.6129 1.61475 13.4543 1.62938 13.3376 1.72088C13.0631 1.938 12.8134 2.18775 12.5955 2.463C12.5036 2.57925 12.4886 2.73788 12.5569 2.86913L13.0605 3.83475C13.023 3.9165 12.9885 4.00013 12.9574 4.08525L11.9175 4.41188C11.7765 4.45613 11.6745 4.5795 11.6576 4.7265C11.6355 4.91588 11.625 5.08725 11.625 5.25C11.625 5.41275 11.6355 5.58413 11.6576 5.7735C11.6745 5.9205 11.7765 6.04388 11.9175 6.08813L12.9574 6.41475C12.9885 6.49988 13.023 6.5835 13.0609 6.66525L12.5569 7.63088C12.4886 7.76175 12.5036 7.92075 12.5951 8.037C12.8123 8.3115 13.062 8.56125 13.3373 8.77913C13.4531 8.871 13.6125 8.88563 13.7434 8.81775L14.709 8.31413C14.7907 8.35163 14.8744 8.38613 14.9595 8.41725L15.2861 9.45713C15.3304 9.59813 15.4538 9.70013 15.6008 9.717C15.7909 9.7395 15.9623 9.75 16.125 9.75C16.2877 9.75 16.4591 9.7395 16.6485 9.71738C16.7955 9.7005 16.9189 9.5985 16.9631 9.4575L17.2897 8.41763C17.3749 8.3865 17.4585 8.352 17.5402 8.31413L18.5059 8.81813C18.6367 8.88638 18.7957 8.87175 18.912 8.77988C19.1865 8.56275 19.4362 8.313 19.6541 8.03775C19.746 7.9215 19.761 7.76288 19.6927 7.63163L19.1887 6.666C19.2266 6.58425 19.2611 6.50063 19.2922 6.4155L20.3321 6.08813ZM18.8846 5.75663C18.7661 5.79413 18.6739 5.8875 18.6379 6.00675C18.5869 6.17625 18.5194 6.33938 18.4376 6.492C18.3787 6.6015 18.3776 6.73313 18.4354 6.843L18.9113 7.755C18.8224 7.85363 18.7283 7.94775 18.63 8.03625L17.718 7.56038C17.6078 7.50263 17.4761 7.50413 17.367 7.56263C17.2144 7.64438 17.0513 7.71188 16.8818 7.76288C16.7629 7.7985 16.6691 7.89113 16.6316 8.00963L16.3226 8.99363C16.1858 9.00188 16.0646 9.00188 15.9274 8.99363L15.6184 8.00963C15.5809 7.89113 15.4875 7.79888 15.3682 7.76288C15.1984 7.71188 15.0352 7.64438 14.8834 7.56263C14.7739 7.50375 14.6422 7.50263 14.532 7.56038L13.62 8.03625C13.5214 7.94738 13.4272 7.85325 13.3387 7.755L13.8146 6.843C13.872 6.73313 13.8713 6.60113 13.8124 6.492C13.7306 6.33938 13.6631 6.17625 13.6121 6.00675C13.5765 5.88788 13.4839 5.79413 13.3654 5.75663L12.3814 5.44763C12.3769 5.379 12.375 5.31338 12.375 5.25C12.375 5.18663 12.3769 5.121 12.3814 5.05238L13.3654 4.74338C13.4839 4.70588 13.5761 4.6125 13.6121 4.49325C13.6631 4.32338 13.7306 4.16025 13.8124 4.00838C13.8713 3.89888 13.8724 3.76725 13.8146 3.657L13.3387 2.745C13.4276 2.64638 13.5217 2.55225 13.62 2.46375L14.532 2.93963C14.6419 2.997 14.7739 2.99588 14.883 2.93738C15.0356 2.85563 15.1987 2.78813 15.3682 2.73713C15.4871 2.7015 15.5809 2.60888 15.6184 2.49038L15.9274 1.50638C16.0642 1.49813 16.1854 1.49813 16.3226 1.50638L16.6316 2.49038C16.6691 2.60888 16.7625 2.70113 16.8818 2.73713C17.0516 2.78813 17.2148 2.85563 17.3666 2.93738C17.4761 2.99625 17.6078 2.99738 17.718 2.93963L18.63 2.46375C18.7286 2.55263 18.8228 2.64675 18.9113 2.745L18.4354 3.657C18.378 3.76688 18.3787 3.89888 18.4376 4.008C18.5194 4.16063 18.5869 4.32375 18.6379 4.49325C18.6735 4.61213 18.7661 4.70588 18.8846 4.74338L19.8686 5.05238C19.8731 5.121 19.875 5.18663 19.875 5.25C19.875 5.31338 19.8731 5.379 19.8686 5.44763L18.8846 5.75663Z" fill="#282828"/>
<path d="M8.25 19.875C10.5244 19.875 12.375 18.0244 12.375 15.75C12.375 13.4756 10.5244 11.625 8.25 11.625C5.97563 11.625 4.125 13.4756 4.125 15.75C4.125 18.0244 5.97563 19.875 8.25 19.875ZM8.25 12.375C10.1108 12.375 11.625 13.8893 11.625 15.75C11.625 17.6108 10.1108 19.125 8.25 19.125C6.38925 19.125 4.875 17.6108 4.875 15.75C4.875 13.8893 6.38925 12.375 8.25 12.375Z" fill="#282828"/>
<path d="M0.758301 9.50962L1.3343 9.99C3.05143 7.93087 5.5718 6.75 8.25005 6.75C8.44093 6.75 8.63143 6.76087 8.82193 6.77287L8.35993 7.23487L8.89018 7.76512L10.0152 6.64012C10.1618 6.4935 10.1618 6.2565 10.0152 6.10987L8.89018 4.98487L8.35993 5.51512L8.86955 6.02475C8.6633 6.01162 8.45668 6 8.25005 6C5.34905 6 2.6183 7.27912 0.758301 9.50962Z" fill="#282828"/>
<path d="M16.125 3.375C15.0911 3.375 14.25 4.21613 14.25 5.25C14.25 6.28387 15.0911 7.125 16.125 7.125C17.1589 7.125 18 6.28387 18 5.25C18 4.21613 17.1589 3.375 16.125 3.375ZM16.125 6.375C15.5048 6.375 15 5.87025 15 5.25C15 4.62975 15.5048 4.125 16.125 4.125C16.7452 4.125 17.25 4.62975 17.25 5.25C17.25 5.87025 16.7452 6.375 16.125 6.375Z" fill="#282828"/>
<path d="M22.9487 1.8825L21.0737 1.5075C20.8697 1.46625 20.6728 1.59863 20.6323 1.8015L20.2573 3.6765L20.9927 3.82388L21.1948 2.81438C21.5582 3.57038 21.7502 4.40363 21.7502 5.25C21.7502 6.543 21.3234 7.75875 20.5164 8.76563L21.1018 9.23475C22.0037 8.10938 22.5002 6.6945 22.5002 5.25C22.5002 4.26788 22.2733 3.29963 21.8417 2.42588L22.8017 2.61788L22.9487 1.8825Z" fill="#282828"/>
</svg>
