<svg width="24" height="24" viewBox="0 0 24 24" fill="none" xmlns="http://www.w3.org/2000/svg">
<path d="M0.78 16.3531C0.793125 16.5181 0.91275 16.655 1.07475 16.6899L2.38162 16.9719C2.42775 17.1946 2.48625 17.4144 2.55712 17.6289L1.56788 18.5251C1.44525 18.6361 1.41 18.8146 1.48125 18.9643C1.662 19.3445 1.86337 19.6959 2.07975 20.0086C2.1735 20.1444 2.34525 20.2029 2.50313 20.1523L3.77325 19.7431C3.92513 19.9134 4.08675 20.075 4.257 20.2269L3.84787 21.497C3.79725 21.6541 3.85538 21.8263 3.9915 21.9204C4.30425 22.1368 4.65562 22.3381 5.03587 22.5189C5.18587 22.5901 5.364 22.5545 5.475 22.4323L6.37125 21.443C6.58612 21.5135 6.80587 21.5724 7.02863 21.6185L7.31063 22.9254C7.3455 23.087 7.48238 23.2066 7.647 23.2201C7.8465 23.2359 8.04637 23.2501 8.25 23.2501C8.45363 23.2501 8.6535 23.2359 8.853 23.2201C9.018 23.207 9.15487 23.0874 9.18975 22.9254L9.47175 21.6185C9.6945 21.5724 9.91463 21.5139 10.1291 21.443L11.0254 22.4323C11.1367 22.5549 11.3153 22.5905 11.4645 22.5189C11.8448 22.3381 12.1961 22.1364 12.5089 21.9204C12.645 21.8263 12.7031 21.6541 12.6525 21.497L12.2434 20.2269C12.4136 20.075 12.5752 19.9134 12.7271 19.7435L13.9972 20.1526C14.1544 20.2036 14.3265 20.1451 14.4206 20.009C14.637 19.6963 14.8384 19.3449 15.0191 18.9646C15.0904 18.815 15.0551 18.6365 14.9325 18.5255L13.9432 17.6293C14.0138 17.4144 14.0726 17.1946 14.1188 16.9719L15.4256 16.6899C15.5872 16.655 15.7069 16.5181 15.7204 16.3535C15.7358 16.1536 15.75 15.9538 15.75 15.7501C15.75 15.5465 15.7357 15.3466 15.72 15.1471C15.7069 14.9821 15.5872 14.8453 15.4252 14.8104L14.1184 14.5284C14.0722 14.3056 14.0138 14.0855 13.9429 13.871L14.9321 12.9748C15.0548 12.8638 15.09 12.6853 15.0187 12.5356C14.838 12.1554 14.6362 11.804 14.4202 11.4913C14.3261 11.3551 14.154 11.2966 13.9969 11.3476L12.7267 11.7568C12.5749 11.5865 12.4132 11.4249 12.243 11.273L12.6521 10.0029C12.7027 9.84577 12.6446 9.67364 12.5085 9.57952C12.1957 9.36314 11.8444 9.16177 11.4641 8.98102C11.3141 8.90939 11.136 8.94502 11.025 9.06764L10.1287 10.0569C9.91387 9.98639 9.69413 9.92752 9.47137 9.88139L9.18937 8.57452C9.1545 8.41289 9.01762 8.29327 8.853 8.27977C8.45362 8.24752 8.046 8.24827 7.64663 8.27977C7.48163 8.29289 7.34475 8.41252 7.30988 8.57452L7.02787 9.88139C6.80512 9.92752 6.58538 9.98602 6.37088 10.0569L5.47463 9.06764C5.36363 8.94502 5.1855 8.90977 5.0355 8.98102C4.65525 9.16177 4.30387 9.36314 3.99112 9.57952C3.855 9.67364 3.79688 9.84577 3.8475 10.0029L4.25662 11.273C4.08637 11.4249 3.92475 11.5865 3.77287 11.7568L2.50313 11.3476C2.34563 11.2966 2.1735 11.3551 2.07975 11.4913C1.86337 11.804 1.662 12.1554 1.48125 12.5356C1.41 12.6853 1.44525 12.8638 1.56788 12.9748L2.55712 13.871C2.48662 14.0859 2.42775 14.3056 2.38162 14.5284L1.07475 14.8104C0.913125 14.8453 0.7935 14.9821 0.78 15.1468C0.76425 15.3466 0.75 15.5465 0.75 15.7501C0.75 15.9538 0.76425 16.1536 0.78 16.3531ZM1.50787 15.4843L2.78362 15.2086C2.93438 15.176 3.04988 15.0545 3.07463 14.9023C3.13088 14.5565 3.22163 14.2171 3.34425 13.8931C3.399 13.7491 3.35963 13.586 3.24525 13.4825L2.28188 12.6095C2.36588 12.4486 2.45362 12.2945 2.54437 12.1486L3.78038 12.5469C3.92663 12.5938 4.08787 12.5469 4.18575 12.4276C4.407 12.1569 4.65675 11.9075 4.9275 11.6859C5.04675 11.5884 5.09438 11.4275 5.04675 11.2805L4.6485 10.0445C4.79437 9.95339 4.94812 9.86564 5.10938 9.78202L5.98238 10.7458C6.08625 10.8601 6.24975 10.8995 6.39337 10.8448C6.71662 10.7221 7.056 10.6314 7.40213 10.5751C7.55438 10.5504 7.67587 10.4349 7.7085 10.2841L7.98375 9.00839C8.16038 8.99902 8.34 8.99864 8.51587 9.00839L8.7915 10.2841C8.82413 10.4349 8.94563 10.5504 9.09787 10.5751C9.44362 10.6314 9.783 10.7221 10.107 10.8448C10.2502 10.8995 10.4138 10.8605 10.5176 10.7458L11.3906 9.78239C11.5515 9.86639 11.7056 9.95414 11.8515 10.0449L11.4532 11.2809C11.406 11.4279 11.4532 11.5884 11.5725 11.6863C11.8433 11.9075 12.0926 12.1573 12.3143 12.428C12.4121 12.5476 12.573 12.5953 12.7196 12.5473L13.9556 12.149C14.0468 12.2949 14.1345 12.4486 14.2181 12.6095L13.2544 13.4825C13.14 13.586 13.1006 13.7491 13.1554 13.8935C13.278 14.2168 13.3687 14.5561 13.425 14.9023C13.4497 15.0545 13.5653 15.176 13.716 15.2086L14.9918 15.4839C14.9966 15.572 15 15.6609 15 15.7501C15 15.8394 14.997 15.9283 14.9921 16.016L13.7164 16.2916C13.5656 16.3243 13.4501 16.4458 13.4254 16.598C13.3691 16.9438 13.2784 17.2831 13.1558 17.6071C13.101 17.7511 13.1404 17.9143 13.2548 18.0178L14.2181 18.8908C14.1341 19.0516 14.0464 19.2058 13.9556 19.3516L12.7196 18.9534C12.5722 18.9054 12.4121 18.953 12.3143 19.0726C12.0934 19.3426 11.8436 19.5924 11.5725 19.8144C11.4532 19.9119 11.406 20.0728 11.4532 20.2194L11.8515 21.4554C11.7056 21.5465 11.5519 21.6343 11.391 21.7179L10.518 20.7541C10.4145 20.6398 10.2514 20.6011 10.107 20.6551C9.78375 20.7778 9.44438 20.8685 9.09825 20.9248C8.946 20.9495 8.8245 21.065 8.79187 21.2158L8.51663 22.4915C8.34 22.5009 8.16038 22.5013 7.9845 22.4915L7.70887 21.2158C7.67625 21.065 7.55475 20.9495 7.4025 20.9248C7.05675 20.8685 6.71737 20.7778 6.39337 20.6551C6.24975 20.6004 6.08625 20.6394 5.98275 20.7541L5.10975 21.7175C4.94887 21.6335 4.79475 21.5458 4.64888 21.455L5.04712 20.219C5.09437 20.072 5.04712 19.9115 4.92788 19.8136C4.65712 19.5924 4.40775 19.3426 4.18613 19.0719C4.08825 18.9523 3.927 18.905 3.78075 18.9526L2.54475 19.3509C2.45362 19.205 2.36588 19.0513 2.28225 18.89L3.246 18.017C3.36038 17.9135 3.39975 17.7504 3.345 17.606C3.22237 17.2828 3.13163 16.9434 3.07538 16.5973C3.05063 16.445 2.93513 16.3235 2.78438 16.2909L1.50787 16.0164C1.50337 15.9283 1.5 15.8394 1.5 15.7501C1.5 15.6609 1.503 15.572 1.50787 15.4843Z" fill="#282828"/>
<path d="M20.3321 6.08794C20.4731 6.04369 20.5751 5.92031 20.592 5.77331C20.6145 5.58394 20.625 5.41256 20.625 5.24981C20.625 5.08706 20.6145 4.91569 20.5924 4.72631C20.5755 4.57931 20.4735 4.45594 20.3325 4.41169L19.2926 4.08506C19.2615 3.99994 19.227 3.91631 19.1891 3.83456L19.6931 2.86894C19.7614 2.73806 19.7464 2.57906 19.6549 2.46281C19.4377 2.18831 19.188 1.93856 18.9127 1.72069C18.7965 1.62881 18.6375 1.61419 18.5066 1.68206L17.5402 2.18606C17.4585 2.14856 17.3749 2.11406 17.2897 2.08294L16.9631 1.04306C16.9189 0.902063 16.7955 0.800063 16.6485 0.783188C16.269 0.738937 15.9806 0.738937 15.6011 0.783188C15.4541 0.800063 15.3307 0.902063 15.2865 1.04306L14.9599 2.08294C14.8748 2.11406 14.7911 2.14856 14.7094 2.18644L13.7438 1.68244C13.6129 1.61456 13.4543 1.62919 13.3376 1.72069C13.0631 1.93781 12.8134 2.18756 12.5955 2.46281C12.5036 2.57906 12.4886 2.73769 12.5569 2.86894L13.0605 3.83456C13.023 3.91631 12.9885 3.99994 12.9574 4.08506L11.9175 4.41169C11.7765 4.45594 11.6745 4.57931 11.6576 4.72631C11.6355 4.91569 11.625 5.08706 11.625 5.24981C11.625 5.41256 11.6355 5.58394 11.6576 5.77331C11.6745 5.92031 11.7765 6.04369 11.9175 6.08794L12.9574 6.41456C12.9885 6.49969 13.023 6.58331 13.0609 6.66506L12.5569 7.63069C12.4886 7.76156 12.5036 7.92056 12.5951 8.03681C12.8123 8.31131 13.062 8.56106 13.3373 8.77894C13.4531 8.87081 13.6125 8.88544 13.7434 8.81756L14.709 8.31394C14.7907 8.35144 14.8744 8.38594 14.9595 8.41706L15.2861 9.45694C15.3304 9.59794 15.4538 9.69994 15.6008 9.71681C15.7909 9.73931 15.9623 9.74981 16.125 9.74981C16.2877 9.74981 16.4591 9.73931 16.6485 9.71719C16.7955 9.70031 16.9189 9.59831 16.9631 9.45731L17.2897 8.41744C17.3749 8.38631 17.4585 8.35181 17.5402 8.31394L18.5059 8.81794C18.6367 8.88619 18.7957 8.87156 18.912 8.77969C19.1865 8.56256 19.4362 8.31281 19.6541 8.03756C19.746 7.92131 19.761 7.76269 19.6927 7.63144L19.1887 6.66581C19.2266 6.58406 19.2611 6.50044 19.2922 6.41531L20.3321 6.08794ZM18.8846 5.75644C18.7661 5.79394 18.6739 5.88731 18.6379 6.00656C18.5869 6.17606 18.5194 6.33919 18.4376 6.49181C18.3787 6.60131 18.3776 6.73294 18.4354 6.84281L18.9113 7.75481C18.8224 7.85344 18.7283 7.94756 18.63 8.03606L17.718 7.56019C17.6078 7.50244 17.4761 7.50394 17.367 7.56244C17.2144 7.64419 17.0513 7.71169 16.8818 7.76269C16.7629 7.79831 16.6691 7.89094 16.6316 8.00944L16.3226 8.99344C16.1858 9.00169 16.0646 9.00169 15.9274 8.99344L15.6184 8.00944C15.5809 7.89094 15.4875 7.79869 15.3682 7.76269C15.1984 7.71169 15.0352 7.64419 14.8834 7.56244C14.7739 7.50356 14.6422 7.50244 14.532 7.56019L13.62 8.03606C13.5214 7.94719 13.4272 7.85306 13.3387 7.75481L13.8146 6.84281C13.872 6.73294 13.8713 6.60094 13.8124 6.49181C13.7306 6.33919 13.6631 6.17606 13.6121 6.00656C13.5765 5.88769 13.4839 5.79394 13.3654 5.75644L12.3814 5.44744C12.3769 5.37881 12.375 5.31319 12.375 5.24981C12.375 5.18644 12.3769 5.12081 12.3814 5.05219L13.3654 4.74319C13.4839 4.70569 13.5761 4.61231 13.6121 4.49306C13.6631 4.32319 13.7306 4.16006 13.8124 4.00819C13.8713 3.89869 13.8724 3.76706 13.8146 3.65681L13.3387 2.74481C13.4276 2.64619 13.5217 2.55206 13.62 2.46356L14.532 2.93944C14.6419 2.99681 14.7739 2.99569 14.883 2.93719C15.0356 2.85544 15.1987 2.78794 15.3682 2.73694C15.4871 2.70131 15.5809 2.60869 15.6184 2.49019L15.9274 1.50619C16.0642 1.49794 16.1854 1.49794 16.3226 1.50619L16.6316 2.49019C16.6691 2.60869 16.7625 2.70094 16.8818 2.73694C17.0516 2.78794 17.2148 2.85544 17.3666 2.93719C17.4761 2.99606 17.6078 2.99719 17.718 2.93944L18.63 2.46356C18.7286 2.55244 18.8228 2.64656 18.9113 2.74481L18.4354 3.65681C18.378 3.76669 18.3787 3.89869 18.4376 4.00781C18.5194 4.16044 18.5869 4.32356 18.6379 4.49306C18.6735 4.61194 18.7661 4.70569 18.8846 4.74319L19.8686 5.05219C19.8731 5.12081 19.875 5.18644 19.875 5.24981C19.875 5.31319 19.8731 5.37881 19.8686 5.44744L18.8846 5.75644Z" fill="#282828"/>
<path d="M8.25 19.875C10.5244 19.875 12.375 18.0244 12.375 15.75C12.375 13.4756 10.5244 11.625 8.25 11.625C5.97563 11.625 4.125 13.4756 4.125 15.75C4.125 18.0244 5.97563 19.875 8.25 19.875ZM8.25 12.375C10.1108 12.375 11.625 13.8893 11.625 15.75C11.625 17.6108 10.1108 19.125 8.25 19.125C6.38925 19.125 4.875 17.6108 4.875 15.75C4.875 13.8893 6.38925 12.375 8.25 12.375Z" fill="#282828"/>
<path d="M0.757812 9.50912L1.33381 9.9895C3.05094 7.93037 5.57131 6.7495 8.24956 6.7495C8.44044 6.7495 8.63094 6.76038 8.82144 6.77238L8.35944 7.23437L8.88969 7.76463L10.0147 6.63963C10.1613 6.493 10.1613 6.256 10.0147 6.10937L8.88969 4.98438L8.35944 5.51462L8.86906 6.02425C8.66281 6.01112 8.45619 5.9995 8.24956 5.9995C5.34856 5.9995 2.61781 7.27862 0.757812 9.50912Z" fill="#282828"/>
<path d="M16.125 3.375C15.0911 3.375 14.25 4.21613 14.25 5.25C14.25 6.28387 15.0911 7.125 16.125 7.125C17.1589 7.125 18 6.28387 18 5.25C18 4.21613 17.1589 3.375 16.125 3.375ZM16.125 6.375C15.5048 6.375 15 5.87025 15 5.25C15 4.62975 15.5048 4.125 16.125 4.125C16.7452 4.125 17.25 4.62975 17.25 5.25C17.25 5.87025 16.7452 6.375 16.125 6.375Z" fill="#282828"/>
<path d="M22.9492 1.88253L21.0742 1.50753C20.8702 1.46628 20.6733 1.59866 20.6328 1.80153L20.2578 3.67653L20.9932 3.82391L21.1953 2.81441C21.5587 3.57041 21.7507 4.40366 21.7507 5.25003C21.7507 6.54303 21.3239 7.75878 20.5169 8.76566L21.1023 9.23478C22.0042 8.10941 22.5007 6.69453 22.5007 5.25003C22.5007 4.26791 22.2738 3.29966 21.8422 2.42591L22.8022 2.61791L22.9492 1.88253Z" fill="#282828"/>
</svg>
