<svg width="24" height="24" viewBox="0 0 24 24" fill="none" xmlns="http://www.w3.org/2000/svg">
<path d="M18.7685 8.24002C18.6884 8.08003 18.5684 8.00002 18.4085 8.00002H13.6885L18.3685 0.6C18.4485 0.48 18.4485 0.320016 18.3685 0.200016C18.2885 0.0800156 18.1685 0 18.0085 0H11.6085C11.4485 0 11.3285 0.0800156 11.2485 0.200016L5.24849 12.2C5.16847 12.32 5.16847 12.48 5.24849 12.6C5.3285 12.72 5.48849 12.8 5.60849 12.8H9.72847L5.24849 23.48C5.16847 23.64 5.24849 23.84 5.40847 23.96C5.44846 24 5.52847 24 5.60849 24C5.72849 24 5.84849 23.96 5.9285 23.88L18.7285 8.67999C18.8085 8.55998 18.8485 8.4 18.7685 8.24002ZM7.00846 21.32L10.6885 12.52C10.7285 12.4 10.7285 12.28 10.6485 12.16C10.5685 12.08 10.4485 12 10.3285 12H6.24847L11.8485 0.800016H17.2885L12.5685 8.19998C12.4885 8.31998 12.4885 8.47997 12.5685 8.59997C12.6485 8.71997 12.7685 8.79998 12.9285 8.79998H17.5685L7.00846 21.32Z" fill="#282828"/>
</svg>
