<svg width="44" height="44" viewBox="0 0 44 44" fill="none" xmlns="http://www.w3.org/2000/svg">
<g clip-path="url(#clip0_146_3317)">
<path d="M33 34.8968C33 34.1034 32.6514 33.3554 32.043 32.8453C31.4353 32.3359 30.6391 32.1214 29.8568 32.2596C29.8196 32.2657 29.7832 32.2754 29.7474 32.2877L22.3637 34.8927L19.9897 33.3623C19.646 33.1251 19.2424 33 18.8237 33H14.4375C14.4375 32.6198 14.1295 32.3125 13.75 32.3125H11C10.6205 32.3125 10.3125 32.6198 10.3125 33V41.9375C10.3125 42.3177 10.6205 42.625 11 42.625H13.75C14.1295 42.625 14.4375 42.3177 14.4375 41.9375V40.7742H16.3377L20.9798 43.0952C21.2699 43.2403 21.5861 43.3118 21.901 43.3118C22.3018 43.3118 22.7019 43.1956 23.0457 42.966L31.8079 37.1243C32.5545 36.6272 33 35.794 33 34.8968ZM13.0625 41.25H11.6875V33.6875H13.0625V41.25ZM31.0447 35.9803L22.2819 41.822C22.077 41.9581 21.8123 41.9746 21.5937 41.8646L16.8073 39.4714C16.7118 39.424 16.6066 39.3992 16.5 39.3992H14.4375V34.375H18.8237C18.9633 34.375 19.0974 34.4169 19.2287 34.5063L22.7239 36.7606C22.9577 36.9765 23.0017 37.3306 22.8229 37.5987C22.6304 37.8888 22.2441 37.9761 21.9464 37.796L19.6034 36.3901L18.8959 37.5691L21.2396 38.9751C21.5662 39.171 21.9258 39.2645 22.2812 39.2645C22.9371 39.2645 23.5778 38.9455 23.9676 38.3618C24.4956 37.5698 24.3925 36.5386 23.7566 35.86L30.1462 33.6057C30.5092 33.5562 30.8763 33.6614 31.1603 33.8986C31.4552 34.1467 31.625 34.5104 31.625 34.8968C31.625 35.3334 31.4084 35.7383 31.0447 35.9803Z" fill="#282828"/>
<path d="M14.4375 24.75C14.4375 28.9197 17.8303 32.3125 22 32.3125C26.1697 32.3125 29.5625 28.9197 29.5625 24.75C29.5625 20.5803 26.1697 17.1875 22 17.1875C17.8303 17.1875 14.4375 20.5803 14.4375 24.75ZM22 18.5625C25.4114 18.5625 28.1875 21.3379 28.1875 24.75C28.1875 28.1621 25.4114 30.9375 22 30.9375C18.5886 30.9375 15.8125 28.1621 15.8125 24.75C15.8125 21.3379 18.5886 18.5625 22 18.5625Z" fill="#282828"/>
<path d="M22.6875 27.5H21.3125C20.9337 27.5 20.625 27.192 20.625 26.8125H19.25C19.25 27.9496 20.1754 28.875 21.3125 28.875V29.5625H22.6875V28.875C23.8246 28.875 24.75 27.9496 24.75 26.8125V26.125C24.75 24.9879 23.8246 24.0625 22.6875 24.0625H21.3125C20.9337 24.0625 20.625 23.7545 20.625 23.375V22.6875C20.625 22.308 20.9337 22 21.3125 22H22.6875C23.0663 22 23.375 22.308 23.375 22.6875H24.75C24.75 21.5504 23.8246 20.625 22.6875 20.625V19.9375H21.3125V20.625C20.1754 20.625 19.25 21.5504 19.25 22.6875V23.375C19.25 24.5121 20.1754 25.4375 21.3125 25.4375H22.6875C23.0663 25.4375 23.375 25.7455 23.375 26.125V26.8125C23.375 27.192 23.0663 27.5 22.6875 27.5Z" fill="#282828"/>
<path d="M24.0625 2.75C24.0625 1.61287 23.1371 0.6875 22 0.6875C20.8629 0.6875 19.9375 1.61287 19.9375 2.75C19.9375 3.88713 20.8629 4.8125 22 4.8125C23.1371 4.8125 24.0625 3.88713 24.0625 2.75ZM21.3125 2.75C21.3125 2.3705 21.6212 2.0625 22 2.0625C22.3788 2.0625 22.6875 2.3705 22.6875 2.75C22.6875 3.1295 22.3788 3.4375 22 3.4375C21.6212 3.4375 21.3125 3.1295 21.3125 2.75Z" fill="#282828"/>
<path d="M19.3395 10.6515C19.4612 10.8674 19.6901 11 19.9376 11H21.3126V15.8125H22.6876V11H24.0626C24.3101 11 24.5391 10.8674 24.6608 10.6515C24.7831 10.4356 24.7797 10.1709 24.6518 9.95848L22.5893 6.52098C22.3411 6.1071 21.6585 6.1071 21.4103 6.52098L19.3478 9.95848C19.2206 10.1709 19.2171 10.4356 19.3395 10.6515ZM22.0001 8.21085L22.8485 9.62504H21.1518L22.0001 8.21085Z" fill="#282828"/>
<path d="M38.8824 7.86708C38.0781 7.0627 36.7704 7.0627 35.9661 7.86708C35.1617 8.67145 35.1617 9.97976 35.9661 10.7841C36.3683 11.1863 36.8963 11.3871 37.4243 11.3871C37.9523 11.3871 38.4803 11.1863 38.8824 10.7841C39.6868 9.98045 39.6868 8.67145 38.8824 7.86708ZM37.9103 9.81201C37.6422 10.0795 37.2063 10.0795 36.9382 9.81201C36.6701 9.5432 36.6701 9.10801 36.9382 8.8392C37.0723 8.70583 37.2483 8.63845 37.4243 8.63845C37.6003 8.63845 37.7763 8.70583 37.9103 8.8392C38.1784 9.10733 38.1784 9.54389 37.9103 9.81201Z" fill="#282828"/>
<path d="M28.6738 19.0486L32.0769 15.6455L33.0497 16.6183C33.1803 16.7489 33.3557 16.8197 33.5358 16.8197C33.597 16.8197 33.6588 16.8115 33.7193 16.795C33.9579 16.7283 34.1428 16.5392 34.2027 16.2986L35.1748 12.4094C35.2332 12.175 35.1645 11.9275 34.994 11.757C34.8235 11.5865 34.5767 11.517 34.3408 11.5762L30.4517 12.5483C30.2117 12.6081 30.022 12.7923 29.956 13.0316C29.89 13.2702 29.9573 13.5259 30.1327 13.7012L31.1048 14.6733L27.7017 18.0765L28.6738 19.0486ZM33.5626 13.1877L33.1625 14.7875L31.9628 13.5878L33.5626 13.1877Z" fill="#282828"/>
<path d="M4.43043 7.86708C3.62605 8.67145 3.62605 9.97976 4.43043 10.7841C4.83262 11.1863 5.36062 11.3871 5.88862 11.3871C6.41662 11.3871 6.94462 11.1863 7.3468 10.7841C8.15118 9.97976 8.15118 8.67145 7.3468 7.86708C6.54243 7.0627 5.2348 7.0627 4.43043 7.86708ZM6.37468 9.81201C6.10724 10.0795 5.67068 10.0795 5.40255 9.81201C5.13443 9.5432 5.13443 9.10733 5.40255 8.8392C5.67068 8.57176 6.10655 8.57176 6.37468 8.8392C6.6428 9.10801 6.6428 9.54389 6.37468 9.81201Z" fill="#282828"/>
<path d="M13.3565 13.0316C13.2905 12.7923 13.1008 12.6081 12.8609 12.5482L8.97167 11.5761C8.73861 11.5177 8.48973 11.5864 8.31854 11.7569C8.14736 11.9274 8.07929 12.1749 8.13773 12.4094L9.10986 16.2986C9.16967 16.5392 9.35461 16.7282 9.59317 16.7949C9.65367 16.8114 9.71554 16.8197 9.77673 16.8197C9.95686 16.8197 10.1322 16.7489 10.2628 16.6182L11.2356 15.6454L14.6387 19.0486L15.6109 18.0764L12.2077 14.6733L13.1799 13.7012C13.3552 13.5259 13.4225 13.2701 13.3565 13.0316ZM10.15 14.7874L9.74992 13.1876L11.349 13.5877L10.15 14.7874Z" fill="#282828"/>
<path d="M41.25 23.375C40.1129 23.375 39.1875 24.3004 39.1875 25.4375C39.1875 26.5746 40.1129 27.5 41.25 27.5C42.3871 27.5 43.3125 26.5746 43.3125 25.4375C43.3125 24.3004 42.3871 23.375 41.25 23.375ZM41.25 26.125C40.8712 26.125 40.5625 25.817 40.5625 25.4375C40.5625 25.058 40.8712 24.75 41.25 24.75C41.6288 24.75 41.9375 25.058 41.9375 25.4375C41.9375 25.817 41.6288 26.125 41.25 26.125Z" fill="#282828"/>
<path d="M33.3486 28.0982C33.4537 28.158 33.5706 28.1875 33.6875 28.1875C33.8099 28.1875 33.9322 28.1545 34.0416 28.0892L37.4791 26.0267C37.686 25.903 37.8125 25.6795 37.8125 25.4375C37.8125 25.1955 37.686 24.9721 37.4791 24.8484L34.0416 22.7859C33.8291 22.658 33.5644 22.6552 33.3492 22.7769C33.1341 22.8986 33 23.1275 33 23.375V24.75H30.9375V26.125H33V27.5C33 27.7475 33.1334 27.9758 33.3486 28.0982ZM34.375 24.5898L35.7885 25.4375L34.375 26.2852V24.5898Z" fill="#282828"/>
<path d="M4.8125 25.4375C4.8125 24.3004 3.88713 23.375 2.75 23.375C1.61287 23.375 0.6875 24.3004 0.6875 25.4375C0.6875 26.5746 1.61287 27.5 2.75 27.5C3.88713 27.5 4.8125 26.5746 4.8125 25.4375ZM2.0625 25.4375C2.0625 25.058 2.37119 24.75 2.75 24.75C3.12881 24.75 3.4375 25.058 3.4375 25.4375C3.4375 25.817 3.12881 26.125 2.75 26.125C2.37119 26.125 2.0625 25.817 2.0625 25.4375Z" fill="#282828"/>
<path d="M6.1875 25.4376C6.1875 25.6796 6.314 25.903 6.52094 26.0267L9.95844 28.0892C10.0677 28.1546 10.1901 28.1876 10.3125 28.1876C10.4294 28.1876 10.5462 28.158 10.6514 28.0982C10.8666 27.9758 11 27.7476 11 27.5001V26.1251H13.0625V24.7501H11V23.3751C11 23.1276 10.8666 22.8993 10.6514 22.7769C10.4363 22.6546 10.1716 22.658 9.95913 22.7859L6.52163 24.8484C6.314 24.9721 6.1875 25.1956 6.1875 25.4376ZM9.625 24.5899V26.2859L8.2115 25.4376L9.625 24.5899Z" fill="#282828"/>
</g>
<defs>
<clipPath id="clip0_146_3317">
<rect width="44" height="44" fill="white"/>
</clipPath>
</defs>
</svg>
