<svg width="16" height="16" viewBox="0 0 16 16" fill="none" xmlns="http://www.w3.org/2000/svg">
<g clip-path="url(#clip0_1_6606)">
<path d="M9.5 3.25H8.75V2.5C8.75 2.4337 8.72366 2.37011 8.67678 2.32322C8.62989 2.27634 8.5663 2.25 8.5 2.25H7.5C7.4337 2.25 7.37011 2.27634 7.32322 2.32322C7.27634 2.37011 7.25 2.4337 7.25 2.5V3.25H6.5C6.4337 3.25 6.37011 3.27634 6.32322 3.32322C6.27634 3.37011 6.25 3.4337 6.25 3.5V4.5C6.25 4.5663 6.27634 4.62989 6.32322 4.67678C6.37011 4.72366 6.4337 4.75 6.5 4.75H7.25V5.5C7.25 5.5663 7.27634 5.62989 7.32322 5.67678C7.37011 5.72366 7.4337 5.75 7.5 5.75H8.5C8.5663 5.75 8.62989 5.72366 8.67678 5.67678C8.72366 5.62989 8.75 5.5663 8.75 5.5V4.75H9.5C9.5663 4.75 9.62989 4.72366 9.67678 4.67678C9.72366 4.62989 9.75 4.5663 9.75 4.5V3.5C9.75 3.4337 9.72366 3.37011 9.67678 3.32322C9.62989 3.27634 9.5663 3.25 9.5 3.25ZM9.25 4.25H8.5C8.4337 4.25 8.37011 4.27634 8.32322 4.32322C8.27634 4.37011 8.25 4.4337 8.25 4.5V5.25H7.75V4.5C7.75 4.4337 7.72366 4.37011 7.67678 4.32322C7.62989 4.27634 7.5663 4.25 7.5 4.25H6.75V3.75H7.5C7.5663 3.75 7.62989 3.72366 7.67678 3.67678C7.72366 3.62989 7.75 3.5663 7.75 3.5V2.75H8.25V3.5C8.25 3.5663 8.27634 3.62989 8.32322 3.67678C8.37011 3.72366 8.4337 3.75 8.5 3.75H9.25V4.25Z" fill="#282828"/>
<path d="M14.9325 4.59001C14.9376 4.54602 14.9401 4.50178 14.94 4.45751C14.9388 4.22835 14.8593 4.00649 14.7147 3.8287C14.5701 3.65092 14.3691 3.52789 14.145 3.48001C13.8915 3.43175 13.6292 3.48159 13.411 3.61944C13.1929 3.75728 13.0352 3.97284 12.97 4.22251L11.87 7.38751C11.8537 7.39398 11.8378 7.40149 11.8225 7.41001L9.6125 8.70501C9.27432 8.90365 8.99382 9.18709 8.79872 9.52732C8.60361 9.86755 8.50065 10.2528 8.5 10.645V13C8.4337 13 8.37011 13.0263 8.32322 13.0732C8.27634 13.1201 8.25 13.1837 8.25 13.25V15.25C8.25 15.3163 8.27634 15.3799 8.32322 15.4268C8.37011 15.4737 8.4337 15.5 8.5 15.5H12C12.0663 15.5 12.1299 15.4737 12.1768 15.4268C12.2237 15.3799 12.25 15.3163 12.25 15.25V13.25C12.25 13.1837 12.2237 13.1201 12.1768 13.0732C12.1299 13.0263 12.0663 13 12 13V12.45C12.0005 12.3444 12.0229 12.2401 12.066 12.1437C12.109 12.0472 12.1717 11.9609 12.25 11.89L13.94 10.3875C14.1249 10.2258 14.2572 10.0125 14.32 9.77501L15.405 5.71751C15.4282 5.63278 15.4399 5.54534 15.44 5.45751C15.439 5.28108 15.3916 5.10802 15.3025 4.95574C15.2134 4.80346 15.0858 4.67732 14.9325 4.59001ZM13.4475 4.37001C13.4782 4.24072 13.5565 4.12775 13.6668 4.05361C13.777 3.97948 13.9112 3.94962 14.0425 3.97001C14.1546 3.99348 14.2552 4.05469 14.3275 4.14342C14.3999 4.23215 14.4396 4.34302 14.44 4.45751V4.46251C14.2167 4.46665 14.0008 4.54362 13.8253 4.68171C13.6498 4.8198 13.5241 5.01145 13.4675 5.22751L12.77 7.38001C12.6644 7.32992 12.5512 7.29781 12.435 7.28501L13.4475 4.37001ZM11.75 15H8.75V13.5H11.75V15ZM14.9225 5.58751L13.835 9.64751C13.7974 9.78859 13.7191 9.91551 13.61 10.0125L11.9175 11.515C11.7865 11.6331 11.6817 11.7773 11.6098 11.9383C11.5379 12.0994 11.5005 12.2737 11.5 12.45V13H9V10.645C9.00124 10.34 9.08159 10.0405 9.23321 9.77584C9.38482 9.51117 9.60251 9.29037 9.865 9.13501L12.0725 7.84251C12.1294 7.80934 12.1923 7.78776 12.2576 7.77898C12.3229 7.77021 12.3893 7.77442 12.4529 7.79138C12.5166 7.80834 12.5763 7.83771 12.6285 7.8778C12.6808 7.91789 12.7246 7.96792 12.7575 8.02501C12.8224 8.14052 12.8403 8.27662 12.8075 8.40501C12.7901 8.4684 12.7604 8.52775 12.7201 8.57965C12.6798 8.63156 12.6296 8.67501 12.5725 8.70751L11.14 9.53501C11.0856 9.5696 11.0466 9.62388 11.0313 9.68651C11.016 9.74914 11.0254 9.81527 11.0577 9.8711C11.0899 9.92692 11.1425 9.96812 11.2045 9.98608C11.2664 10.0041 11.3329 9.99739 11.39 9.96751L12.8225 9.14001C12.937 9.07504 13.0373 8.98783 13.1176 8.8835C13.1979 8.77916 13.2565 8.65983 13.29 8.53251C13.3581 8.27671 13.3221 8.00438 13.19 7.77501L13.175 7.75251L13.9475 5.37001C13.9782 5.24072 14.0565 5.12775 14.1668 5.05361C14.277 4.97948 14.4112 4.94962 14.5425 4.97001C14.6546 4.99347 14.7552 5.05469 14.8275 5.14342C14.8999 5.23215 14.9396 5.34302 14.94 5.45751C14.9408 5.50148 14.9349 5.54532 14.9225 5.58751Z" fill="#282828"/>
<path d="M7.49957 13V10.645C7.49892 10.2528 7.39596 9.86755 7.20085 9.52732C7.00575 9.18709 6.72525 8.90365 6.38707 8.705L4.17707 7.4075C4.16207 7.4 4.14457 7.395 4.12957 7.3875L3.03707 4.24C2.97357 3.9867 2.81595 3.76711 2.59627 3.62592C2.37659 3.48473 2.11136 3.43255 1.85457 3.48C1.63047 3.52788 1.42946 3.65091 1.28487 3.8287C1.14027 4.00648 1.06078 4.22834 1.05957 4.4575C1.05951 4.50178 1.06201 4.54602 1.06707 4.59C0.913762 4.67731 0.786146 4.80345 0.697058 4.95574C0.60797 5.10802 0.560551 5.28108 0.55957 5.4575C0.560056 5.54515 0.570966 5.63243 0.59207 5.7175L1.67957 9.7725C1.74172 10.011 1.87411 10.2252 2.05957 10.3875L3.74707 11.89C3.82615 11.9604 3.88951 12.0466 3.93302 12.1431C3.97653 12.2396 3.99921 12.3442 3.99957 12.45V13C3.93327 13 3.86968 13.0263 3.82279 13.0732C3.77591 13.1201 3.74957 13.1837 3.74957 13.25V15.25C3.74957 15.3163 3.77591 15.3799 3.82279 15.4268C3.86968 15.4737 3.93327 15.5 3.99957 15.5H7.49957C7.56587 15.5 7.62946 15.4737 7.67635 15.4268C7.72323 15.3799 7.74957 15.3163 7.74957 15.25V13.25C7.74957 13.1837 7.72323 13.1201 7.67635 13.0732C7.62946 13.0263 7.56587 13 7.49957 13ZM1.55957 4.4575C1.55988 4.34336 1.59923 4.23276 1.67109 4.14408C1.74294 4.0554 1.84298 3.99397 1.95457 3.97C2.08949 3.95042 2.22682 3.98257 2.33902 4.06C2.45123 4.13743 2.53001 4.25442 2.55957 4.3875L3.56457 7.285C3.44839 7.2978 3.33517 7.32991 3.22957 7.38L2.53707 5.24C2.48071 5.02181 2.35483 4.82791 2.17846 4.68763C2.0021 4.54735 1.78485 4.46832 1.55957 4.4625V4.4575ZM4.07957 11.515L2.38957 10.0125C2.27983 9.91498 2.20152 9.78708 2.16457 9.645L1.07457 5.5875C1.06422 5.54495 1.05918 5.50129 1.05957 5.4575C1.05988 5.34336 1.09923 5.23276 1.17109 5.14408C1.24294 5.0554 1.34298 4.99397 1.45457 4.97C1.58854 4.9499 1.72515 4.98126 1.83692 5.05779C1.9487 5.13432 2.02736 5.25033 2.05707 5.3825L2.82457 7.7525L2.80957 7.775C2.67747 8.00437 2.64152 8.27671 2.70957 8.5325C2.74304 8.65982 2.80165 8.77916 2.88193 8.88349C2.96222 8.98782 3.06257 9.07504 3.17707 9.14L4.60957 9.9675C4.66671 9.99739 4.73318 10.004 4.79511 9.98608C4.85703 9.96811 4.90962 9.92692 4.94189 9.87109C4.97416 9.81527 4.98361 9.74913 4.96827 9.6865C4.95293 9.62387 4.91399 9.56959 4.85957 9.535L3.42707 8.7075C3.36994 8.675 3.31978 8.63155 3.27945 8.57965C3.23913 8.52774 3.20944 8.46839 3.19207 8.405C3.15923 8.27662 3.17713 8.14052 3.24207 8.025C3.27474 7.96804 3.3183 7.91807 3.37028 7.87794C3.42226 7.83782 3.48163 7.80832 3.545 7.79114C3.60838 7.77397 3.67452 7.76944 3.73965 7.77782C3.80477 7.7862 3.86761 7.80733 3.92457 7.84L6.13457 9.135C6.39706 9.29036 6.61475 9.51117 6.76636 9.77584C6.91798 10.0405 6.99833 10.34 6.99957 10.645V13H4.49957V12.45C4.49914 12.2734 4.46152 12.0989 4.38916 11.9378C4.31679 11.7767 4.21131 11.6326 4.07957 11.515ZM7.24957 15H4.24957V13.5H7.24957V15Z" fill="#282828"/>
<path d="M11.5364 1.28301C11.3043 1.05052 11.0286 0.866074 10.7252 0.740239C10.4217 0.614403 10.0965 0.549644 9.76795 0.549667C9.43944 0.549691 9.11416 0.614496 8.81073 0.740374C8.5073 0.866252 8.23167 1.05073 7.99962 1.28326C7.76759 1.05073 7.49198 0.866245 7.18856 0.740373C6.88513 0.614501 6.55987 0.54971 6.23137 0.54971C5.90288 0.54971 5.57761 0.614501 5.27419 0.740373C4.97077 0.866245 4.69515 1.05073 4.46312 1.28326C3.99521 1.75218 3.73242 2.38756 3.73242 3.05001C3.73242 3.71245 3.99521 4.34784 4.46312 4.81676L7.82312 8.17676C7.87 8.22362 7.93358 8.24995 7.99987 8.24995C8.06616 8.24995 8.12974 8.22362 8.17662 8.17676L11.5366 4.81676C12.0045 4.34776 12.2673 3.71231 12.2672 3.04983C12.2672 2.38735 12.0043 1.75194 11.5364 1.28301ZM7.99962 7.64651L4.81637 4.46326C4.53691 4.18341 4.34668 3.82699 4.26975 3.43904C4.19282 3.0511 4.23263 2.64906 4.38416 2.28375C4.53569 1.91843 4.79212 1.60624 5.12105 1.38664C5.44998 1.16704 5.83663 1.04989 6.23212 1.05001C6.49484 1.0491 6.75511 1.10052 6.99775 1.20126C7.24039 1.302 7.46055 1.45004 7.64537 1.63676L7.82287 1.81426C7.86975 1.86112 7.93333 1.88745 7.99962 1.88745C8.06591 1.88745 8.12949 1.86112 8.17637 1.81426L8.35437 1.63626C8.53997 1.45032 8.76042 1.30281 9.00309 1.20216C9.24577 1.10151 9.50591 1.04971 9.76862 1.04971C10.0313 1.04971 10.2915 1.10151 10.5342 1.20216C10.7768 1.30281 10.9973 1.45032 11.1829 1.63626C11.5574 2.01125 11.7677 2.51955 11.7677 3.04951C11.7677 3.57947 11.5574 4.08776 11.1829 4.46276L7.99962 7.64651Z" fill="#282828"/>
</g>
<defs>
<clipPath id="clip0_1_6606">
<rect width="16" height="16" fill="white"/>
</clipPath>
</defs>
</svg>
