<svg width="24" height="24" viewBox="0 0 24 24" fill="none" xmlns="http://www.w3.org/2000/svg">
<g clip-path="url(#clip0_1591_14695)">
<path d="M14.25 4.875H13.125V3.75C13.125 3.65054 13.0855 3.55516 13.0152 3.48484C12.9448 3.41451 12.8495 3.375 12.75 3.375H11.25C11.1505 3.375 11.0552 3.41451 10.9848 3.48484C10.9145 3.55516 10.875 3.65054 10.875 3.75V4.875H9.75C9.65054 4.875 9.55516 4.91451 9.48483 4.98484C9.41451 5.05516 9.375 5.15054 9.375 5.25V6.75C9.375 6.84946 9.41451 6.94484 9.48483 7.01517C9.55516 7.08549 9.65054 7.125 9.75 7.125H10.875V8.25C10.875 8.34946 10.9145 8.44484 10.9848 8.51517C11.0552 8.58549 11.1505 8.625 11.25 8.625H12.75C12.8495 8.625 12.9448 8.58549 13.0152 8.51517C13.0855 8.44484 13.125 8.34946 13.125 8.25V7.125H14.25C14.3495 7.125 14.4448 7.08549 14.5152 7.01517C14.5855 6.94484 14.625 6.84946 14.625 6.75V5.25C14.625 5.15054 14.5855 5.05516 14.5152 4.98484C14.4448 4.91451 14.3495 4.875 14.25 4.875ZM13.875 6.375H12.75C12.6505 6.375 12.5552 6.41451 12.4848 6.48483C12.4145 6.55516 12.375 6.65054 12.375 6.75V7.875H11.625V6.75C11.625 6.65054 11.5855 6.55516 11.5152 6.48483C11.4448 6.41451 11.3495 6.375 11.25 6.375H10.125V5.625H11.25C11.3495 5.625 11.4448 5.58549 11.5152 5.51516C11.5855 5.44484 11.625 5.34946 11.625 5.25V4.125H12.375V5.25C12.375 5.34946 12.4145 5.44484 12.4848 5.51516C12.5552 5.58549 12.6505 5.625 12.75 5.625H13.875V6.375Z" fill="#282828"/>
<path d="M22.3988 6.88529C22.4063 6.81931 22.4101 6.75295 22.41 6.68654C22.4082 6.34281 22.2889 6.01001 22.0721 5.74334C21.8552 5.47666 21.5537 5.29211 21.2175 5.22029C20.8373 5.14791 20.4437 5.22267 20.1165 5.42944C19.7893 5.63621 19.5529 5.95955 19.455 6.33404L17.805 11.0815C17.7805 11.0912 17.7568 11.1025 17.7338 11.1153L14.4188 13.0578C13.9115 13.3558 13.4907 13.7809 13.1981 14.2913C12.9054 14.8016 12.751 15.3795 12.75 15.9678V19.5003C12.6505 19.5003 12.5552 19.5398 12.4848 19.6101C12.4145 19.6805 12.375 19.7758 12.375 19.8753V22.8753C12.375 22.9747 12.4145 23.0701 12.4848 23.1405C12.5552 23.2108 12.6505 23.2503 12.75 23.2503H18C18.0995 23.2503 18.1948 23.2108 18.2652 23.1405C18.3355 23.0701 18.375 22.9747 18.375 22.8753V19.8753C18.375 19.7758 18.3355 19.6805 18.2652 19.6101C18.1948 19.5398 18.0995 19.5003 18 19.5003V18.6753C18.0007 18.5169 18.0344 18.3604 18.099 18.2158C18.1635 18.0711 18.2576 17.9416 18.375 17.8353L20.91 15.5815C21.1873 15.3389 21.3858 15.019 21.48 14.6628L23.1075 8.57654C23.1422 8.44945 23.1599 8.3183 23.16 8.18654C23.1585 7.9219 23.0874 7.66232 22.9538 7.43389C22.8201 7.20547 22.6287 7.01626 22.3988 6.88529ZM20.1713 6.55529C20.2173 6.36136 20.3347 6.1919 20.5001 6.0807C20.6655 5.9695 20.8668 5.92472 21.0638 5.95529C21.2318 5.9905 21.3827 6.08232 21.4913 6.21541C21.5998 6.34851 21.6594 6.51481 21.66 6.68654V6.69404C21.325 6.70026 21.0013 6.81572 20.7379 7.02285C20.4746 7.22999 20.2862 7.51746 20.2013 7.84154L19.155 11.0703C18.9966 10.9952 18.8268 10.947 18.6525 10.9278L20.1713 6.55529ZM17.625 22.5003H13.125V20.2503H17.625V22.5003ZM22.3837 8.38154L20.7525 14.4715C20.6961 14.6832 20.5787 14.8735 20.415 15.019L17.8762 17.2728C17.6798 17.4499 17.5226 17.6662 17.4147 17.9078C17.3069 18.1493 17.2508 18.4108 17.25 18.6753V19.5003H13.5V15.9678C13.5019 15.5103 13.6224 15.061 13.8498 14.664C14.0772 14.267 14.4038 13.9358 14.7975 13.7028L18.1088 11.764C18.1941 11.7143 18.2885 11.6819 18.3864 11.6688C18.4844 11.6556 18.5839 11.6619 18.6794 11.6874C18.7749 11.7128 18.8644 11.7568 18.9428 11.817C19.0212 11.8771 19.0869 11.9522 19.1363 12.0378C19.2337 12.2111 19.2605 12.4152 19.2113 12.6078C19.1852 12.7029 19.1407 12.7919 19.0802 12.8698C19.0197 12.9476 18.9444 13.0128 18.8588 13.0615L16.71 14.3028C16.6284 14.3547 16.57 14.4361 16.5469 14.53C16.5239 14.624 16.5381 14.7232 16.5865 14.8069C16.6349 14.8907 16.7138 14.9525 16.8067 14.9794C16.8996 15.0064 16.9993 14.9964 17.085 14.9515L19.2338 13.7103C19.4055 13.6128 19.556 13.482 19.6765 13.3255C19.7969 13.169 19.8848 12.99 19.935 12.799C20.0371 12.4153 19.9832 12.0068 19.785 11.6628L19.7625 11.629L20.9213 8.05529C20.9673 7.86136 21.0847 7.6919 21.2501 7.5807C21.4155 7.46949 21.6168 7.42472 21.8138 7.45529C21.9818 7.49049 22.1327 7.58232 22.2413 7.71541C22.3498 7.8485 22.4094 8.01481 22.41 8.18654C22.4113 8.2525 22.4024 8.31826 22.3837 8.38154Z" fill="#282828"/>
<path d="M11.2498 19.499V15.9665C11.2489 15.3782 11.0944 14.8003 10.8018 14.29C10.5091 13.7796 10.0884 13.3545 9.58109 13.0565L6.26609 11.1103C6.24359 11.099 6.21734 11.0915 6.19484 11.0803L4.55609 6.359C4.46085 5.97905 4.22441 5.64966 3.89489 5.43788C3.56537 5.2261 3.16753 5.14783 2.78234 5.219C2.44619 5.29082 2.14468 5.47537 1.92779 5.74205C1.7109 6.00873 1.59166 6.34152 1.58984 6.68525C1.58975 6.75166 1.5935 6.81803 1.60109 6.884C1.37113 7.01497 1.17971 7.20418 1.04608 7.4326C0.912444 7.66103 0.841315 7.92061 0.839844 8.18525C0.840572 8.31673 0.856937 8.44765 0.888594 8.57525L2.51984 14.6578C2.61306 15.0154 2.81166 15.3369 3.08984 15.5803L5.62109 17.834C5.73972 17.9395 5.83476 18.0689 5.90002 18.2136C5.96528 18.3584 5.9993 18.5152 5.99984 18.674V19.499C5.90039 19.499 5.80501 19.5385 5.73468 19.6088C5.66435 19.6792 5.62484 19.7745 5.62484 19.874V22.874C5.62484 22.9735 5.66435 23.0688 5.73468 23.1392C5.80501 23.2095 5.90039 23.249 5.99984 23.249H11.2498C11.3493 23.249 11.4447 23.2095 11.515 23.1392C11.5853 23.0688 11.6248 22.9735 11.6248 22.874V19.874C11.6248 19.7745 11.5853 19.6792 11.515 19.6088C11.4447 19.5385 11.3493 19.499 11.2498 19.499ZM2.33984 6.68525C2.34031 6.51404 2.39933 6.34815 2.50712 6.21512C2.6149 6.0821 2.76495 5.98996 2.93234 5.954C3.13472 5.92463 3.34071 5.97285 3.50902 6.089C3.67733 6.20514 3.7955 6.38062 3.83984 6.58025L5.34734 10.9265C5.17308 10.9457 5.00325 10.9939 4.84484 11.069L3.80609 7.859C3.72156 7.53172 3.53273 7.24087 3.26819 7.03044C3.00364 6.82002 2.67776 6.70148 2.33984 6.69275V6.68525ZM6.11984 17.2715L3.58484 15.0178C3.42024 14.8715 3.30277 14.6796 3.24734 14.4665L1.61234 8.38025C1.59682 8.31643 1.58926 8.25093 1.58984 8.18525C1.59031 8.01404 1.64933 7.84815 1.75712 7.71512C1.8649 7.5821 2.01495 7.48996 2.18234 7.454C2.38329 7.42384 2.58821 7.47089 2.75587 7.58569C2.92354 7.70048 3.04152 7.8745 3.08609 8.07275L4.23734 11.6278L4.21484 11.6615C4.01669 12.0056 3.96276 12.4141 4.06484 12.7978C4.11505 12.9887 4.20296 13.1677 4.32339 13.3242C4.44382 13.4807 4.59434 13.6116 4.76609 13.709L6.91484 14.9503C7.00055 14.9951 7.10026 15.0051 7.19315 14.9781C7.28604 14.9512 7.36493 14.8894 7.41333 14.8056C7.46173 14.7219 7.47591 14.6227 7.4529 14.5288C7.42989 14.4348 7.37147 14.3534 7.28984 14.3015L5.14109 13.0603C5.0554 13.0115 4.98015 12.9463 4.91967 12.8685C4.85918 12.7906 4.81464 12.7016 4.78859 12.6065C4.73933 12.4139 4.76619 12.2098 4.86359 12.0365C4.91259 11.9511 4.97794 11.8761 5.0559 11.8159C5.13387 11.7557 5.22293 11.7115 5.31799 11.6857C5.41306 11.6599 5.51227 11.6532 5.60996 11.6657C5.70765 11.6783 5.8019 11.71 5.88734 11.759L9.20234 13.7015C9.59608 13.9345 9.92261 14.2658 10.15 14.6628C10.3775 15.0598 10.498 15.509 10.4998 15.9665V19.499H6.74984V18.674C6.74921 18.4091 6.69277 18.1473 6.58423 17.9056C6.47568 17.664 6.31745 17.4479 6.11984 17.2715ZM10.8748 22.499H6.37484V20.249H10.8748V22.499Z" fill="#282828"/>
<path d="M17.3055 1.92423C16.9574 1.57549 16.5439 1.29883 16.0888 1.11008C15.6336 0.921323 15.1457 0.824184 14.6529 0.824219C14.1601 0.824254 13.6722 0.921461 13.2171 1.11028C12.7619 1.2991 12.3485 1.57582 12.0004 1.9246C11.6524 1.57581 11.2389 1.29909 10.7838 1.11028C10.3287 0.921469 9.84078 0.824282 9.34804 0.824282C8.85529 0.824282 8.36739 0.921469 7.91226 1.11028C7.45713 1.29909 7.04371 1.57581 6.69566 1.9246C5.99379 2.62798 5.59961 3.58106 5.59961 4.57473C5.59961 5.56839 5.99379 6.52147 6.69566 7.22485L11.7357 12.2649C11.806 12.3352 11.9013 12.3746 12.0008 12.3746C12.1002 12.3746 12.1956 12.3352 12.2659 12.2649L17.3059 7.22485C18.0078 6.52136 18.4019 5.56819 18.4018 4.57446C18.4017 3.58074 18.0075 2.62762 17.3055 1.92423ZM12.0004 11.4695L7.22554 6.6946C6.80633 6.27483 6.521 5.7402 6.4056 5.15828C6.29021 4.57637 6.34993 3.97331 6.57722 3.42534C6.80451 2.87736 7.18916 2.40907 7.68255 2.07968C8.17594 1.75028 8.75592 1.57456 9.34916 1.57473C9.74324 1.57337 10.1336 1.6505 10.4976 1.80161C10.8616 1.95272 11.1918 2.17478 11.469 2.45485L11.7353 2.7211C11.8056 2.7914 11.901 2.8309 12.0004 2.8309C12.0998 2.8309 12.1952 2.7914 12.2655 2.7211L12.5325 2.4541C12.8109 2.1752 13.1416 1.95393 13.5056 1.80296C13.8696 1.65199 14.2598 1.57428 14.6539 1.57428C15.048 1.57428 15.4382 1.65199 15.8022 1.80296C16.1662 1.95393 16.4969 2.1752 16.7753 2.4541C17.337 3.01659 17.6525 3.77904 17.6525 4.57398C17.6525 5.36892 17.337 6.13136 16.7753 6.69385L12.0004 11.4695Z" fill="#282828"/>
</g>
<defs>
<clipPath id="clip0_1591_14695">
<rect width="24" height="24" fill="white"/>
</clipPath>
</defs>
</svg>
