<svg width="24" height="24" viewBox="0 0 24 24" fill="none" xmlns="http://www.w3.org/2000/svg">
<path d="M17.4449 21.2911C16.6936 21.2911 15.9606 21.0598 15.3453 20.6288C14.73 20.1978 14.2622 19.5879 14.0055 18.8819C13.7488 18.1758 13.7155 17.4079 13.9103 16.6823C14.105 15.9568 14.5183 15.3087 15.0941 14.8261C15.1318 14.7941 15.1754 14.7698 15.2225 14.7546C15.2696 14.7395 15.3193 14.7339 15.3686 14.738C15.4179 14.7422 15.4659 14.756 15.5098 14.7788C15.5537 14.8016 15.5927 14.8328 15.6245 14.8707C15.6563 14.9087 15.6803 14.9525 15.695 14.9997C15.7098 15.0469 15.7151 15.0966 15.7106 15.1459C15.7061 15.1952 15.6918 15.2431 15.6687 15.2868C15.6456 15.3306 15.6141 15.3693 15.576 15.4008C15.118 15.7845 14.7892 16.2999 14.6342 16.8769C14.4793 17.4539 14.5056 18.0647 14.7098 18.6262C14.9139 19.1877 15.2859 19.6728 15.7753 20.0156C16.2646 20.3584 16.8476 20.5422 17.4451 20.5422C18.0426 20.5422 18.6256 20.3584 19.1149 20.0156C19.6043 19.6728 19.9763 19.1877 20.1804 18.6262C20.3845 18.0647 20.4109 17.4539 20.256 16.8769C20.101 16.2999 19.7722 15.7845 19.3142 15.4008C19.2761 15.3693 19.2446 15.3306 19.2214 15.2868C19.1983 15.2431 19.1841 15.1952 19.1796 15.1459C19.1751 15.0966 19.1804 15.0469 19.1952 14.9997C19.2099 14.9525 19.2339 14.9087 19.2657 14.8707C19.2975 14.8328 19.3365 14.8016 19.3804 14.7788C19.4243 14.756 19.4723 14.7422 19.5216 14.738C19.5709 14.7339 19.6206 14.7395 19.6677 14.7546C19.7148 14.7698 19.7584 14.7941 19.7961 14.8261C20.3719 15.3087 20.7852 15.9568 20.9799 16.6823C21.1747 17.4079 21.1414 18.1758 20.8847 18.8819C20.628 19.5879 20.1602 20.1978 19.5449 20.6288C18.9296 21.0598 18.1966 21.2911 17.4453 21.2911H17.4449Z" fill="black"/>
<path d="M19.5547 15.4884C19.4552 15.4884 19.3598 15.4489 19.2895 15.3786C19.2192 15.3083 19.1797 15.2129 19.1797 15.1134V5.19373C19.1797 4.73374 18.997 4.2926 18.6717 3.96734C18.3464 3.64208 17.9053 3.45935 17.4453 3.45935C16.9853 3.45935 16.5442 3.64208 16.2189 3.96734C15.8937 4.2926 15.7109 4.73374 15.7109 5.19373V15.1134C15.7109 15.2129 15.6714 15.3083 15.6011 15.3786C15.5308 15.4489 15.4354 15.4884 15.3359 15.4884C15.2365 15.4884 15.1411 15.4489 15.0708 15.3786C15.0004 15.3083 14.9609 15.2129 14.9609 15.1134V5.19373C14.9609 4.53483 15.2227 3.90292 15.6886 3.43701C16.1545 2.9711 16.7864 2.70935 17.4453 2.70935C18.1042 2.70935 18.7361 2.9711 19.202 3.43701C19.6679 3.90292 19.9297 4.53483 19.9297 5.19373V15.1134C19.9297 15.2129 19.8902 15.3083 19.8199 15.3786C19.7495 15.4489 19.6541 15.4884 19.5547 15.4884Z" fill="black"/>
<path d="M17.4444 19.6875C16.9802 19.6878 16.5295 19.5308 16.1659 19.2422C15.8022 18.9535 15.5471 18.5502 15.442 18.098C15.3369 17.6458 15.3881 17.1714 15.5872 16.7519C15.7863 16.3325 16.1215 15.9929 16.5383 15.7884C16.5826 15.7657 16.6311 15.7519 16.6807 15.7481C16.7304 15.7442 16.7804 15.7503 16.8277 15.766C16.875 15.7816 16.9187 15.8066 16.9562 15.8393C16.9938 15.872 17.0245 15.912 17.0464 15.9567C17.0684 16.0014 17.0812 16.0501 17.0841 16.0998C17.0871 16.1496 17.0801 16.1994 17.0635 16.2464C17.047 16.2934 17.0213 16.3366 16.9878 16.3736C16.9544 16.4105 16.9139 16.4404 16.8688 16.4616C16.6041 16.5915 16.3912 16.8073 16.2648 17.0737C16.1384 17.3401 16.1059 17.6415 16.1726 17.9288C16.2393 18.216 16.4013 18.4722 16.6322 18.6556C16.8631 18.839 17.1493 18.9389 17.4442 18.9389C17.7391 18.9389 18.0253 18.839 18.2562 18.6556C18.4871 18.4722 18.6491 18.216 18.7158 17.9288C18.7825 17.6415 18.75 17.3401 18.6236 17.0737C18.4972 16.8073 18.2843 16.5915 18.0196 16.4616C17.9754 16.4398 17.9359 16.4096 17.9034 16.3726C17.8709 16.3356 17.8459 16.2926 17.8301 16.246C17.8142 16.1994 17.8076 16.1501 17.8108 16.1009C17.8139 16.0518 17.8268 16.0037 17.8485 15.9595C17.8702 15.9153 17.9004 15.8759 17.9374 15.8433C17.9744 15.8108 18.0174 15.7859 18.0641 15.77C18.1107 15.7541 18.16 15.7476 18.2091 15.7507C18.2583 15.7539 18.3063 15.7667 18.3505 15.7884C18.7673 15.9929 19.1026 16.3325 19.3017 16.7519C19.5008 17.1714 19.5519 17.6458 19.4468 18.098C19.3418 18.5502 19.0866 18.9535 18.723 19.2422C18.3593 19.5308 17.9087 19.6878 17.4444 19.6875Z" fill="black"/>
<path d="M18.1873 16.5C18.0878 16.5 17.9925 16.4605 17.9221 16.3902C17.8518 16.3198 17.8123 16.2244 17.8123 16.125V5.40468C17.8123 5.16093 17.6482 4.96265 17.4467 4.96265C17.2451 4.96265 17.0811 5.16515 17.0811 5.40468V16.125C17.0811 16.2244 17.0415 16.3198 16.9712 16.3902C16.9009 16.4605 16.8055 16.5 16.7061 16.5C16.6066 16.5 16.5112 16.4605 16.4409 16.3902C16.3706 16.3198 16.3311 16.2244 16.3311 16.125V5.40468C16.3311 4.74843 16.8312 4.21265 17.4467 4.21265C18.0621 4.21265 18.5623 4.74749 18.5623 5.40468V16.125C18.5623 16.2244 18.5228 16.3198 18.4525 16.3902C18.3821 16.4605 18.2868 16.5 18.1873 16.5Z" fill="black"/>
<path d="M22.5464 5.56873H20.7432C20.6437 5.56873 20.5483 5.52922 20.478 5.45889C20.4077 5.38856 20.3682 5.29318 20.3682 5.19373C20.3682 5.09427 20.4077 4.99889 20.478 4.92856C20.5483 4.85823 20.6437 4.81873 20.7432 4.81873H22.5464C22.6459 4.81873 22.7413 4.85823 22.8116 4.92856C22.8819 4.99889 22.9214 5.09427 22.9214 5.19373C22.9214 5.29318 22.8819 5.38856 22.8116 5.45889C22.7413 5.52922 22.6459 5.56873 22.5464 5.56873Z" fill="black"/>
<path d="M22.5464 7.5802H20.7432C20.6437 7.5802 20.5483 7.54069 20.478 7.47036C20.4077 7.40004 20.3682 7.30466 20.3682 7.2052C20.3682 7.10574 20.4077 7.01036 20.478 6.94003C20.5483 6.86971 20.6437 6.8302 20.7432 6.8302H22.5464C22.6459 6.8302 22.7413 6.86971 22.8116 6.94003C22.8819 7.01036 22.9214 7.10574 22.9214 7.2052C22.9214 7.30466 22.8819 7.40004 22.8116 7.47036C22.7413 7.54069 22.6459 7.5802 22.5464 7.5802Z" fill="black"/>
<path d="M22.5464 9.59106H20.7432C20.6437 9.59106 20.5483 9.55156 20.478 9.48123C20.4077 9.4109 20.3682 9.31552 20.3682 9.21606C20.3682 9.11661 20.4077 9.02123 20.478 8.9509C20.5483 8.88057 20.6437 8.84106 20.7432 8.84106H22.5464C22.6459 8.84106 22.7413 8.88057 22.8116 8.9509C22.8819 9.02123 22.9214 9.11661 22.9214 9.21606C22.9214 9.31552 22.8819 9.4109 22.8116 9.48123C22.7413 9.55156 22.6459 9.59106 22.5464 9.59106Z" fill="black"/>
<path d="M22.5464 11.6021H20.7432C20.6437 11.6021 20.5483 11.5625 20.478 11.4922C20.4077 11.4219 20.3682 11.3265 20.3682 11.2271C20.3682 11.1276 20.4077 11.0322 20.478 10.9619C20.5483 10.8916 20.6437 10.8521 20.7432 10.8521H22.5464C22.6459 10.8521 22.7413 10.8916 22.8116 10.9619C22.8819 11.0322 22.9214 11.1276 22.9214 11.2271C22.9214 11.3265 22.8819 11.4219 22.8116 11.4922C22.7413 11.5625 22.6459 11.6021 22.5464 11.6021Z" fill="black"/>
<path d="M22.5464 13.6129H20.7432C20.6437 13.6129 20.5483 13.5734 20.478 13.5031C20.4077 13.4328 20.3682 13.3374 20.3682 13.2379C20.3682 13.1385 20.4077 13.0431 20.478 12.9727C20.5483 12.9024 20.6437 12.8629 20.7432 12.8629H22.5464C22.6459 12.8629 22.7413 12.9024 22.8116 12.9727C22.8819 13.0431 22.9214 13.1385 22.9214 13.2379C22.9214 13.3374 22.8819 13.4328 22.8116 13.5031C22.7413 13.5734 22.6459 13.6129 22.5464 13.6129Z" fill="black"/>
<path d="M18.1873 7.02844H16.7061C16.6066 7.02844 16.5112 6.98893 16.4409 6.91861C16.3706 6.84828 16.3311 6.7529 16.3311 6.65344C16.3311 6.55399 16.3706 6.4586 16.4409 6.38828C16.5112 6.31795 16.6066 6.27844 16.7061 6.27844H18.1873C18.2868 6.27844 18.3821 6.31795 18.4525 6.38828C18.5228 6.4586 18.5623 6.55399 18.5623 6.65344C18.5623 6.7529 18.5228 6.84828 18.4525 6.91861C18.3821 6.98893 18.2868 7.02844 18.1873 7.02844Z" fill="black"/>
<path d="M7.38539 21.2911H7.29164C6.0657 21.2731 4.87161 20.898 3.85549 20.2119C2.83937 19.5258 2.04528 18.5583 1.5704 17.428C1.09551 16.2976 0.960411 15.0533 1.18164 13.8473C1.40287 12.6414 1.97082 11.5261 2.81601 10.6379C3.42228 10.0124 3.96494 9.32824 4.43601 8.59552C5.61398 6.73036 6.48492 4.84083 7.02398 2.97943C7.04657 2.90134 7.09391 2.83271 7.15888 2.78387C7.22385 2.73503 7.30293 2.70862 7.38422 2.70862C7.4655 2.70862 7.54458 2.73503 7.60955 2.78387C7.67452 2.83271 7.72187 2.90134 7.74445 2.97943C8.28398 4.84083 9.15492 6.72942 10.3334 8.59646C10.7929 9.31826 11.3248 9.99128 11.921 10.605C12.7811 11.4954 13.3602 12.6193 13.5859 13.8365C13.8117 15.0537 13.6742 16.3104 13.1906 17.45C12.7069 18.5896 11.8986 19.5616 10.8663 20.2449C9.83396 20.9282 8.62336 21.2926 7.38539 21.2925V21.2911ZM7.38539 4.30364C6.82898 5.86786 6.05273 7.44146 5.07117 8.9963C4.57336 9.77112 3.99993 10.4947 3.3593 11.1563C2.35918 12.2027 1.80949 13.5996 1.82836 15.0469C1.85976 18.0338 4.31508 20.499 7.30148 20.5421C8.39888 20.5582 9.47649 20.249 10.3983 19.6534C11.3202 19.0578 12.0449 18.2025 12.4812 17.1954C12.9174 16.1883 13.0456 15.0745 12.8496 13.9947C12.6535 12.9148 12.142 11.9172 11.3796 11.1277C10.7479 10.4769 10.1842 9.76338 9.69726 8.99817C8.71898 7.44192 7.94086 5.86833 7.38445 4.30364H7.38539Z" fill="black"/>
<path d="M5.26983 17.4797C5.19562 17.4798 5.12306 17.4578 5.06133 17.4166C4.99961 17.3754 4.9515 17.3168 4.92309 17.2482C4.89469 17.1797 4.88726 17.1042 4.90175 17.0315C4.91625 16.9587 4.95201 16.8918 5.00451 16.8394L9.23451 12.6094C9.26899 12.5731 9.31038 12.5441 9.35625 12.524C9.40212 12.504 9.45153 12.4933 9.50158 12.4927C9.55163 12.4921 9.6013 12.5015 9.64767 12.5203C9.69403 12.5392 9.73615 12.5671 9.77155 12.6025C9.80694 12.6379 9.83489 12.68 9.85375 12.7264C9.87261 12.7728 9.88199 12.8224 9.88135 12.8725C9.88071 12.9225 9.87006 12.9719 9.85002 13.0178C9.82998 13.0637 9.80096 13.1051 9.76467 13.1395L5.53608 17.3686C5.50123 17.4038 5.45976 17.4317 5.41406 17.4508C5.36836 17.4698 5.31934 17.4797 5.26983 17.4797Z" fill="black"/>
<path d="M5.58744 14.7066C5.21674 14.7065 4.85751 14.578 4.57098 14.3428C4.28445 14.1076 4.08835 13.7803 4.01609 13.4167C3.94383 13.0531 3.99988 12.6757 4.1747 12.3488C4.34952 12.0219 4.63228 11.7658 4.9748 11.624C5.31732 11.4822 5.6984 11.4636 6.05311 11.5713C6.40781 11.6791 6.71419 11.9064 6.92003 12.2147C7.12587 12.523 7.21844 12.8932 7.18195 13.2621C7.14546 13.631 6.98219 13.9758 6.71994 14.2378C6.57159 14.387 6.39509 14.5053 6.20069 14.5857C6.00628 14.6662 5.79784 14.7073 5.58744 14.7066ZM5.58744 12.2527C5.44712 12.2524 5.30889 12.2867 5.18503 12.3527C5.06118 12.4186 4.95552 12.5141 4.87745 12.6307C4.79937 12.7473 4.7513 12.8814 4.7375 13.021C4.72369 13.1607 4.74459 13.3015 4.79832 13.4312C4.85205 13.5608 4.93696 13.6752 5.04551 13.7641C5.15406 13.853 5.28288 13.9137 5.42055 13.9409C5.55821 13.9681 5.70046 13.9608 5.83465 13.9198C5.96884 13.8788 6.09083 13.8053 6.18978 13.7058C6.30838 13.5865 6.38905 13.4349 6.42161 13.2699C6.45418 13.1049 6.43719 12.9339 6.37279 12.7785C6.30838 12.6232 6.19945 12.4903 6.05969 12.3967C5.91994 12.3032 5.75563 12.253 5.58744 12.2527Z" fill="black"/>
<path d="M9.2699 18.3886C8.89935 18.3884 8.54031 18.2598 8.25398 18.0246C7.96764 17.7894 7.77172 17.4622 7.69959 17.0987C7.62746 16.7352 7.68358 16.358 7.8584 16.0313C8.03322 15.7045 8.31591 15.4485 8.65832 15.3069C9.00073 15.1652 9.38166 15.1466 9.73622 15.2543C10.0908 15.362 10.397 15.5893 10.6028 15.8975C10.8085 16.2057 10.9011 16.5757 10.8646 16.9445C10.8282 17.3132 10.665 17.6579 10.4029 17.9199C10.2542 18.0688 10.0776 18.1869 9.88316 18.2673C9.68873 18.3477 9.48032 18.389 9.2699 18.3886ZM9.2699 15.9375C9.07285 15.9376 8.88192 16.0059 8.72962 16.131C8.57733 16.256 8.4731 16.43 8.43469 16.6232C8.39629 16.8165 8.42608 17.0171 8.519 17.1909C8.61192 17.3646 8.76222 17.5008 8.94428 17.5762C9.12634 17.6516 9.3289 17.6615 9.51745 17.6042C9.70601 17.547 9.86888 17.4262 9.97833 17.2623C10.0878 17.0985 10.137 16.9017 10.1177 16.7056C10.0983 16.5095 10.0116 16.3262 9.87225 16.1869C9.79317 16.1078 9.69926 16.045 9.59591 16.0022C9.49255 15.9594 9.38177 15.9375 9.2699 15.9375Z" fill="black"/>
</svg>
