<svg width="24" height="24" viewBox="0 0 24 24" fill="none" xmlns="http://www.w3.org/2000/svg">
<path d="M15.375 19.7738H14.1412L13.7662 18.765C13.74 18.6925 13.6922 18.6299 13.6291 18.5856C13.566 18.5413 13.4908 18.5175 13.4137 18.5175H12.2887V15.7162H13.875C13.9745 15.7162 14.0698 15.6767 14.1402 15.6064C14.2105 15.5361 14.25 15.4407 14.25 15.3412V14.7787H15.0225C15.122 14.7787 15.2173 14.7392 15.2877 14.6689C15.358 14.5986 15.3975 14.5032 15.3975 14.4037V12.5625C15.3975 12.463 15.358 12.3677 15.2877 12.2973C15.2173 12.227 15.122 12.1875 15.0225 12.1875H14.25V11.625C14.25 11.5255 14.2105 11.4302 14.1402 11.3598C14.0698 11.2895 13.9745 11.25 13.875 11.25H12.3V8.91375H13.425C13.5245 8.91375 13.6198 8.87424 13.6902 8.80392C13.7605 8.73359 13.8 8.63821 13.8 8.53875V6.8325C13.8 6.73304 13.7605 6.63766 13.6902 6.56734C13.6198 6.49701 13.5245 6.4575 13.425 6.4575H12.7875C12.7151 5.62775 12.4074 4.8359 11.9006 4.17496C11.3937 3.51402 10.7088 3.01144 9.92625 2.72625V1.5C9.92625 1.40054 9.88674 1.30516 9.81641 1.23483C9.74609 1.16451 9.65071 1.125 9.55125 1.125H7.30125C7.20179 1.125 7.10641 1.16451 7.03609 1.23483C6.96576 1.30516 6.92625 1.40054 6.92625 1.5V2.72625C6.14099 3.01278 5.45421 3.51821 4.94715 4.18277C4.4401 4.84732 4.13398 5.6432 4.065 6.47625H3.435C3.33554 6.47625 3.24016 6.51576 3.16984 6.58608C3.09951 6.65641 3.06 6.75179 3.06 6.85125V8.5575C3.06 8.65696 3.09951 8.75234 3.16984 8.82267C3.24016 8.89299 3.33554 8.9325 3.435 8.9325H4.56V11.25H3C2.90054 11.25 2.80516 11.2895 2.73484 11.3598C2.66451 11.4302 2.625 11.5255 2.625 11.625V12.1875H1.8375C1.73804 12.1875 1.64266 12.227 1.57233 12.2973C1.50201 12.3677 1.4625 12.463 1.4625 12.5625V14.4037C1.4625 14.5032 1.50201 14.5986 1.57233 14.6689C1.64266 14.7392 1.73804 14.7787 1.8375 14.7787H2.625V15.3412C2.625 15.4407 2.66451 15.5361 2.73484 15.6064C2.80516 15.6767 2.90054 15.7162 3 15.7162H4.57875V18.5175H3.45375C3.37668 18.5175 3.3015 18.5413 3.23842 18.5856C3.17535 18.6299 3.12745 18.6925 3.10125 18.765L2.72625 19.7738H1.5C1.40054 19.7738 1.30516 19.8133 1.23483 19.8836C1.16451 19.9539 1.125 20.0493 1.125 20.1488V22.5C1.125 22.5995 1.16451 22.6948 1.23483 22.7652C1.30516 22.8355 1.40054 22.875 1.5 22.875H15.375C15.4745 22.875 15.5698 22.8355 15.6402 22.7652C15.7105 22.6948 15.75 22.5995 15.75 22.5V20.1488C15.75 20.0493 15.7105 19.9539 15.6402 19.8836C15.5698 19.8133 15.4745 19.7738 15.375 19.7738ZM14.6512 12.9375V14.0287H14.25V12.9375H14.6512ZM13.5 12V14.9662H12.3V12H13.5ZM7.6875 1.875H9.1875V2.52375C8.6917 2.43208 8.1833 2.43208 7.6875 2.52375V1.875ZM8.4375 3.20625C9.3342 3.20691 10.1989 3.53945 10.865 4.13976C11.5311 4.74008 11.9514 5.5657 12.045 6.4575H4.82625C4.91974 5.56634 5.33954 4.74125 6.00484 4.14102C6.67015 3.54079 7.53395 3.20784 8.43 3.20625H8.4375ZM3.81 7.2075H13.0538V8.16375H3.81V7.2075ZM2.2125 14.0287V12.9375H2.625V14.0287H2.2125ZM3.375 14.9662V12H4.57875V14.9662H3.375ZM5.32875 8.91375H11.55V18.5175H5.31375L5.32875 8.91375ZM3.6975 19.2675H13.1663L13.3463 19.7738H3.5175L3.6975 19.2675ZM15 22.125H1.875V20.5238H15V22.125Z" fill="black"/>
<path d="M8.4302 11.2013C8.00092 11.202 7.5815 11.33 7.22494 11.569C6.86837 11.8081 6.59066 12.1474 6.4269 12.5442C6.26314 12.941 6.22067 13.3775 6.30487 13.7984C6.38908 14.2194 6.59616 14.6059 6.89997 14.9092C7.20377 15.2125 7.59066 15.4189 8.01173 15.5023C8.43281 15.5858 8.86919 15.5426 9.26571 15.3782C9.66224 15.2137 10.0011 14.9354 10.2395 14.5784C10.4779 14.2215 10.6052 13.8018 10.6052 13.3725C10.6052 13.0871 10.5489 12.8045 10.4396 12.5408C10.3302 12.2771 10.1699 12.0376 9.96793 11.8359C9.76591 11.6342 9.52611 11.4744 9.26225 11.3655C8.99839 11.2566 8.71564 11.2008 8.4302 11.2013ZM8.4302 14.7938C8.14926 14.7931 7.87485 14.7091 7.64162 14.5525C7.40839 14.3958 7.22681 14.1736 7.11981 13.9138C7.01281 13.6541 6.9852 13.3684 7.04046 13.093C7.09573 12.8175 7.23138 12.5646 7.4303 12.3663C7.62921 12.1679 7.88246 12.0329 8.15805 11.9783C8.43364 11.9238 8.71922 11.9522 8.9787 12.0598C9.23818 12.1675 9.45993 12.3497 9.61593 12.5833C9.77193 12.817 9.8552 13.0916 9.8552 13.3725C9.8552 13.5595 9.81831 13.7446 9.74665 13.9173C9.67499 14.09 9.56997 14.2468 9.4376 14.3788C9.30522 14.5109 9.1481 14.6155 8.97524 14.6867C8.80237 14.7579 8.61715 14.7943 8.4302 14.7938Z" fill="black"/>
<path d="M16.9316 1.125C16.8322 1.125 16.7368 1.16451 16.6665 1.23483C16.5961 1.30516 16.5566 1.40054 16.5566 1.5C16.5566 1.59946 16.5961 1.69484 16.6665 1.76516C16.7368 1.83549 16.8322 1.875 16.9316 1.875C18.3115 1.88194 19.6325 2.43496 20.6058 3.41315C21.579 4.39134 22.1254 5.71511 22.1254 7.095C22.1254 7.19446 22.1649 7.28984 22.2352 7.36017C22.3056 7.43049 22.4009 7.47 22.5004 7.47C22.5998 7.47 22.6952 7.43049 22.7656 7.36017C22.8359 7.28984 22.8754 7.19446 22.8754 7.095C22.8764 5.51589 22.2513 4.00079 21.1372 2.88174C20.0231 1.76268 18.5107 1.13095 16.9316 1.125Z" fill="black"/>
<path d="M16.9316 2.68872C16.8322 2.68872 16.7368 2.72823 16.6665 2.79856C16.5961 2.86888 16.5566 2.96426 16.5566 3.06372C16.5566 3.16318 16.5961 3.25856 16.6665 3.32889C16.7368 3.39921 16.8322 3.43872 16.9316 3.43872C17.8974 3.44466 18.8216 3.8325 19.5025 4.51753C20.1833 5.20257 20.5654 6.12916 20.5654 7.09497C20.5654 7.19443 20.6049 7.28981 20.6752 7.36014C20.7456 7.43046 20.8409 7.46997 20.9404 7.46997C21.0398 7.46997 21.1352 7.43046 21.2056 7.36014C21.2759 7.28981 21.3154 7.19443 21.3154 7.09497C21.3164 5.92995 20.8556 4.81202 20.0339 3.98612C19.2122 3.16022 18.0967 2.69368 16.9316 2.68872Z" fill="black"/>
<path d="M16.9316 4.25623C16.8322 4.25623 16.7368 4.29573 16.6665 4.36606C16.5961 4.43639 16.5566 4.53177 16.5566 4.63123C16.5566 4.73068 16.5961 4.82606 16.6665 4.89639C16.7368 4.96672 16.8322 5.00623 16.9316 5.00623C17.4823 5.01019 18.009 5.23224 18.3963 5.62375C18.7836 6.01525 18.9999 6.54428 18.9979 7.09498C18.9979 7.19443 19.0374 7.28981 19.1077 7.36014C19.1781 7.43047 19.2734 7.46998 19.3729 7.46998C19.4723 7.46998 19.5677 7.43047 19.6381 7.36014C19.7084 7.28981 19.7479 7.19443 19.7479 7.09498C19.7494 6.72366 19.6777 6.35569 19.537 6.01208C19.3962 5.66846 19.1892 5.35593 18.9277 5.09233C18.6662 4.82873 18.3553 4.61921 18.0128 4.47576C17.6703 4.3323 17.303 4.2577 16.9316 4.25623Z" fill="black"/>
<path d="M16.92 5.81995C16.6701 5.81995 16.4257 5.89406 16.2179 6.03293C16.0101 6.17179 15.8481 6.36916 15.7524 6.60008C15.6568 6.831 15.6318 7.0851 15.6805 7.33024C15.7293 7.57539 15.8497 7.80056 16.0264 7.9773C16.2031 8.15404 16.4283 8.2744 16.6735 8.32316C16.9186 8.37193 17.1727 8.3469 17.4036 8.25125C17.6345 8.1556 17.8319 7.99362 17.9708 7.7858C18.1096 7.57798 18.1838 7.33364 18.1838 7.0837C18.1838 6.74853 18.0506 6.42709 17.8136 6.19009C17.5766 5.95309 17.2552 5.81995 16.92 5.81995ZM16.92 7.59745C16.8184 7.59745 16.7191 7.56732 16.6346 7.51086C16.5501 7.45441 16.4842 7.37418 16.4454 7.2803C16.4065 7.18642 16.3963 7.08313 16.4161 6.98347C16.4359 6.88381 16.4849 6.79227 16.5567 6.72042C16.6286 6.64857 16.7201 6.59964 16.8198 6.57982C16.9194 6.55999 17.0227 6.57017 17.1166 6.60905C17.2105 6.64794 17.2907 6.71379 17.3472 6.79827C17.4036 6.88276 17.4338 6.98209 17.4338 7.0837C17.4338 7.15116 17.4205 7.21797 17.3946 7.2803C17.3688 7.34263 17.331 7.39927 17.2833 7.44697C17.2356 7.49468 17.1789 7.53252 17.1166 7.55834C17.0543 7.58416 16.9875 7.59745 16.92 7.59745Z" fill="black"/>
</svg>
