<svg width="500" height="500" viewBox="0 0 500 500" fill="none" xmlns="http://www.w3.org/2000/svg">
<path d="M142.471 349.706L131.981 280.73H111.671C110.941 296.22 112.691 312.046 113.339 327.428L113.425 327.08L117.819 351.738C119.485 358.082 120.399 364.612 120.543 371.184L123.091 419.138L125.785 420.454C128.019 421.546 130.627 421.45 132.783 420.2L134.151 417.87L142.785 361.534C143.171 357.594 143.067 353.62 142.471 349.706Z" fill="#282828"/>
<path d="M122.528 418.921C122.248 420.659 121.784 423.887 121.682 426.791C121.618 428.613 122.906 430.183 124.652 430.461C129.588 431.243 140.798 432.249 150.386 431.599C151.042 431.555 152.212 431.091 152.576 429.413C153.822 423.653 143.866 422.073 133.238 417.477L131.322 419.299C130.304 420.267 128.822 420.511 127.564 419.919L123.882 418.185C123.304 417.913 122.634 418.279 122.528 418.925V418.921Z" fill="white"/>
<path d="M143.697 432.253C136.067 432.253 128.543 431.529 124.579 430.899C122.601 430.585 121.163 428.811 121.235 426.775C121.339 423.831 121.813 420.547 122.087 418.851C122.161 418.399 122.431 418.017 122.831 417.807C123.221 417.603 123.671 417.591 124.069 417.779L127.751 419.513C128.847 420.029 130.127 419.817 131.013 418.975L132.929 417.153C133.059 417.031 133.249 416.997 133.413 417.067C136.061 418.213 138.727 419.191 141.077 420.055C148.311 422.711 154.023 424.811 153.009 429.507C152.627 431.275 151.373 431.979 150.415 432.043C148.227 432.191 145.959 432.255 143.699 432.255L143.697 432.253ZM122.965 418.991C122.695 420.667 122.225 423.909 122.123 426.805C122.067 428.393 123.183 429.775 124.717 430.019C129.815 430.827 140.847 431.797 150.351 431.151C150.587 431.135 151.777 430.971 152.135 429.313C152.987 425.373 147.861 423.491 140.767 420.885C138.485 420.047 135.907 419.101 133.327 417.995L131.625 419.615C130.471 420.713 128.799 420.987 127.371 420.315L123.689 418.581C123.493 418.489 123.327 418.547 123.245 418.591C123.095 418.671 122.993 418.815 122.965 418.991Z" fill="#282828"/>
<path d="M121.696 426.355C121.696 426.355 121.684 426.649 121.678 426.791C121.614 428.613 122.902 430.183 124.648 430.461C129.584 431.243 140.794 432.249 150.382 431.599C151.038 431.555 152.208 431.091 152.572 429.413C152.684 428.899 152.644 427.963 152.644 427.963L151.964 427.981C142.286 428.225 132.604 427.737 122.996 426.521L121.694 426.357L121.696 426.355Z" fill="white"/>
<path d="M143.697 432.254C136.067 432.254 128.543 431.53 124.579 430.9C122.601 430.586 121.163 428.812 121.235 426.776L121.253 426.336C121.259 426.212 121.315 426.096 121.411 426.016C121.505 425.936 121.629 425.898 121.753 425.914L123.055 426.078C132.611 427.286 142.335 427.776 151.955 427.534L152.635 427.516C152.883 427.512 153.081 427.7 153.091 427.942C153.095 428.044 153.129 428.95 153.009 429.504C152.627 431.272 151.373 431.976 150.415 432.04C148.227 432.188 145.959 432.252 143.699 432.252L143.697 432.254ZM122.123 426.858C122.093 428.426 123.201 429.78 124.719 430.022C129.817 430.83 140.849 431.8 150.353 431.154C150.589 431.138 151.779 430.974 152.137 429.316C152.187 429.084 152.203 428.718 152.207 428.418L151.977 428.424C142.311 428.668 132.543 428.176 122.943 426.962L122.123 426.858Z" fill="#282828"/>
<path d="M111.674 280.73H94.0802C94.0802 280.73 88.8762 290.53 88.5222 298.464C87.9682 310.874 86.1703 321.696 83.4883 351.448C80.3903 385.826 70.1562 412.412 70.1562 412.412C71.3203 414.294 73.1102 415.706 75.2102 416.234C78.6222 417.094 81.4482 415.65 81.4482 415.65L95.9643 383.712C100.368 374.914 103.8 365.634 106.194 356.046L113.34 327.428C112.692 312.046 110.942 296.22 111.672 280.73H111.674Z" fill="#282828"/>
<path d="M69.9671 412.896C69.2171 414.448 67.4231 418.882 66.5151 421.582C65.9451 423.276 66.7191 425.138 68.2851 425.918C72.7091 428.124 83.8651 430.258 93.0671 432.5C93.6971 432.654 94.9271 432.566 95.7371 431.094C98.5171 426.046 88.8311 422.452 80.1151 414.964C80.1151 414.964 79.4471 415.332 78.5091 415.618C76.9391 416.096 74.6351 415.52 73.4111 414.398L71.4471 412.6C70.9791 412.172 70.2471 412.316 69.9671 412.894V412.896Z" fill="white"/>
<path d="M93.5349 433.001C93.3309 433.001 93.1369 432.977 92.9609 432.933C90.6069 432.359 88.0909 431.785 85.6569 431.229C78.3369 429.559 71.4249 427.981 68.0849 426.317C66.3129 425.433 65.4549 423.337 66.0929 421.441C66.9969 418.751 68.7889 414.313 69.5669 412.703C69.7629 412.299 70.1229 412.019 70.5569 411.935C70.9869 411.853 71.4209 411.977 71.7469 412.275L73.7109 414.073C74.8409 415.107 76.9789 415.621 78.3789 415.195C79.2569 414.927 79.8929 414.581 79.8989 414.577C80.0609 414.487 80.2629 414.509 80.4029 414.629C83.0949 416.941 85.8989 418.895 88.3729 420.617C94.0969 424.603 98.2329 427.483 96.1249 431.311C95.4309 432.571 94.3929 433.001 93.5329 433.001H93.5349ZM70.8149 412.799C70.7849 412.799 70.7549 412.801 70.7249 412.807C70.5689 412.837 70.4389 412.939 70.3669 413.089C69.6069 414.663 67.8069 419.133 66.9349 421.723C66.4389 423.201 67.1029 424.833 68.4809 425.519C71.7249 427.137 78.5869 428.703 85.8529 430.361C88.2889 430.917 90.8089 431.493 93.1689 432.067C93.3929 432.121 94.5509 432.321 95.3449 430.879C97.0669 427.751 93.2069 425.063 87.8649 421.343C85.4429 419.657 82.7049 417.751 80.0489 415.493C79.7569 415.633 79.2529 415.855 78.6369 416.041C76.9449 416.557 74.4649 415.965 73.1089 414.725L71.1449 412.927C71.0509 412.841 70.9349 412.795 70.8149 412.795V412.799Z" fill="#282828"/>
<path d="M66.0022 422.785C65.9842 422.831 65.9722 422.863 65.9662 422.879C65.3962 424.573 66.6602 425.529 68.0722 426.577C72.3422 429.745 91.9122 432.385 91.9122 432.385C91.9122 432.385 94.4662 432.971 95.4702 431.537C95.6182 431.327 95.7722 431.201 95.8522 430.919C95.9402 430.615 96.1482 429.501 96.1482 429.501C86.2382 429.073 79.9682 427.617 71.5342 424.157C70.4822 423.725 67.4002 422.139 66.5442 421.447C66.5442 421.447 66.3762 421.829 66.0002 422.787L66.0022 422.785Z" fill="white"/>
<path d="M93.0837 432.947C92.3977 432.947 91.8637 432.829 91.8137 432.817C91.0497 432.715 72.1197 430.135 67.8077 426.933C66.4297 425.911 64.8697 424.751 65.5457 422.737C65.5497 422.723 65.5657 422.681 65.5897 422.623C65.9637 421.667 66.1337 421.281 66.1397 421.265C66.1957 421.139 66.3077 421.045 66.4417 421.013C66.5757 420.979 66.7177 421.013 66.8257 421.099C67.6317 421.749 70.6797 423.323 71.7057 423.743C80.3737 427.299 86.5477 428.639 96.1697 429.053C96.2977 429.059 96.4177 429.119 96.4997 429.221C96.5797 429.323 96.6117 429.453 96.5877 429.579C96.5657 429.695 96.3717 430.723 96.2817 431.039C96.1977 431.329 96.0537 431.509 95.9397 431.653C95.9057 431.695 95.8697 431.739 95.8357 431.789C95.1717 432.737 93.9937 432.947 93.0837 432.947ZM66.7437 422.129C66.6617 422.333 66.5537 422.603 66.4177 422.947L66.3917 423.017C65.9417 424.355 66.8397 425.105 68.3397 426.217C72.4697 429.283 91.7797 431.915 91.9737 431.941C92.0357 431.953 94.2877 432.449 95.1077 431.279C95.1537 431.213 95.1997 431.155 95.2437 431.099C95.3357 430.983 95.3917 430.913 95.4257 430.793C95.4677 430.647 95.5477 430.261 95.6157 429.919C86.1697 429.473 79.9857 428.101 71.3657 424.567C70.4277 424.181 67.9717 422.933 66.7417 422.129H66.7437Z" fill="#282828"/>
<path d="M80.267 420.099C80.105 420.099 79.949 420.011 79.871 419.855C79.759 419.637 79.847 419.369 80.065 419.257L83.283 417.619C83.501 417.507 83.769 417.595 83.881 417.813C83.993 418.031 83.905 418.299 83.687 418.411L80.469 420.049C80.405 420.083 80.335 420.097 80.267 420.097V420.099Z" fill="#282828"/>
<path d="M83.7184 422.4C83.5544 422.4 83.3984 422.31 83.3204 422.154C83.2104 421.934 83.3004 421.666 83.5184 421.558L86.3284 420.152C86.5484 420.042 86.8164 420.132 86.9244 420.352C87.0344 420.572 86.9444 420.84 86.7244 420.948L83.9144 422.354C83.8504 422.386 83.7824 422.4 83.7164 422.4H83.7184Z" fill="#282828"/>
<path d="M90.5342 303.658C90.3382 303.658 90.1602 303.528 90.1062 303.332C90.0402 303.094 90.1802 302.85 90.4162 302.784C98.8642 300.458 102.626 292.722 102.664 292.644C102.77 292.422 103.036 292.328 103.256 292.434C103.478 292.54 103.572 292.806 103.466 293.026C103.308 293.36 99.4882 301.21 90.6522 303.642C90.6122 303.652 90.5722 303.658 90.5342 303.658Z" fill="white"/>
<path d="M180.775 254.078C180.775 254.078 184.563 255.242 186.035 255.232C187.505 255.222 191.491 255.548 192.275 254.738C193.149 253.834 193.437 251.806 189.473 251.85C187.879 251.868 186.591 251.592 186.339 250.612C185.981 249.22 188.935 249.598 190.287 249.63C192.145 249.672 197.491 251.514 197.927 249.382C198.321 247.45 194.859 245.658 189.621 245.052C188.607 244.934 187.579 245.022 186.589 245.272C185.037 245.664 182.535 246.232 181.169 246.2L180.777 254.08L180.775 254.078Z" fill="white"/>
<path d="M188.949 255.731C188.389 255.731 187.791 255.717 187.169 255.699C186.721 255.685 186.331 255.673 186.037 255.677H186.017C184.483 255.677 180.801 254.551 180.645 254.503C180.451 254.443 180.321 254.259 180.331 254.055L180.723 246.175C180.735 245.935 180.945 245.741 181.177 245.753C182.165 245.775 184.051 245.451 186.477 244.837C187.557 244.565 188.631 244.487 189.669 244.607C193.751 245.079 196.845 246.269 197.945 247.789C198.331 248.321 198.475 248.903 198.359 249.469C197.955 251.451 194.833 250.859 192.325 250.383C191.511 250.229 190.743 250.083 190.273 250.073C190.077 250.069 189.847 250.057 189.599 250.045C188.785 250.003 187.093 249.917 186.779 250.301C186.765 250.319 186.731 250.361 186.767 250.499C186.927 251.117 187.833 251.421 189.467 251.403C191.961 251.379 192.841 252.165 193.129 252.833C193.493 253.681 193.069 254.555 192.593 255.047C192.059 255.599 190.689 255.731 188.949 255.731ZM186.105 254.787C186.397 254.787 186.773 254.797 187.195 254.811C188.581 254.853 191.465 254.935 191.953 254.429C192.251 254.121 192.489 253.601 192.311 253.187C192.059 252.603 191.017 252.277 189.477 252.295C188.695 252.301 186.321 252.331 185.907 250.723C185.785 250.247 185.941 249.927 186.093 249.739C186.647 249.059 187.973 249.071 189.647 249.157C189.885 249.169 190.107 249.181 190.295 249.185C190.837 249.197 191.605 249.343 192.491 249.511C194.391 249.871 197.259 250.415 197.489 249.293C197.555 248.969 197.469 248.647 197.227 248.313C196.283 247.011 193.349 245.931 189.569 245.493C188.637 245.385 187.671 245.455 186.697 245.701C185.101 246.103 182.997 246.571 181.593 246.637L181.239 253.751C182.179 254.027 184.867 254.787 186.017 254.787C186.047 254.787 186.077 254.787 186.107 254.787H186.105Z" fill="#282828"/>
<path d="M134.303 274.17C134.081 275.72 135.711 284.856 134.315 285.506C131.231 286.946 123.873 286.522 115.491 286.424C111.637 286.378 102.597 286.554 98.8112 285.812L90.0412 284.948C88.8792 284.834 88.0252 283.808 88.1252 282.644L89.0192 272.108C90.2712 265.384 90.2452 254.118 90.1892 250.034C90.1752 249.066 89.9492 248.118 89.5272 247.254C85.2952 238.566 84.0992 228.048 86.9192 216.334C87.6992 213.092 89.8412 210.358 92.7952 208.994C92.8372 208.974 92.8752 208.958 92.9092 208.942C103.235 204.432 114.765 202.406 125.613 205.33C136.015 208.134 141.201 212.852 141.201 212.852C147.311 218.2 152.039 229.98 161.205 235.658C171.869 242.262 181.045 245.372 181.045 245.372L180.937 254.816C180.937 254.816 165.639 258.058 150.313 251.22C143.405 248.138 137.651 240.93 137.651 240.93C136.637 246.336 135.937 252.42 135.679 257.586L135.775 257.916C134.927 266.224 136.479 262.92 135.233 273.722L134.303 274.168V274.17Z" fill="white"/>
<path d="M125.064 287.004C123.336 287.004 121.452 286.97 119.446 286.932C118.162 286.908 116.838 286.884 115.488 286.868C114.736 286.86 113.786 286.858 112.716 286.858C108.376 286.858 101.816 286.854 98.7259 286.248L89.9979 285.39C88.6019 285.252 87.5619 284.004 87.6819 282.606L88.5759 272.07C89.8139 265.412 89.8059 254.448 89.7439 250.04C89.7319 249.148 89.5179 248.252 89.1279 247.448C84.6819 238.318 83.7679 227.522 86.4859 216.23C87.3139 212.788 89.5459 210.004 92.6099 208.59L92.7339 208.534C100.822 205 113.114 201.5 125.73 204.902C136.118 207.702 141.288 212.33 141.502 212.524C144 214.71 146.266 217.95 148.664 221.38C152.126 226.33 156.048 231.94 161.44 235.28C171.934 241.78 181.096 244.92 181.188 244.95C181.37 245.012 181.492 245.184 181.49 245.376L181.382 254.82C181.38 255.028 181.232 255.206 181.03 255.25C180.876 255.282 165.412 258.442 150.132 251.626C144.434 249.084 139.588 243.874 137.918 241.94C137.026 246.938 136.378 252.56 136.126 257.532L136.202 257.788C136.218 257.844 136.224 257.902 136.218 257.958C135.834 261.728 135.946 263.054 136.064 264.46C136.206 266.14 136.354 267.878 135.674 273.77C135.646 274.014 135.424 274.188 135.18 274.162C134.936 274.134 134.76 273.914 134.788 273.668C135.458 267.866 135.314 266.172 135.174 264.536C135.052 263.1 134.936 261.742 135.32 257.956L135.248 257.71C135.234 257.662 135.228 257.612 135.23 257.562C135.496 252.224 136.218 246.13 137.21 240.846C137.242 240.676 137.37 240.538 137.54 240.496C137.708 240.454 137.886 240.514 137.996 240.65C138.052 240.722 143.766 247.81 150.492 250.812C164.238 256.944 178.136 254.862 180.494 254.444L180.594 245.684C178.906 245.078 170.474 241.922 160.968 236.034C155.42 232.598 151.442 226.908 147.93 221.888C145.562 218.502 143.326 215.306 140.904 213.186C140.846 213.134 135.654 208.498 125.492 205.758C113.126 202.426 101.04 205.87 93.0819 209.348L92.9759 209.396C90.1619 210.694 88.1099 213.26 87.3459 216.436C84.6759 227.526 85.5679 238.114 89.9219 247.056C90.3699 247.976 90.6139 249.004 90.6279 250.026C90.6899 254.46 90.6979 265.494 89.4499 272.188L88.5619 282.68C88.4839 283.596 89.1659 284.414 90.0799 284.504L98.8499 285.368C101.896 285.964 108.404 285.966 112.712 285.968C113.786 285.968 114.738 285.968 115.494 285.978C116.846 285.994 118.172 286.018 119.458 286.042C125.988 286.162 131.63 286.266 134.124 285.102C134.754 284.672 134.278 279.808 134.076 277.732C133.91 276.026 133.778 274.678 133.86 274.104C133.894 273.86 134.118 273.692 134.364 273.726C134.608 273.76 134.776 273.986 134.742 274.23C134.676 274.698 134.814 276.13 134.962 277.644C135.482 282.966 135.538 285.422 134.5 285.906C132.598 286.794 129.292 287 125.06 287L125.064 287.004Z" fill="#282828"/>
<path d="M119.546 244.032C119.464 244.032 119.382 244.01 119.308 243.962C119.1 243.83 119.04 243.556 119.172 243.348L119.376 243.028C121.508 239.678 122.856 235.802 123.274 231.816C123.3 231.572 123.514 231.396 123.764 231.42C124.008 231.446 124.186 231.664 124.16 231.91C123.728 236.032 122.334 240.042 120.128 243.506L119.924 243.826C119.84 243.96 119.696 244.032 119.548 244.032H119.546Z" fill="#282828"/>
<path d="M290.129 118.957H134.341C134.341 118.957 133.653 415.773 133.695 417.681C133.863 425.275 168.915 431.343 212.331 431.343C255.747 431.343 290.607 425.315 290.917 417.727C291.067 414.047 290.127 118.957 290.127 118.957H290.129Z" fill="white"/>
<path d="M187.687 357.485L186.407 351.709C184.207 341.783 190.469 331.951 200.397 329.751L270.799 314.143C278.775 312.375 286.673 317.407 288.441 325.383L290.025 332.525C291.987 341.379 286.401 350.147 277.549 352.109L204.627 368.275C196.971 369.973 189.387 365.141 187.691 357.485H187.687Z" fill="white"/>
<path d="M201.547 369.057C194.833 369.057 188.763 364.401 187.251 357.579L185.971 351.803C184.881 346.887 185.771 341.839 188.477 337.591C191.183 333.343 195.381 330.403 200.299 329.313L270.701 313.705C278.907 311.885 287.055 317.081 288.873 325.283L290.457 332.425C292.469 341.505 286.721 350.527 277.641 352.539L204.719 368.705C203.657 368.941 202.593 369.053 201.547 369.053V369.057ZM188.119 357.387C189.761 364.793 197.121 369.479 204.525 367.839L277.447 351.673C281.613 350.749 285.169 348.259 287.463 344.661C289.755 341.063 290.511 336.785 289.587 332.619L288.003 325.477C286.291 317.755 278.613 312.863 270.893 314.575L200.491 330.183C195.807 331.221 191.807 334.023 189.227 338.069C186.649 342.115 185.801 346.925 186.839 351.609L188.119 357.385V357.387Z" fill="#282828"/>
<path d="M289.416 329.786C285.98 313.544 277.138 312.088 262.112 316.214L233.182 322.628L241.476 360.038L270.406 353.624C286.034 350.788 292.252 345.026 289.418 329.784L289.416 329.786Z" fill="#282828"/>
<path d="M283.725 331.59C283.521 331.59 283.337 331.448 283.291 331.242C281.657 323.874 268.247 321.108 264.513 321.934L257.783 323.426C257.541 323.482 257.305 323.328 257.253 323.088C257.199 322.848 257.351 322.61 257.591 322.558L264.321 321.066C268.383 320.164 282.381 323.03 284.161 331.05C284.215 331.29 284.063 331.528 283.823 331.58C283.791 331.588 283.757 331.59 283.727 331.59H283.725Z" fill="white"/>
<path d="M142.901 283.843L141.073 280.981C135.223 271.827 137.901 259.665 147.055 253.815L205.695 216.341C213.165 211.567 223.089 213.753 227.863 221.223L230.445 225.263C235.703 233.491 233.295 244.423 225.067 249.681L164.251 288.545C157.057 293.143 147.497 291.037 142.899 283.843H142.901Z" fill="white"/>
<path d="M229.61 223.959C220.806 209.883 210.344 213.533 199.306 220.589L174.336 236.547L194.97 268.835L219.94 252.879C230.978 245.825 237.506 237.303 229.61 223.961V223.959Z" fill="#282828"/>
<path d="M195.77 229.895C195.624 229.895 195.48 229.823 195.394 229.689C195.262 229.481 195.322 229.207 195.53 229.075L201.338 225.363C209.332 220.253 219.23 221.405 223.4 227.929C223.532 228.137 223.472 228.411 223.264 228.543C223.056 228.675 222.782 228.615 222.65 228.407C218.744 222.297 209.4 221.267 201.818 226.111L196.01 229.823C195.936 229.871 195.852 229.893 195.77 229.893V229.895Z" fill="white"/>
<path d="M155.573 291.908C154.515 291.908 153.451 291.794 152.395 291.56C148.575 290.718 145.311 288.44 143.205 285.144L140.019 280.16C134.421 271.4 136.993 259.718 145.753 254.118L206.517 215.286C213.597 210.762 223.037 212.842 227.561 219.92L231.499 226.084C236.507 233.92 234.205 244.37 226.369 249.376L163.431 289.598C161.047 291.122 158.337 291.908 155.573 291.908ZM214.697 213.784C212.055 213.784 209.381 214.512 206.995 216.038L146.231 254.87C137.883 260.204 135.433 271.334 140.767 279.682L143.953 284.666C145.931 287.762 148.997 289.902 152.585 290.692C156.173 291.482 159.855 290.828 162.951 288.85L225.889 248.628C233.311 243.884 235.491 233.988 230.747 226.564L226.809 220.4C224.075 216.122 219.433 213.782 214.697 213.782V213.784Z" fill="#282828"/>
<path d="M137.177 409.251L137.101 403.335C136.991 394.923 143.723 388.013 152.137 387.905L225.999 386.947C234.951 386.831 242.301 393.993 242.417 402.945L242.493 408.861C242.611 417.919 235.363 425.355 226.307 425.473L154.777 426.401C145.181 426.525 137.301 418.847 137.177 409.251Z" fill="white"/>
<path d="M154.546 426.847C149.874 426.847 145.468 425.057 142.116 421.789C138.706 418.467 136.794 414.017 136.734 409.257L136.658 403.341C136.546 394.697 143.488 387.573 152.132 387.459L225.994 386.501C230.444 386.443 234.646 388.121 237.832 391.225C241.018 394.329 242.804 398.489 242.862 402.937L242.938 408.853C242.996 413.353 241.3 417.605 238.158 420.827C235.018 424.049 230.81 425.857 226.312 425.915L154.782 426.843C154.702 426.843 154.624 426.843 154.544 426.843L154.546 426.847ZM137.622 409.245C137.742 418.505 145.314 425.957 154.548 425.957C154.622 425.957 154.696 425.957 154.77 425.957L226.3 425.029C230.562 424.973 234.546 423.263 237.522 420.209C240.496 417.157 242.104 413.129 242.048 408.867L241.972 402.951C241.918 398.741 240.226 394.803 237.21 391.865C234.194 388.927 230.2 387.337 226.004 387.393L152.142 388.351C148.192 388.403 144.498 389.989 141.742 392.817C138.986 395.647 137.496 399.379 137.546 403.329L137.622 409.245Z" fill="#282828"/>
<path d="M242.457 406.036C242.401 389.434 231.589 387.016 218.491 387.186L188.861 387.57L189.359 425.886L218.989 425.502C235.193 426.132 242.129 421.536 242.459 406.036H242.457Z" fill="#282828"/>
<path d="M289.268 390.069L287.918 395.829C285.808 404.827 276.802 410.409 267.806 408.299L194.048 390.999C187.156 389.383 182.878 382.485 184.496 375.593L187.116 364.425C188.912 356.771 196.572 352.021 204.226 353.817L277.44 370.989C285.976 372.991 291.274 381.535 289.272 390.071L289.268 390.069Z" fill="white"/>
<path d="M185.973 369.283C182.027 385.409 191.937 390.361 204.691 393.353L233.541 400.119L242.291 362.813L213.441 356.047C200.687 353.055 190.027 354.321 185.973 369.283Z" fill="#282828"/>
<path d="M213.51 390.151C213.476 390.151 213.442 390.147 213.408 390.139L206.698 388.565C202.224 387.515 198.354 385.123 195.802 381.831C193.228 378.509 192.286 374.649 193.15 370.965C193.206 370.725 193.444 370.577 193.684 370.633C193.924 370.689 194.072 370.929 194.016 371.167C193.214 374.585 194.098 378.179 196.504 381.285C198.93 384.417 202.622 386.695 206.9 387.699L213.61 389.273C213.85 389.329 213.998 389.569 213.942 389.807C213.894 390.013 213.712 390.151 213.51 390.151Z" fill="white"/>
<path d="M271.482 409.149C270.172 409.149 268.842 408.999 267.514 408.687L233.408 400.687C233.168 400.631 233.02 400.391 233.076 400.153C233.132 399.913 233.37 399.765 233.61 399.821L267.716 407.821C276.562 409.895 285.452 404.387 287.528 395.537L288.878 389.777C289.808 385.815 289.138 381.727 286.994 378.269C284.85 374.809 281.486 372.393 277.524 371.463L242.206 363.179C241.966 363.123 241.818 362.883 241.874 362.645C241.93 362.405 242.168 362.257 242.408 362.313L277.726 370.597C281.92 371.581 285.48 374.139 287.75 377.799C290.02 381.459 290.728 385.785 289.744 389.979L288.394 395.739C286.518 403.737 279.362 409.147 271.48 409.147L271.482 409.149Z" fill="#282828"/>
<path d="M233.509 400.701C233.475 400.701 233.441 400.697 233.407 400.689L196.301 391.985C192.223 391.029 188.761 388.541 186.553 384.981C184.345 381.421 183.657 377.213 184.613 373.135L186.187 366.421C188.307 357.383 197.383 351.755 206.421 353.875L242.407 362.315C242.647 362.371 242.795 362.611 242.739 362.849C242.683 363.089 242.445 363.237 242.205 363.181L206.219 354.741C197.659 352.731 189.063 358.063 187.055 366.623L185.481 373.337C184.579 377.185 185.229 381.153 187.311 384.511C189.393 387.869 192.659 390.215 196.507 391.119L233.613 399.823C233.853 399.879 234.001 400.119 233.945 400.357C233.897 400.563 233.715 400.701 233.513 400.701H233.509Z" fill="white"/>
<path d="M241.147 298.042L242.425 315.618C242.823 321.094 238.707 325.856 233.231 326.254L154.095 332.012C145.267 332.654 137.589 326.018 136.947 317.19L136.481 310.78C135.837 301.928 142.491 294.228 151.345 293.584L229.417 287.904C235.455 287.464 240.707 292.004 241.147 298.042Z" fill="white"/>
<path d="M152.909 332.498C148.959 332.498 145.183 331.096 142.163 328.488C138.835 325.61 136.825 321.61 136.507 317.222L136.041 310.812C135.721 306.412 137.133 302.15 140.019 298.812C142.903 295.474 146.917 293.46 151.317 293.14L229.389 287.46C232.433 287.242 235.371 288.214 237.677 290.208C239.983 292.2 241.373 294.972 241.595 298.01L242.873 315.586C243.075 318.352 242.187 321.032 240.373 323.132C238.559 325.23 236.037 326.498 233.269 326.698L154.133 332.456C153.725 332.486 153.317 332.5 152.913 332.5L152.909 332.498ZM230.231 288.318C229.973 288.318 229.713 288.328 229.451 288.346L151.379 294.026C147.215 294.328 143.419 296.234 140.691 299.392C137.961 302.55 136.625 306.582 136.929 310.744L137.395 317.154C137.697 321.306 139.597 325.09 142.747 327.812C145.895 330.534 149.919 331.87 154.067 331.564L233.203 325.806C235.733 325.622 238.039 324.464 239.699 322.544C241.357 320.626 242.169 318.176 241.985 315.646L240.707 298.07C240.503 295.268 239.221 292.712 237.095 290.876C235.167 289.21 232.755 288.314 230.233 288.314L230.231 288.318Z" fill="#282828"/>
<path d="M136.713 313.923C137.757 330.493 146.899 333.299 161.761 331.311L191.315 329.161L188.535 290.943L158.981 293.093C141.895 293.641 136.119 298.433 136.713 313.923Z" fill="#282828"/>
<path d="M160.704 326.201C151.912 326.201 144.594 320.689 144.064 313.389C144.046 313.143 144.23 312.931 144.476 312.913C144.726 312.899 144.934 313.079 144.952 313.325C145.478 320.557 153.204 325.913 162.182 325.259L169.056 324.759C169.304 324.743 169.514 324.925 169.532 325.171C169.55 325.417 169.366 325.629 169.12 325.647L162.246 326.147C161.728 326.185 161.214 326.203 160.706 326.203L160.704 326.201Z" fill="white"/>
<path d="M288.896 298.529L286.912 304.103C283.834 312.749 274.33 317.263 265.684 314.185L195.108 289.065C187.938 286.513 184.192 278.631 186.746 271.459L189.95 262.457C192.762 254.555 201.45 250.429 209.352 253.241L279.192 278.099C287.514 281.061 291.858 290.207 288.896 298.529Z" fill="white"/>
<path d="M188.596 266.259C182.878 281.845 192.176 287.869 204.518 292.264L232.436 302.199L245.286 266.099L217.368 256.164C205.026 251.772 194.292 251.841 188.596 266.259Z" fill="#282828"/>
<path d="M213.687 290.068C213.637 290.068 213.587 290.06 213.537 290.042L207.043 287.73C198.105 284.548 192.945 276.026 195.541 268.732C195.623 268.5 195.877 268.378 196.109 268.462C196.341 268.544 196.461 268.798 196.379 269.03C193.947 275.862 198.865 283.874 207.341 286.892L213.835 289.204C214.067 289.286 214.187 289.54 214.105 289.772C214.041 289.954 213.869 290.068 213.685 290.068H213.687Z" fill="white"/>
<path d="M232.388 302.778C232.338 302.778 232.288 302.77 232.238 302.752L197.192 290.278C188.57 287.21 184.052 277.696 187.12 269.074L189.244 263.108C192.292 254.546 201.736 250.058 210.3 253.106L245.454 265.618C245.686 265.7 245.806 265.954 245.724 266.186C245.642 266.418 245.388 266.538 245.156 266.456L210.002 253.944C206.078 252.548 201.846 252.762 198.082 254.55C194.32 256.338 191.478 259.482 190.082 263.406L187.958 269.372C185.054 277.532 189.33 286.534 197.49 289.44L232.536 301.914C232.768 301.996 232.888 302.25 232.806 302.482C232.742 302.664 232.57 302.778 232.386 302.778H232.388Z" fill="white"/>
<path d="M270.967 315.462C268.983 315.462 266.991 315.122 265.067 314.436L232.239 302.752C232.007 302.67 231.887 302.416 231.969 302.184C232.051 301.952 232.305 301.832 232.537 301.914L265.365 313.598C269.559 315.09 274.083 314.86 278.105 312.95C282.127 311.04 285.163 307.678 286.657 303.484L288.641 297.91C291.423 290.09 287.327 281.464 279.507 278.682L245.155 266.456C244.923 266.374 244.803 266.12 244.885 265.888C244.967 265.656 245.221 265.536 245.453 265.618L279.803 277.844C288.085 280.792 292.423 289.928 289.477 298.208L287.493 303.782C285.921 308.2 282.721 311.742 278.485 313.754C276.095 314.89 273.535 315.462 270.965 315.462H270.967Z" fill="#282828"/>
<path d="M134.604 149.115C162.05 154.947 271.106 153.961 289.6 148.643L290.314 189.207C262.974 198.569 149.306 196.845 134.604 191.565V149.113V149.115Z" fill="white"/>
<path d="M205.414 196.324C171.158 196.324 141.524 194.524 134.452 191.984C134.276 191.92 134.158 191.752 134.158 191.566V149.114C134.158 148.98 134.218 148.852 134.322 148.768C134.426 148.684 134.562 148.65 134.694 148.678C149.512 151.826 186.128 152.776 215.454 152.614C251.262 152.416 281.01 150.648 289.474 148.214C289.606 148.176 289.75 148.202 289.862 148.284C289.974 148.366 290.04 148.496 290.042 148.634L290.756 189.198C290.76 189.39 290.638 189.564 290.456 189.626C278.49 193.724 247.56 196.226 207.718 196.32C206.948 196.32 206.178 196.322 205.412 196.322L205.414 196.324ZM135.048 191.248C142.622 193.72 173.618 195.516 207.718 195.432C247.13 195.34 277.766 192.896 289.862 188.89L289.164 149.222C278.618 151.956 244.782 153.342 215.462 153.504C186.436 153.664 150.266 152.734 135.05 149.66V191.246L135.048 191.248Z" fill="#282828"/>
<path d="M212.334 431.647C168.166 431.647 133.428 425.393 133.252 417.407C133.21 415.515 133.868 130.519 133.896 118.387C133.896 118.141 134.096 117.943 134.34 117.943H290.128C290.374 117.943 290.572 118.141 290.572 118.387C290.61 130.445 291.51 413.741 291.362 417.389C291.036 425.383 256.32 431.645 212.332 431.645L212.334 431.647ZM134.786 118.833C134.756 131.895 134.102 415.541 134.142 417.387C134.284 423.843 165.738 430.755 212.334 430.755C258.93 430.755 290.21 423.825 290.476 417.351C290.622 413.789 289.728 131.847 289.686 118.831H134.786V118.833Z" fill="#282828"/>
<path d="M298.479 99.9258H124.365L124.469 131.208C124.443 131.284 124.425 131.522 124.425 131.6C124.425 135.782 162.769 139.794 211.033 139.794C259.297 139.794 298.423 136.444 298.423 132.262C298.423 132.15 298.389 131.738 298.335 131.628L298.481 99.9258H298.479Z" fill="url(#paint0_linear_1886_19456)"/>
<path d="M211.755 108.138C260.019 108.138 299.145 104.748 299.145 100.566C299.145 96.3842 260.019 92.9941 211.755 92.9941C163.491 92.9941 124.365 96.3842 124.365 100.566C124.365 104.748 163.491 108.138 211.755 108.138Z" fill="url(#paint1_linear_1886_19456)"/>
<path d="M211.756 108.585C188.4 108.585 166.442 107.797 149.924 106.365C123.922 104.111 123.922 101.443 123.922 100.567C123.922 99.6908 123.922 97.0228 149.924 94.7688C166.442 93.3368 188.402 92.5488 211.756 92.5488C235.11 92.5488 257.07 93.3368 273.588 94.7688C299.59 97.0228 299.59 99.6908 299.59 100.567C299.59 101.443 299.59 104.111 273.588 106.365C257.07 107.797 235.112 108.585 211.756 108.585ZM211.756 93.4388C188.426 93.4388 166.494 94.2268 150 95.6548C125.518 97.7768 124.81 100.287 124.81 100.567C124.81 100.847 125.516 103.357 150 105.479C166.494 106.909 188.426 107.695 211.756 107.695C235.086 107.695 257.018 106.907 273.512 105.479C297.994 103.357 298.702 100.847 298.702 100.567C298.702 100.287 297.996 97.7768 273.512 95.6548C257.018 94.2248 235.086 93.4388 211.756 93.4388Z" fill="white"/>
<path d="M131.326 105.975H129.694C129.174 105.975 128.752 106.396 128.752 106.917V131.539C128.752 132.059 129.174 132.481 129.694 132.481H131.326C131.846 132.481 132.268 132.059 132.268 131.539V106.917C132.268 106.396 131.846 105.975 131.326 105.975Z" fill="white"/>
<path d="M141.154 108.139H139.522C139.002 108.139 138.58 108.56 138.58 109.081V133.703C138.58 134.223 139.002 134.645 139.522 134.645H141.154C141.674 134.645 142.096 134.223 142.096 133.703V109.081C142.096 108.56 141.674 108.139 141.154 108.139Z" fill="white"/>
<path d="M150.89 109.221H149.258C148.738 109.221 148.316 109.642 148.316 110.163V134.785C148.316 135.305 148.738 135.727 149.258 135.727H150.89C151.411 135.727 151.832 135.305 151.832 134.785V110.163C151.832 109.642 151.411 109.221 150.89 109.221Z" fill="white"/>
<path d="M160.988 109.943H159.356C158.836 109.943 158.414 110.365 158.414 110.885V135.507C158.414 136.028 158.836 136.449 159.356 136.449H160.988C161.508 136.449 161.93 136.028 161.93 135.507V110.885C161.93 110.365 161.508 109.943 160.988 109.943Z" fill="white"/>
<path d="M171.265 110.482H169.633C169.113 110.482 168.691 110.904 168.691 111.424V136.046C168.691 136.567 169.113 136.988 169.633 136.988H171.265C171.786 136.988 172.207 136.567 172.207 136.046V111.424C172.207 110.904 171.786 110.482 171.265 110.482Z" fill="white"/>
<path d="M181.002 111.025H179.37C178.849 111.025 178.428 111.447 178.428 111.967V136.589C178.428 137.11 178.849 137.531 179.37 137.531H181.002C181.522 137.531 181.944 137.11 181.944 136.589V111.967C181.944 111.447 181.522 111.025 181.002 111.025Z" fill="white"/>
<path d="M190.738 111.385H189.106C188.586 111.385 188.164 111.807 188.164 112.327V136.949C188.164 137.469 188.586 137.891 189.106 137.891H190.738C191.258 137.891 191.68 137.469 191.68 136.949V112.327C191.68 111.807 191.258 111.385 190.738 111.385Z" fill="white"/>
<path d="M201.377 111.205H199.745C199.224 111.205 198.803 111.627 198.803 112.147V136.769C198.803 137.289 199.224 137.711 199.745 137.711H201.377C201.897 137.711 202.319 137.289 202.319 136.769V112.147C202.319 111.627 201.897 111.205 201.377 111.205Z" fill="white"/>
<path d="M213.095 111.385H211.463C210.943 111.385 210.521 111.807 210.521 112.327V136.949C210.521 137.469 210.943 137.891 211.463 137.891H213.095C213.616 137.891 214.037 137.469 214.037 136.949V112.327C214.037 111.807 213.616 111.385 213.095 111.385Z" fill="white"/>
<path d="M294.054 105.795H292.422C291.902 105.795 291.48 106.217 291.48 106.737V131.359C291.48 131.879 291.902 132.301 292.422 132.301H294.054C294.575 132.301 294.996 131.879 294.996 131.359V106.737C294.996 106.217 294.575 105.795 294.054 105.795Z" fill="white"/>
<path d="M284.228 107.959H282.596C282.076 107.959 281.654 108.381 281.654 108.901V133.523C281.654 134.043 282.076 134.465 282.596 134.465H284.228C284.749 134.465 285.17 134.043 285.17 133.523V108.901C285.17 108.381 284.749 107.959 284.228 107.959Z" fill="white"/>
<path d="M274.492 109.041H272.86C272.34 109.041 271.918 109.463 271.918 109.983V134.605C271.918 135.125 272.34 135.547 272.86 135.547H274.492C275.012 135.547 275.434 135.125 275.434 134.605V109.983C275.434 109.463 275.012 109.041 274.492 109.041Z" fill="white"/>
<path d="M264.394 109.764H262.762C262.242 109.764 261.82 110.185 261.82 110.706V135.328C261.82 135.848 262.242 136.27 262.762 136.27H264.394C264.915 136.27 265.336 135.848 265.336 135.328V110.706C265.336 110.185 264.915 109.764 264.394 109.764Z" fill="white"/>
<path d="M254.115 110.303H252.483C251.963 110.303 251.541 110.724 251.541 111.245V135.867C251.541 136.387 251.963 136.809 252.483 136.809H254.115C254.635 136.809 255.057 136.387 255.057 135.867V111.245C255.057 110.724 254.635 110.303 254.115 110.303Z" fill="white"/>
<path d="M244.381 110.844H242.749C242.228 110.844 241.807 111.265 241.807 111.786V136.408C241.807 136.928 242.228 137.35 242.749 137.35H244.381C244.901 137.35 245.323 136.928 245.323 136.408V111.786C245.323 111.265 244.901 110.844 244.381 110.844Z" fill="white"/>
<path d="M234.644 111.205H233.012C232.492 111.205 232.07 111.627 232.07 112.147V136.769C232.07 137.289 232.492 137.711 233.012 137.711H234.644C235.165 137.711 235.586 137.289 235.586 136.769V112.147C235.586 111.627 235.165 111.205 234.644 111.205Z" fill="white"/>
<path d="M224.006 111.023H222.374C221.853 111.023 221.432 111.445 221.432 111.965V136.587C221.432 137.108 221.853 137.529 222.374 137.529H224.006C224.526 137.529 224.948 137.108 224.948 136.587V111.965C224.948 111.445 224.526 111.023 224.006 111.023Z" fill="white"/>
<path d="M211.042 140.329C188.072 140.329 166.252 139.447 149.6 137.843C132.61 136.209 123.996 134.169 123.996 131.779C123.996 131.653 124.028 131.557 124.054 131.487L123.982 100.649C123.982 100.403 124.18 100.203 124.426 100.203C124.672 100.203 124.87 100.401 124.87 100.647L124.942 131.567C124.942 131.617 124.934 131.665 124.918 131.713L124.89 131.787C124.882 132.065 125.578 134.637 149.682 136.955C166.308 138.555 188.098 139.437 211.04 139.437C233.982 139.437 256.298 138.649 272.794 137.219C297.274 135.095 297.982 132.585 297.982 132.305C297.978 132.291 297.954 132.241 297.938 132.211C297.906 132.149 297.89 132.079 297.89 132.009L298.034 100.647C298.034 100.401 298.234 100.205 298.478 100.205H298.48C298.726 100.205 298.924 100.407 298.922 100.651L298.778 131.909C298.826 132.015 298.868 132.139 298.868 132.305C298.868 133.181 298.868 135.851 272.868 138.105C256.348 139.539 234.388 140.327 211.038 140.327L211.042 140.329Z" fill="url(#paint2_linear_1886_19456)"/>
<path d="M156.346 264.986C156.346 264.986 160.656 265.594 162.12 266.302C163.584 267.01 167.908 269.048 168.278 270.016C168.65 270.984 167.236 272.008 164.356 270.724C162.748 270.006 161.702 269.638 161.094 269.456C160.89 269.394 160.734 269.648 160.884 269.808C161.68 270.658 163.322 272.294 164.686 272.904C166.562 273.742 171.872 275.526 171.34 277.908C170.858 280.064 166.588 280.25 161.084 278.386C160.018 278.024 159.032 277.45 158.156 276.726C156.784 275.592 154.544 273.826 153.166 273.21L156.344 264.99L156.346 264.986Z" fill="white"/>
<path d="M167.628 280.107C165.798 280.107 163.486 279.667 160.944 278.807C159.858 278.439 158.826 277.855 157.876 277.067C156.632 276.037 154.344 274.221 152.988 273.615C152.772 273.519 152.67 273.269 152.754 273.049L155.932 264.829C156.006 264.637 156.206 264.523 156.41 264.549C156.588 264.575 160.806 265.175 162.316 265.905L162.568 266.027C165.998 267.679 168.352 268.961 168.696 269.859C168.886 270.353 168.766 270.871 168.374 271.241C167.582 271.993 166.012 271.951 164.178 271.131C163.212 270.699 162.454 270.397 161.878 270.187C162.69 270.989 163.878 272.053 164.87 272.495C165.12 272.607 165.434 272.737 165.786 272.881C168.23 273.889 172.318 275.577 171.776 278.001C171.636 278.627 171.228 279.145 170.598 279.501C169.878 279.905 168.862 280.105 167.63 280.105L167.628 280.107ZM153.73 272.989C155.102 273.709 157.018 275.203 158.442 276.381C159.308 277.097 160.246 277.631 161.228 277.963C165.188 279.305 168.612 279.597 170.16 278.727C170.576 278.493 170.82 278.193 170.906 277.809C171.284 276.115 167.486 274.547 165.444 273.705C165.082 273.555 164.762 273.423 164.504 273.309C163.084 272.675 161.422 271.033 160.558 270.111C160.35 269.891 160.32 269.569 160.478 269.311C160.636 269.055 160.934 268.943 161.22 269.029C161.826 269.211 162.892 269.583 164.536 270.317C166.42 271.159 167.448 270.887 167.758 270.593C167.888 270.471 167.922 270.333 167.86 270.175C167.728 269.833 166.636 268.973 162.176 266.825L161.922 266.703C160.772 266.147 157.672 265.639 156.628 265.479L153.724 272.987L153.73 272.989Z" fill="#282828"/>
<path d="M101.108 225.829C103.566 227.983 105.632 230.541 107.23 233.391C109.16 236.833 112.128 241.621 115.066 244.371C122.01 250.871 125.704 253.335 133.762 257.023C138.314 259.107 143.024 260.809 147.838 262.125L156.526 264.499L152.264 274.941C130.14 274.595 123.312 273.267 110.56 267.325C100.624 262.695 78.0003 246.481 87.4883 213.885L101.108 225.829Z" fill="white"/>
<path d="M152.264 275.386H152.258C130.354 275.044 123.308 273.756 110.372 267.728C107.138 266.222 96.0864 260.372 89.5864 248.354C89.4704 248.138 89.5504 247.868 89.7664 247.752C89.9824 247.634 90.2524 247.716 90.3684 247.932C96.7384 259.71 107.576 265.446 110.746 266.922C123.478 272.854 130.46 274.146 151.966 274.492L155.922 264.796L147.72 262.554C142.872 261.228 138.112 259.504 133.576 257.428C125.378 253.676 121.686 251.178 114.762 244.696C111.798 241.922 108.82 237.136 106.842 233.61C106.722 233.396 106.798 233.124 107.012 233.004C107.226 232.884 107.498 232.96 107.618 233.174C109.564 236.646 112.49 241.35 115.37 244.046C122.21 250.448 125.856 252.916 133.946 256.618C138.438 258.674 143.152 260.382 147.954 261.694L156.642 264.068C156.764 264.102 156.868 264.186 156.924 264.3C156.98 264.414 156.986 264.548 156.936 264.664L152.674 275.106C152.606 275.274 152.442 275.382 152.262 275.382L152.264 275.386Z" fill="#282828"/>
<path d="M128.22 190.503C128.644 191.237 127.77 192.661 127.76 192.659C127.746 192.655 128.18 188.489 130.5 187.435C131.844 186.825 132.54 187.841 134.544 187.565C136.672 187.273 139.014 185.693 139.892 183.385C140.952 180.597 139.424 177.941 138.46 176.265C137.502 174.599 136.28 172.743 134.164 171.943C131.404 170.899 130.25 172.503 127.09 171.517C124.52 170.717 124.708 169.477 122.42 168.825C120.514 168.283 115.018 168.591 113.788 171.517C113.008 173.373 114.69 174.503 113.852 177.253C113.348 178.903 112.556 179.107 111.978 180.381C110.546 183.543 112.342 189.099 115.76 190.959C120.4 193.485 127.214 188.763 128.22 190.501V190.503Z" fill="#282828"/>
<path d="M126.232 192.739L127.312 201.611C127.518 203.301 128.734 204.693 130.378 205.121L133.488 206.115C134.094 206.309 134.216 207.125 133.684 207.475C125.826 212.629 114.986 212.537 107.464 206.825L106.584 206.157C106 205.713 106.2 204.787 106.918 204.627L110.766 203.767C112.392 203.403 113.642 202.099 113.938 200.457L116.292 187.387L126.234 192.741L126.232 192.739Z" fill="white"/>
<path d="M120.936 211.687C116.014 211.687 111.14 210.177 107.192 207.179L106.312 206.511C105.902 206.199 105.716 205.693 105.826 205.191C105.936 204.689 106.316 204.305 106.818 204.193L110.666 203.333C112.122 203.007 113.232 201.847 113.498 200.377L115.852 187.307C115.878 187.167 115.968 187.047 116.096 186.985C116.224 186.923 116.374 186.927 116.5 186.995L126.442 192.349C126.57 192.417 126.656 192.543 126.672 192.687L127.752 201.559C127.936 203.077 129.012 204.307 130.49 204.693L133.622 205.693C134.07 205.837 134.388 206.217 134.452 206.685C134.516 207.149 134.314 207.593 133.926 207.849C130.016 210.415 125.456 211.689 120.936 211.689V211.687ZM116.616 188.067L114.372 200.533C114.044 202.357 112.664 203.795 110.858 204.199L107.01 205.059C106.768 205.113 106.706 205.317 106.694 205.377C106.68 205.439 106.652 205.649 106.85 205.799L107.73 206.467C115.006 211.995 125.578 212.255 133.436 207.101C133.58 207.007 133.578 206.861 133.57 206.801C133.564 206.753 133.528 206.593 133.35 206.537L130.24 205.543C128.43 205.071 127.096 203.545 126.868 201.663L125.816 193.019L116.616 188.065V188.067Z" fill="#282828"/>
<path d="M117.421 189.187C117.421 189.187 113.923 187.867 115.237 184.973C116.551 182.079 118.689 184.215 118.689 184.215C118.689 184.215 120.677 177.085 124.851 179.897C129.027 182.709 132.981 183.731 132.981 183.731C132.981 183.731 131.511 190.905 128.869 195.679C127.277 198.559 125.257 200.565 122.879 199.597C116.367 196.949 117.419 189.185 117.419 189.185L117.421 189.187Z" fill="white"/>
<path d="M124.104 200.295C123.644 200.295 123.18 200.199 122.712 200.009C116.752 197.585 116.838 191.027 116.948 189.463C116.38 189.187 115.2 188.497 114.714 187.317C114.388 186.529 114.428 185.677 114.832 184.787C115.294 183.767 115.92 183.179 116.688 183.039C117.386 182.913 118.03 183.199 118.46 183.473C118.89 182.269 120.012 179.687 121.936 178.977C122.944 178.605 124.006 178.791 125.098 179.525C129.156 182.257 133.052 183.287 133.092 183.297C133.322 183.357 133.464 183.585 133.416 183.817C133.356 184.113 131.902 191.113 129.258 195.891C127.638 198.817 125.91 200.291 124.104 200.291V200.295ZM117.038 183.899C116.974 183.899 116.908 183.905 116.844 183.917C116.38 184.003 115.976 184.419 115.642 185.155C115.34 185.821 115.304 186.415 115.534 186.975C116.024 188.165 117.562 188.763 117.578 188.769C117.77 188.843 117.888 189.039 117.862 189.245C117.822 189.549 116.94 196.701 123.048 199.185C124.874 199.927 126.704 198.677 128.48 195.465C130.702 191.447 132.104 185.617 132.458 184.045C131.328 183.705 128.06 182.595 124.602 180.267C123.75 179.693 122.978 179.545 122.244 179.817C120.184 180.577 119.126 184.297 119.116 184.335C119.074 184.487 118.954 184.605 118.8 184.645C118.646 184.685 118.484 184.641 118.372 184.529C118.366 184.523 117.726 183.899 117.038 183.899Z" fill="#282828"/>
<path d="M89.9773 248.589C89.8193 248.589 89.6653 248.505 89.5853 248.355C85.9913 241.709 82.7433 230.235 87.6713 213.303C87.7393 213.067 87.9873 212.931 88.2233 213.001C88.4593 213.069 88.5953 213.317 88.5253 213.553C83.6813 230.195 86.8533 241.435 90.3673 247.933C90.4833 248.149 90.4033 248.419 90.1873 248.535C90.1193 248.571 90.0473 248.589 89.9753 248.589H89.9773Z" fill="#282828"/>
<path d="M357.809 404.82L358.185 417.258L365.481 417.118L366.755 403.914L357.809 404.82Z" fill="white"/>
<path d="M358.185 417.701C357.945 417.701 357.747 417.511 357.741 417.269L357.367 404.831C357.361 404.597 357.535 404.399 357.767 404.375L366.713 403.471C366.845 403.457 366.977 403.505 367.071 403.599C367.165 403.693 367.213 403.825 367.201 403.957L365.927 417.159C365.905 417.383 365.719 417.557 365.493 417.561L358.197 417.701H358.189H358.185ZM358.267 405.219L358.617 416.803L365.077 416.679L366.261 404.411L358.267 405.219Z" fill="#282828"/>
<path d="M367.953 422.238C368.421 421.854 368.669 421.26 368.625 420.656C368.489 418.84 368.105 414.98 367.227 413.602C366.063 411.776 362.333 414.862 362.333 414.862C362.333 414.862 359.663 411.854 358.223 411.31C357.477 411.028 353.605 414.212 349.799 418.404C345.629 422.998 343.691 424.524 343.063 428.184C342.767 429.902 344.165 431.458 345.907 431.406C350.151 431.282 358.603 429.918 367.953 422.236V422.238Z" fill="white"/>
<path d="M345.826 431.855C344.882 431.855 343.992 431.449 343.368 430.729C342.736 430.001 342.466 429.047 342.628 428.111C343.18 424.899 344.678 423.285 347.664 420.071C348.214 419.479 348.816 418.831 349.474 418.107C351.328 416.063 356.946 410.355 358.384 410.895C359.636 411.369 361.646 413.457 362.386 414.257C363.164 413.669 365.042 412.383 366.442 412.605C366.936 412.683 367.338 412.945 367.606 413.363C368.516 414.789 368.916 418.523 369.072 420.623C369.128 421.375 368.816 422.109 368.24 422.583C358.776 430.357 350.198 431.729 345.926 431.855C345.894 431.855 345.862 431.855 345.83 431.855H345.826ZM358.098 411.739C357.47 411.787 354.24 414.177 350.13 418.705C349.47 419.431 348.866 420.083 348.314 420.677C345.358 423.859 344.01 425.311 343.502 428.263C343.386 428.935 343.582 429.623 344.038 430.147C344.508 430.687 345.172 430.989 345.894 430.965C350.052 430.843 358.412 429.503 367.67 421.895C368.024 421.605 368.214 421.153 368.18 420.689C367.924 417.259 367.438 414.763 366.85 413.841C366.718 413.635 366.544 413.523 366.3 413.483C365.192 413.307 363.266 414.667 362.616 415.205C362.432 415.357 362.158 415.337 362 415.157C361.284 414.351 359.202 412.181 358.098 411.737V411.739Z" fill="#282828"/>
<path d="M346.654 428.619C345.982 428.619 345.6 428.582 345.58 428.58C345.336 428.554 345.158 428.336 345.184 428.092C345.21 427.848 345.424 427.666 345.672 427.694C345.776 427.704 356.088 428.641 365.684 420.015C365.866 419.851 366.148 419.865 366.312 420.049C366.476 420.231 366.462 420.512 366.278 420.676C358.208 427.93 349.616 428.619 346.654 428.619Z" fill="#282828"/>
<path d="M388.367 396.587L390.353 412.049L395.887 412.087L396.911 395.127L388.367 396.587Z" fill="white"/>
<path d="M395.889 412.532H395.885L390.349 412.494C390.127 412.494 389.939 412.326 389.911 412.106L387.927 396.644C387.897 396.408 388.059 396.188 388.293 396.148L396.835 394.69C396.969 394.668 397.105 394.706 397.207 394.798C397.307 394.888 397.363 395.02 397.353 395.156L396.331 412.114C396.317 412.35 396.121 412.532 395.887 412.532H395.889ZM390.745 411.606L395.471 411.638L396.433 395.66L388.865 396.952L390.745 411.606Z" fill="#282828"/>
<path d="M388.153 416.079L387.375 407.583C387.375 407.583 388.817 404.835 391.361 406.693C391.361 406.693 392.647 404.441 395.613 405.637C396.733 406.089 397.665 406.909 398.331 407.915C400.155 410.665 404.925 417.959 407.421 422.745C408.257 424.349 407.821 427.173 405.413 427.517C401.917 428.017 399.515 427.049 397.959 426.211C395.527 424.903 391.139 420.445 389.219 418.429C388.607 417.787 388.233 416.961 388.153 416.079Z" fill="white"/>
<path d="M403.527 428.099C400.887 428.099 399.009 427.281 397.751 426.603C395.333 425.301 391.167 421.115 388.899 418.735C388.223 418.025 387.802 417.095 387.712 416.119L386.934 407.623C386.926 407.537 386.944 407.451 386.984 407.375C387.014 407.319 387.727 405.983 389.081 405.667C389.787 405.501 390.521 405.645 391.263 406.089C391.839 405.425 393.304 404.221 395.784 405.223C396.946 405.693 397.958 406.537 398.708 407.667C400.618 410.547 405.331 417.761 407.821 422.537C408.405 423.659 408.412 425.165 407.836 426.289C407.362 427.215 406.526 427.805 405.482 427.955C404.79 428.055 404.139 428.097 403.531 428.097L403.527 428.099ZM388.597 416.039C388.669 416.817 389.005 417.557 389.543 418.123C391.339 420.007 395.777 424.531 398.173 425.821C399.611 426.595 401.921 427.567 405.353 427.077C406.313 426.939 406.801 426.353 407.041 425.885C407.485 425.021 407.479 423.815 407.029 422.951C404.559 418.211 399.865 411.029 397.963 408.161C397.313 407.181 396.443 406.451 395.449 406.049C392.871 405.009 391.793 406.835 391.749 406.913C391.687 407.023 391.579 407.101 391.455 407.127C391.331 407.153 391.201 407.127 391.099 407.051C390.451 406.579 389.839 406.405 389.279 406.535C388.513 406.713 388.001 407.419 387.831 407.685L388.597 416.037V416.039Z" fill="#282828"/>
<path d="M402.645 424.967C400.645 424.967 398.541 423.929 397.459 423.305C395.547 422.203 392.521 419.159 390.319 416.799C390.151 416.619 390.161 416.337 390.341 416.171C390.521 416.003 390.803 416.013 390.971 416.193C393.131 418.509 396.087 421.489 397.905 422.535C399.087 423.217 403.099 425.269 405.105 423.087C405.271 422.907 405.555 422.895 405.733 423.061C405.913 423.227 405.925 423.509 405.759 423.689C404.893 424.631 403.787 424.967 402.647 424.967H402.645Z" fill="#282828"/>
<path d="M391.824 411.712C391.598 411.712 391.404 411.542 391.382 411.312L390.922 406.736C390.898 406.492 391.076 406.274 391.32 406.248C391.568 406.224 391.784 406.402 391.808 406.646L392.268 411.222C392.292 411.466 392.114 411.684 391.87 411.71C391.854 411.71 391.84 411.712 391.824 411.712Z" fill="#282828"/>
<path d="M358.576 406.097C356.912 406.035 355.526 404.805 355.276 403.161C354.058 395.159 350.562 369.893 351.02 346.397C351.572 318.015 360.126 276.701 360.126 276.701C360.126 276.701 373.622 274.715 383.626 275.043C393.63 275.371 397.398 273.611 397.398 273.611C397.398 273.611 405.62 281.303 406.622 297.223C407.578 312.417 399.208 394.955 399.208 394.955C399.208 394.955 398.894 398.005 396.796 398.693C394.99 399.285 392.466 400.141 389.394 400.287C387.688 400.369 386.236 399.045 386.122 397.339L380.444 311.929C380.42 311.557 379.89 311.513 379.806 311.875C378.582 317.231 375.406 331.579 374.024 341.977C373.24 347.875 371.786 352.697 370.648 355.821C369.63 358.611 369.228 361.585 369.436 364.547C369.976 372.233 370.626 387.873 368.474 402.269C368.274 403.611 367.318 404.715 366.014 405.095C364.226 405.615 361.498 406.205 358.576 406.095V406.097Z" fill="#282828"/>
<path d="M391.547 356.676C390.683 356.676 390.099 356.592 390.031 356.582C389.789 356.546 389.621 356.32 389.657 356.076C389.693 355.834 389.921 355.666 390.163 355.702C390.209 355.71 394.783 356.352 397.605 353.78C397.787 353.614 398.069 353.628 398.233 353.81C398.399 353.992 398.385 354.274 398.203 354.438C396.111 356.344 393.269 356.676 391.545 356.676H391.547Z" fill="white"/>
<path d="M374.4 186.62C378.502 181.9 384.778 180.74 389.558 181.89C395.608 183.344 398.792 188.442 401.036 192.036C405.006 198.39 403.256 200.79 406.336 204.458C411.79 210.954 419.892 206.542 426.438 211.208C436.424 218.328 438.522 243.46 425.61 253.45C416.998 260.112 404.906 256.782 401.616 255.876C391.63 253.126 379.062 244.982 376.942 233.488C375.19 223.982 381.238 215.844 375.728 208.002C374.324 206.004 373.196 205.486 372.122 202.966C370.378 198.876 369.8 191.916 374.402 186.62H374.4Z" fill="#282828"/>
<path d="M387.617 187.952C385.327 186.208 386.577 180.818 387.919 177.888C388.421 176.79 390.673 171.88 393.833 171.97C397.079 172.064 400.349 177.408 399.323 181.752C398.043 187.184 390.301 189.994 387.617 187.95V187.952Z" fill="#282828"/>
<path d="M406.093 220.444C406.093 220.444 397.021 217.236 386.235 216.14C380.907 215.598 375.159 215.908 369.879 216.716C354.007 219.146 370.699 278.704 370.699 278.704L390.417 279.912C390.417 279.912 404.005 243.242 406.095 220.446L406.093 220.444Z" fill="white"/>
<path d="M390.415 280.356C390.415 280.356 390.397 280.356 390.387 280.356L370.669 279.148C370.481 279.136 370.319 279.006 370.267 278.824C369.731 276.91 357.229 231.83 365.245 219.398C366.395 217.614 367.931 216.564 369.807 216.276C375.591 215.39 381.285 215.19 386.277 215.698C396.993 216.786 406.147 219.994 406.239 220.026C406.431 220.094 406.553 220.284 406.535 220.486C404.463 243.08 390.967 279.698 390.831 280.066C390.767 280.242 390.599 280.356 390.413 280.356H390.415ZM371.043 278.28L390.113 279.448C391.423 275.858 403.559 242.146 405.619 220.754C403.901 220.18 395.663 217.546 386.191 216.584C381.273 216.084 375.657 216.282 369.947 217.156C368.311 217.406 367.019 218.298 365.997 219.88C358.529 231.46 369.939 274.232 371.043 278.278V278.28Z" fill="#282828"/>
<path d="M386.343 246.806C388.679 238.92 397.881 226.39 403.339 219.408C406.383 220.468 408.361 221.35 408.361 221.35L406.793 243.11C406.793 243.11 415.535 337.636 412.531 341C410.915 342.81 406.797 344.18 400.317 343.466C392.969 342.656 390.039 341.23 386.483 340.264C385.669 318.954 383.545 256.248 386.343 246.806Z" fill="white"/>
<path d="M356.72 259.013C357.942 253.209 359.144 247.343 360.32 241.415C361.938 233.259 364.92 217.217 364.92 217.217C364.92 217.217 367.618 216.543 371.9 216.061C373.884 223.011 378.452 241.673 377.472 263.281C376.922 275.405 372.152 323.131 370.46 339.833C360.324 341.007 349.608 343.469 346.636 341.425C344.098 339.681 352.952 274.349 356.718 259.015L356.72 259.013Z" fill="white"/>
<path d="M323.743 205.34C323.743 205.34 320.515 197.586 319.525 195.534C318.399 193.2 322.775 194.6 325.867 201.898L323.743 205.34Z" fill="white"/>
<path d="M323.742 205.786C323.73 205.786 323.718 205.786 323.706 205.786C323.54 205.772 323.394 205.668 323.33 205.514C323.298 205.436 320.094 197.748 319.122 195.73C318.848 195.162 318.824 194.712 319.048 194.392C319.15 194.246 319.394 194.01 319.898 194.062C321.166 194.198 324.016 196.398 326.274 201.726C326.33 201.858 326.318 202.01 326.242 202.134L324.118 205.576C324.036 205.708 323.892 205.788 323.74 205.788L323.742 205.786ZM319.79 194.938C319.798 195.01 319.83 195.144 319.926 195.342C320.732 197.012 322.966 202.328 323.82 204.37L325.366 201.862C323.188 196.842 320.502 194.936 319.8 194.936C319.796 194.936 319.792 194.936 319.79 194.936V194.938Z" fill="#282828"/>
<path d="M323.755 204.074C323.591 204.346 323.423 204.618 323.243 204.878C322.937 205.32 322.287 206.432 322.647 207.49C322.997 208.522 325.473 211.82 326.651 213.356C327.055 213.882 327.433 225.352 327.433 225.352L335.699 224.964C335.699 224.964 332.211 215.536 332.557 214.398C333.197 212.29 333.701 210.198 333.871 208.718C334.373 204.334 331.923 201.024 331.021 200.756C330.119 200.488 329.117 201.994 329.117 201.994C329.117 201.994 327.927 199.738 326.467 199.986C325.701 200.116 325.677 200.92 325.289 201.53L323.759 204.072L323.755 204.074Z" fill="white"/>
<path d="M327.432 225.797C327.32 225.797 327.212 225.755 327.13 225.679C327.042 225.599 326.992 225.485 326.988 225.367C326.816 220.147 326.508 214.289 326.272 213.593C324.608 211.423 322.568 208.643 322.224 207.633C321.8 206.379 322.538 205.111 322.876 204.623C323.056 204.363 323.222 204.093 323.372 203.843L324.902 201.301C325.004 201.139 325.078 200.963 325.156 200.775C325.358 200.287 325.612 199.681 326.386 199.547C327.628 199.335 328.644 200.489 329.154 201.221C329.602 200.723 330.354 200.095 331.142 200.329C332.362 200.693 334.824 204.257 334.308 208.769C334.146 210.193 333.672 212.237 332.978 214.527C332.816 215.219 334.444 220.299 336.112 224.809C336.162 224.941 336.144 225.091 336.066 225.209C335.988 225.327 335.858 225.401 335.716 225.407L327.45 225.795C327.45 225.795 327.436 225.795 327.43 225.795L327.432 225.797ZM324.136 204.301C323.976 204.565 323.802 204.849 323.608 205.131C323.348 205.507 322.772 206.475 323.068 207.347C323.3 208.029 324.772 210.173 327.004 213.085C327.398 213.597 327.686 219.681 327.862 224.887L335.072 224.549C334.076 221.825 331.796 215.371 332.13 214.271C332.81 212.031 333.27 210.043 333.428 208.671C333.902 204.531 331.594 201.395 330.892 201.185C330.5 201.067 329.818 201.747 329.486 202.243C329.4 202.373 329.26 202.449 329.094 202.441C328.938 202.433 328.796 202.343 328.724 202.205C328.434 201.657 327.486 200.265 326.542 200.429C326.274 200.475 326.18 200.645 325.984 201.121C325.9 201.325 325.802 201.555 325.664 201.773L324.14 204.305L324.136 204.301Z" fill="#282828"/>
<path d="M327.766 210.318C327.68 210.318 327.596 210.312 327.514 210.298C326.82 210.188 326.316 209.636 326.2 208.86C325.952 207.23 326.708 206.052 326.742 206.002C326.876 205.796 327.154 205.738 327.358 205.874C327.564 206.008 327.62 206.284 327.486 206.49C327.482 206.498 326.886 207.444 327.08 208.726C327.14 209.118 327.35 209.37 327.656 209.418C328.154 209.496 328.928 209.046 329.526 207.858C330.596 205.734 328.664 202.098 328.646 202.062C328.53 201.846 328.61 201.576 328.828 201.46C329.044 201.342 329.314 201.424 329.43 201.64C329.52 201.806 331.598 205.724 330.322 208.258C329.554 209.784 328.542 210.316 327.768 210.316L327.766 210.318Z" fill="#282828"/>
<path d="M335.148 218.705C331.928 219.419 328.356 220.533 325.698 222.007C324.908 225.941 325.142 232.883 328.354 241.561C329.686 245.161 331.254 249.397 334.748 251.653C341.43 255.969 355.146 253.579 366.11 243.381C366.214 235.167 364.816 225.429 364.92 217.217C362.058 218.191 359.508 219.909 357.53 222.195L354.068 226.195C350.962 231.801 346.794 235.653 343.596 234.949C340.984 234.373 339.554 230.635 336.694 223.159C335.22 219.303 335.782 221.099 335.148 218.707V218.705Z" fill="white"/>
<path d="M350.712 342.646C348.784 342.646 347.284 342.406 346.386 341.79C345.998 341.524 345.276 341.028 346.17 329.932C346.676 323.646 347.612 315.114 348.874 305.258C351.384 285.672 354.502 266.18 356.288 258.908C356.878 256.108 357.502 253.09 358.19 249.72C349.414 254.628 339.994 255.572 334.506 252.028C330.89 249.692 329.252 245.27 327.938 241.716C323.936 230.906 324.878 223.83 325.262 221.92C325.288 221.792 325.368 221.682 325.482 221.618C328.682 219.842 332.85 218.758 335.052 218.27C335.284 218.218 335.518 218.36 335.578 218.59C335.688 219.01 335.764 219.3 335.818 219.516C335.918 219.906 336.045 220.292 336.198 220.676C336.358 221.074 336.624 221.732 337.108 222.998C339.906 230.316 341.312 233.988 343.69 234.512C346.494 235.13 350.508 231.7 353.678 225.978C353.694 225.952 353.71 225.926 353.73 225.902L357.192 221.904C359.22 219.56 361.842 217.794 364.776 216.796C364.84 216.778 367.588 216.1 371.85 215.618C372.066 215.592 372.268 215.73 372.328 215.938C374.334 222.972 378.898 241.664 377.918 263.3C377.378 275.22 372.834 320.822 370.904 339.876C370.882 340.084 370.72 340.25 370.512 340.274C367.85 340.582 365.154 340.978 362.55 341.362C357.982 342.034 353.798 342.648 350.712 342.648V342.646ZM358.824 248.396C358.914 248.396 359.006 248.424 359.082 248.478C359.226 248.58 359.294 248.756 359.26 248.93C358.494 252.696 357.806 256.024 357.156 259.104C355.398 266.264 352.316 285.492 349.824 304.84C346.772 328.548 346.164 340.124 346.918 341.08C348.936 342.462 355.486 341.5 362.42 340.48C364.918 340.114 367.494 339.734 370.054 339.43C372.002 320.178 376.492 275.082 377.028 263.258C377.986 242.116 373.618 223.8 371.574 216.544C367.59 217.014 365.052 217.64 365.026 217.646C362.278 218.584 359.788 220.26 357.864 222.484L354.434 226.448C351.022 232.588 346.734 236.094 343.498 235.38C340.652 234.752 339.19 230.93 336.278 223.316C335.796 222.056 335.532 221.402 335.374 221.006C335.126 220.388 335.118 220.364 334.956 219.734C334.922 219.6 334.88 219.436 334.826 219.23C331.374 220.026 328.296 221.104 326.094 222.294C325.706 224.406 324.98 231.166 328.77 241.404C330.106 245.012 331.62 249.102 334.988 251.278C340.378 254.758 349.866 253.626 358.596 248.458C358.666 248.416 358.744 248.396 358.822 248.396H358.824Z" fill="#282828"/>
<path d="M363.675 328.519C363.511 328.519 363.355 328.429 363.277 328.273C363.167 328.053 363.257 327.785 363.475 327.677C366.521 326.155 367.875 316.093 368.205 311.625C360.929 313.315 355.443 313.963 352.331 311.823C352.129 311.683 352.077 311.407 352.217 311.205C352.357 311.003 352.633 310.951 352.835 311.091C355.933 313.221 362.237 312.125 368.587 310.623C368.723 310.591 368.869 310.623 368.975 310.715C369.083 310.805 369.141 310.941 369.133 311.083C369.095 311.705 368.171 326.327 363.871 328.475C363.807 328.507 363.739 328.521 363.673 328.521L363.675 328.519Z" fill="#282828"/>
<path d="M395.679 330.103C395.629 330.103 395.579 330.095 395.529 330.077C391.387 328.587 391.557 313.039 391.591 311.273C391.593 311.139 391.657 311.013 391.763 310.929C391.869 310.847 392.009 310.817 392.139 310.847C399.863 312.675 403.701 313.467 406.515 311.531C406.717 311.393 406.995 311.443 407.133 311.645C407.273 311.847 407.221 312.125 407.019 312.263C403.973 314.357 399.897 313.587 392.473 311.839C392.431 316.817 392.941 328.197 395.831 329.237C396.063 329.321 396.183 329.575 396.099 329.807C396.033 329.989 395.863 330.101 395.681 330.101L395.679 330.103Z" fill="#282828"/>
<path d="M416.039 278.78L410.473 271.12C410.043 270.528 410.049 269.73 410.483 269.14C413.269 265.358 421.591 250.976 398.117 238.756L403.337 219.408C403.337 219.408 434.119 228.538 433.689 253.452C433.669 254.672 432.615 260.05 430.313 264.806C426.131 273.448 420.905 277.322 418.369 279.152C417.621 279.692 416.581 279.524 416.039 278.778V278.78Z" fill="white"/>
<path d="M403.678 344.103C402.598 344.103 401.458 344.039 400.27 343.909C394.682 343.293 391.628 342.323 388.932 341.469C388.058 341.191 387.232 340.929 386.368 340.695C386.18 340.643 386.048 340.477 386.04 340.283C385.084 315.245 383.156 256.001 385.918 246.681C388.286 238.689 397.63 225.993 402.99 219.137C403.102 218.993 403.292 218.933 403.468 218.985C403.546 219.009 411.322 221.351 418.936 226.727C429.06 233.877 434.318 243.123 434.14 253.463C434.118 254.739 433.034 260.223 430.72 265.003C426.414 273.901 420.962 277.837 418.634 279.517C417.692 280.197 416.368 279.985 415.684 279.043L410.118 271.383C409.574 270.633 409.578 269.627 410.13 268.877C412.28 265.959 418.294 255.821 407.46 245.665C407.556 247.181 407.642 249.339 407.746 251.921C407.974 257.607 408.284 265.395 408.976 273.797C409.37 278.597 409.802 283.661 410.238 288.771C412.924 320.277 414.442 339.533 412.87 341.295C411.248 343.113 407.926 344.101 403.682 344.101L403.678 344.103ZM386.918 339.921C387.686 340.137 388.424 340.371 389.202 340.619C391.858 341.461 394.868 342.417 400.368 343.023C406.918 343.745 410.778 342.299 412.202 340.703C413.632 339.081 411.256 311.227 409.348 288.847C408.912 283.737 408.48 278.671 408.086 273.869C407.394 265.447 407.082 257.649 406.856 251.955C406.724 248.663 406.62 246.063 406.49 244.629C406.474 244.449 406.568 244.275 406.73 244.193C406.892 244.111 407.088 244.135 407.224 244.253C419.744 255.153 413.162 266.259 410.846 269.405C410.526 269.841 410.522 270.425 410.838 270.859L416.404 278.519C416.802 279.065 417.568 279.189 418.114 278.795C420.388 277.155 425.71 273.311 429.918 264.615C432.172 259.957 433.228 254.669 433.25 253.447C433.468 240.781 425.318 232.327 418.442 227.467C411.766 222.749 404.966 220.401 403.502 219.927C398.154 226.787 389.07 239.175 386.772 246.933C383.986 256.331 386.162 320.041 386.918 339.923V339.921Z" fill="#282828"/>
<path d="M411.157 272.152L408.467 275.876C407.707 276.928 406.179 277.034 405.283 276.096L403.945 274.698C403.041 273.752 401.631 272.392 400.323 272.346C400.323 272.346 389.993 272.47 391.471 278.176C391.843 278.77 392.483 279.144 393.185 279.17C394.351 279.212 396.165 279.312 397.279 279.536L399.021 279.886C399.021 279.886 400.857 280.546 402.179 281.54C403.503 282.534 405.501 283.528 407.891 283.444C409.233 283.398 415.867 278.656 415.867 278.656L411.155 272.15L411.157 272.152Z" fill="white"/>
<path d="M407.614 283.895C404.974 283.895 402.918 282.655 401.91 281.897C400.742 281.021 399.134 280.405 398.898 280.317L397.19 279.975C396.078 279.753 394.192 279.655 393.168 279.619C392.32 279.587 391.544 279.139 391.094 278.417C391.07 278.379 391.052 278.337 391.04 278.293C390.702 276.987 390.902 275.837 391.636 274.877C393.822 272.017 400.054 271.909 400.318 271.907C401.756 271.955 403.182 273.263 404.268 274.395L405.606 275.793C405.942 276.145 406.414 276.327 406.898 276.293C407.382 276.259 407.824 276.015 408.108 275.621L410.798 271.897C410.882 271.781 411.016 271.713 411.158 271.713C411.3 271.713 411.434 271.781 411.518 271.897L416.23 278.403C416.3 278.499 416.328 278.619 416.31 278.735C416.29 278.851 416.226 278.957 416.13 279.025C415.004 279.829 409.314 283.847 407.91 283.895C407.812 283.899 407.714 283.899 407.618 283.899L407.614 283.895ZM391.882 277.997C392.182 278.435 392.668 278.707 393.198 278.727C394.482 278.775 396.248 278.877 397.362 279.101L399.104 279.451C399.126 279.455 399.146 279.461 399.168 279.469C399.246 279.497 401.082 280.163 402.444 281.187C403.396 281.903 405.368 283.087 407.874 283.003C408.67 282.975 412.536 280.469 415.242 278.557L411.154 272.913L408.824 276.139C408.384 276.747 407.702 277.127 406.954 277.179C406.204 277.231 405.478 276.949 404.958 276.407L403.62 275.009C403.052 274.415 401.542 272.837 400.304 272.795C400.264 272.795 394.262 272.901 392.34 275.417C391.786 276.143 391.636 276.989 391.882 278.001V277.997Z" fill="#282828"/>
<path d="M390.42 195.668C390.048 195.832 389.628 195.622 389.524 195.228C389.024 193.348 387.202 190.318 384.886 189.462C381.92 188.366 378.288 188.868 377.22 191.112C376.288 193.07 376.782 194.386 374.212 196.75C373.966 196.976 374.098 197.406 374.336 197.64L375.588 199.004C375.856 199.266 376.012 200.054 376 200.43C375.966 201.594 375.798 204.058 376.154 204.424C376.85 205.138 380.746 205.394 380.746 205.394L382.484 216.45C382.55 216.87 382.256 217.262 381.838 217.312L380.882 217.506C379.512 217.784 379.132 219.574 380.282 220.368C382.046 221.588 385.008 222.898 389.754 223.18C392.54 223.346 394.998 222.88 396.826 222.334C398.166 221.936 398.448 220.162 397.306 219.356C394.094 217.08 389.352 212.164 389.474 203.024C389.478 202.72 389.644 202.442 389.908 202.292C390.914 201.72 393.644 200.004 393.474 197.89C393.294 195.64 391.696 195.102 390.414 195.664L390.42 195.668Z" fill="white"/>
<path d="M390.917 223.665C390.521 223.665 390.125 223.653 389.729 223.629C384.739 223.331 381.701 221.893 380.029 220.739C379.353 220.271 379.035 219.477 379.199 218.669C379.367 217.851 379.977 217.241 380.793 217.075L381.749 216.881C381.865 216.865 381.935 216.825 381.985 216.759C382.035 216.691 382.057 216.609 382.043 216.525L380.359 205.817C379.139 205.721 376.513 205.437 375.833 204.741C375.459 204.357 375.437 203.335 375.529 201.041C375.539 200.813 375.547 200.603 375.553 200.425C375.563 200.081 375.405 199.457 375.275 199.331L374.007 197.951C373.779 197.727 373.629 197.381 373.633 197.065C373.637 196.817 373.735 196.593 373.909 196.433C375.587 194.889 375.871 193.869 376.199 192.691C376.351 192.141 376.511 191.573 376.815 190.931C378.043 188.349 382.039 187.947 385.037 189.055C387.563 189.987 389.431 193.165 389.951 195.123C389.975 195.211 390.033 195.251 390.067 195.267C390.105 195.285 390.165 195.301 390.239 195.267C391.049 194.911 391.909 194.943 392.593 195.355C393.133 195.677 393.801 196.375 393.919 197.865C394.097 200.085 391.621 201.841 390.129 202.689C390.003 202.761 389.923 202.895 389.921 203.039C389.799 212.129 394.659 216.943 397.565 219.001C398.235 219.475 398.569 220.275 398.435 221.087C398.303 221.893 397.735 222.537 396.953 222.769C394.947 223.367 392.921 223.667 390.915 223.667L390.917 223.665ZM381.773 189.359C379.943 189.359 378.255 189.971 377.619 191.307C377.347 191.879 377.205 192.387 377.055 192.923C376.721 194.123 376.375 195.365 374.511 197.081C374.515 197.101 374.553 197.235 374.645 197.327L375.913 198.707C376.303 199.087 376.455 200.047 376.443 200.447C376.437 200.629 376.429 200.841 376.419 201.073C376.385 201.891 376.307 203.809 376.493 204.145C376.825 204.481 378.979 204.835 380.773 204.951C380.981 204.965 381.151 205.121 381.183 205.325L382.921 216.381C382.971 216.705 382.891 217.029 382.693 217.289C382.497 217.549 382.211 217.713 381.889 217.753L380.969 217.941C380.419 218.053 380.143 218.479 380.069 218.841C379.975 219.301 380.147 219.735 380.531 220.001C382.109 221.091 384.993 222.451 389.777 222.735C392.065 222.871 394.395 222.593 396.697 221.907C397.155 221.771 397.477 221.407 397.555 220.933C397.635 220.453 397.445 219.999 397.049 219.719C393.999 217.559 388.901 212.517 389.029 203.019C389.035 202.559 389.287 202.133 389.687 201.907C390.739 201.309 393.173 199.721 393.029 197.927C392.959 197.045 392.649 196.417 392.133 196.109C391.697 195.849 391.135 195.835 390.591 196.073C390.297 196.203 389.965 196.197 389.677 196.057C389.385 195.917 389.171 195.655 389.087 195.339C388.629 193.617 386.927 190.691 384.725 189.877C383.795 189.533 382.761 189.353 381.769 189.353L381.773 189.359Z" fill="#282828"/>
<path d="M423.138 125.701C422.174 125.701 421.25 125.365 420.504 124.735C419.668 124.031 419.156 123.041 419.062 121.953C418.97 120.863 419.306 119.803 420.01 118.967C420.714 118.131 421.702 117.621 422.792 117.527C423.886 117.435 424.942 117.773 425.778 118.477C426.614 119.183 427.126 120.171 427.22 121.259C427.312 122.349 426.976 123.409 426.272 124.245C425.568 125.081 424.58 125.591 423.49 125.683C423.372 125.693 423.254 125.697 423.138 125.697V125.701ZM423.144 118.403C423.052 118.403 422.96 118.407 422.868 118.415C422.016 118.487 421.242 118.887 420.692 119.541C420.142 120.195 419.876 121.025 419.95 121.877C420.022 122.729 420.424 123.503 421.078 124.055C421.732 124.607 422.562 124.871 423.416 124.799C424.268 124.727 425.042 124.327 425.592 123.673C426.144 123.019 426.408 122.189 426.334 121.337C426.262 120.485 425.86 119.711 425.206 119.159C424.622 118.667 423.898 118.403 423.144 118.403Z" fill="#282828"/>
<path d="M388.016 159.783C387.986 159.783 387.956 159.779 387.924 159.773C387.684 159.723 387.53 159.487 387.58 159.247L397.784 110.327C397.834 110.087 398.07 109.931 398.31 109.983C398.55 110.033 398.704 110.269 398.654 110.509L388.45 159.429C388.406 159.639 388.222 159.783 388.016 159.783Z" fill="#282828"/>
<path d="M399.095 160.562C399.017 160.562 398.937 160.542 398.865 160.498C398.655 160.37 398.587 160.098 398.715 159.888L414.619 133.572C414.745 133.362 415.019 133.294 415.229 133.422C415.439 133.55 415.507 133.822 415.379 134.032L399.475 160.348C399.391 160.486 399.245 160.562 399.093 160.562H399.095Z" fill="#282828"/>
<path d="M380.685 157.275C380.625 157.275 380.565 157.263 380.509 157.239C376.425 155.467 374.391 153.587 374.291 151.491C374.213 149.865 375.369 148.781 376.487 147.735C377.591 146.703 378.633 145.727 378.713 144.235C378.809 142.451 377.423 141.193 375.957 139.863C374.405 138.457 372.801 137.003 372.895 134.805C372.977 132.861 374.375 131.633 375.605 130.551C376.839 129.465 377.907 128.527 377.799 127.055C377.709 125.807 376.831 124.939 375.901 124.019C374.813 122.943 373.687 121.831 373.859 120.065C373.949 119.139 374.357 118.521 374.717 117.973C375.083 117.417 375.399 116.939 375.359 116.191C375.295 115.023 374.415 113.867 372.743 112.759C372.539 112.623 372.483 112.347 372.619 112.143C372.755 111.939 373.031 111.881 373.235 112.019C375.155 113.293 376.169 114.681 376.249 116.145C376.305 117.187 375.857 117.865 375.463 118.465C375.131 118.971 374.817 119.447 374.747 120.153C374.617 121.499 375.503 122.375 376.529 123.389C377.535 124.383 378.575 125.411 378.689 126.993C378.827 128.905 377.489 130.083 376.195 131.221C374.991 132.281 373.853 133.281 373.785 134.845C373.709 136.625 375.091 137.879 376.555 139.205C378.113 140.617 379.723 142.077 379.603 144.285C379.503 146.133 378.225 147.331 377.097 148.387C376.037 149.379 375.123 150.235 375.181 151.451C375.263 153.151 377.175 154.823 380.865 156.425C381.091 156.523 381.193 156.785 381.095 157.011C381.023 157.179 380.859 157.279 380.687 157.279L380.685 157.275Z" fill="#282828"/>
<path d="M110.329 153.276C110.215 153.276 110.101 153.232 110.015 153.146L108.045 151.178C107.871 151.004 107.871 150.722 108.045 150.548C108.219 150.374 108.501 150.374 108.675 150.548L110.645 152.516C110.819 152.69 110.819 152.972 110.645 153.146C110.559 153.232 110.445 153.276 110.331 153.276H110.329Z" fill="#282828"/>
<path d="M117.221 160.163C117.107 160.163 116.993 160.119 116.907 160.033L114.937 158.065C114.763 157.891 114.763 157.609 114.937 157.435C115.111 157.261 115.393 157.261 115.567 157.435L117.537 159.403C117.711 159.577 117.711 159.859 117.537 160.033C117.451 160.119 117.337 160.163 117.223 160.163H117.221Z" fill="#282828"/>
<path d="M108.359 160.163C108.245 160.163 108.131 160.119 108.045 160.033C107.871 159.859 107.871 159.577 108.045 159.403L110.015 157.435C110.189 157.261 110.471 157.261 110.645 157.435C110.819 157.609 110.819 157.891 110.645 158.065L108.675 160.033C108.589 160.119 108.475 160.163 108.361 160.163H108.359Z" fill="#282828"/>
<path d="M115.253 153.276C115.139 153.276 115.025 153.232 114.939 153.146C114.765 152.972 114.765 152.69 114.939 152.516L116.909 150.548C117.083 150.374 117.365 150.374 117.539 150.548C117.713 150.722 117.713 151.004 117.539 151.178L115.569 153.146C115.483 153.232 115.369 153.276 115.255 153.276H115.253Z" fill="#282828"/>
<path d="M299.088 428.312C298.868 428.312 298.676 428.148 298.648 427.924C298.616 427.68 298.788 427.458 299.032 427.426C318.148 424.964 333.94 418.19 348.73 406.11C348.92 405.954 349.2 405.984 349.356 406.174C349.512 406.364 349.484 406.644 349.292 406.8C334.368 418.99 318.432 425.826 299.144 428.31C299.124 428.312 299.106 428.314 299.086 428.314L299.088 428.312Z" fill="#282828"/>
<path d="M297.921 422.52C297.703 422.52 297.513 422.362 297.481 422.14C297.445 421.896 297.613 421.67 297.857 421.634C314.389 419.194 328.053 413.71 340.857 404.372C341.055 404.228 341.335 404.27 341.479 404.47C341.625 404.668 341.581 404.946 341.381 405.092C328.457 414.516 314.669 420.052 297.987 422.514C297.965 422.518 297.943 422.518 297.921 422.518V422.52Z" fill="#282828"/>
<path d="M329.781 85.7455C329.723 85.7455 329.665 85.7335 329.609 85.7115C329.411 85.6275 309.419 77.4015 278.613 80.4335C278.367 80.4575 278.151 80.2795 278.127 80.0335C278.103 79.7895 278.281 79.5715 278.527 79.5475C309.571 76.4915 329.755 84.8075 329.955 84.8915C330.181 84.9875 330.287 85.2475 330.193 85.4735C330.121 85.6435 329.957 85.7455 329.783 85.7455H329.781Z" fill="#282828"/>
<path d="M351.519 82.4529C351.449 82.4529 351.379 82.4369 351.313 82.4029C351.035 82.2569 323.035 67.8789 281.369 71.6189C281.111 71.6369 280.907 71.4589 280.885 71.2149C280.863 70.9709 281.043 70.7549 281.289 70.7329C323.229 66.9689 351.445 81.4689 351.725 81.6149C351.943 81.7289 352.027 81.9989 351.913 82.2149C351.833 82.3669 351.679 82.4529 351.519 82.4529Z" fill="#282828"/>
<path d="M278.204 75.592C278.184 75.592 278.166 75.592 278.146 75.588L270.392 74.578C270.224 74.556 270.084 74.442 270.028 74.282C269.972 74.122 270.014 73.946 270.132 73.824L276.728 67.13C276.846 67.01 277.022 66.968 277.182 67.02C277.342 67.072 277.46 67.21 277.484 67.376L278.642 75.08C278.662 75.218 278.618 75.358 278.52 75.458C278.436 75.544 278.32 75.592 278.202 75.592H278.204ZM271.394 73.812L277.676 74.63L276.738 68.39L271.394 73.812Z" fill="#282828"/>
<path d="M332.012 191.973C332.012 191.973 332.003 191.973 331.994 191.973C331.795 191.973 331.623 191.828 331.569 191.638C330.401 187.394 327.37 185.195 324.157 182.86C323.469 182.362 322.764 181.846 322.067 181.312C320.393 180.018 319.126 179.05 318.184 178.534C317.958 178.417 317.886 178.136 318.003 177.91C318.121 177.683 318.402 177.602 318.628 177.729C319.632 178.281 320.926 179.258 322.637 180.588C323.325 181.122 324.021 181.629 324.7 182.127C327.732 184.335 330.61 186.425 332.048 190.181C333.533 186.751 335.234 185.593 338.094 183.638C339.044 182.987 340.121 182.254 341.379 181.312C341.759 181.032 342.166 180.733 342.591 180.435C348.673 176.091 358.835 168.833 360.057 132.327C351.894 130.263 340.618 126.481 332.257 120.019C323.171 126.499 310.058 130.571 304.429 132.119C304.456 132.508 304.492 133.005 304.529 133.557C304.655 135.467 304.827 138.082 304.963 138.734C305.017 138.978 304.854 139.223 304.61 139.277C304.366 139.322 304.121 139.168 304.067 138.924C303.922 138.218 303.75 135.666 303.615 133.621C303.569 132.879 303.524 132.227 303.488 131.82C303.47 131.603 303.615 131.404 303.823 131.34C309.234 129.874 322.827 125.739 331.994 119.087C332.157 118.969 332.383 118.969 332.546 119.096C340.926 125.684 352.446 129.503 360.636 131.539C360.844 131.594 360.989 131.784 360.98 132.001C360.464 148.345 358.148 160.408 353.912 168.887C350.347 176.027 346.166 179.014 343.116 181.195C342.691 181.493 342.293 181.783 341.913 182.064C340.637 183.014 339.551 183.756 338.591 184.416C335.388 186.606 333.922 187.602 332.42 191.701C332.356 191.882 332.184 192 331.985 192L332.012 191.973Z" fill="#282828"/>
<path d="M332.137 183.621C332.073 183.63 332.037 183.593 332.01 183.557C331.132 182.281 327.992 179.783 326.635 178.86C326.562 178.815 326.544 178.716 326.598 178.652C326.644 178.58 326.743 178.562 326.807 178.616C328.164 179.539 331.096 181.874 332.137 183.222C333.051 182.064 335.576 179.946 339.63 176.915C351.349 168.155 354.227 155.558 355.412 135.386C345.204 132.825 337.666 129.54 332.372 125.35C326.969 129.386 317.576 132.146 311.947 133.793C310.771 134.137 309.739 134.445 308.979 134.689L308.997 134.861C309.078 135.531 309.187 136.454 309.187 136.707C309.187 136.789 309.115 136.861 309.033 136.861C308.952 136.861 308.879 136.789 308.879 136.707C308.879 136.472 308.771 135.522 308.698 134.888L308.662 134.599C308.662 134.526 308.698 134.463 308.771 134.436C309.549 134.182 310.617 133.866 311.866 133.495C317.504 131.839 326.951 129.06 332.291 125.024C332.345 124.979 332.426 124.979 332.481 125.024C337.766 129.241 345.331 132.544 355.621 135.105C355.693 135.124 355.738 135.187 355.738 135.259C354.553 155.594 351.666 168.29 339.82 177.141C335.585 180.308 333.042 182.462 332.264 183.548C332.236 183.584 332.191 183.611 332.137 183.611V183.621Z" fill="#282828"/>
<path d="M321.388 173.049C331.289 173.049 339.316 165.181 339.316 155.475C339.316 145.769 331.289 137.9 321.388 137.9C311.487 137.9 303.461 145.769 303.461 155.475C303.461 165.181 311.487 173.049 321.388 173.049Z" fill="white"/>
<path d="M321.389 173.511C311.253 173.511 303 165.421 303 155.475C303 145.53 311.253 137.439 321.389 137.439C331.524 137.439 339.778 145.53 339.778 155.475C339.778 165.421 331.524 173.511 321.389 173.511ZM321.389 138.353C311.751 138.353 303.914 146.037 303.914 155.475C303.914 164.914 311.751 172.597 321.389 172.597C331.027 172.597 338.864 164.914 338.864 155.475C338.864 146.037 331.027 138.353 321.389 138.353Z" fill="#282828"/>
<path d="M318.81 153.005L318.43 147.032L323.661 146.797L324.023 152.914L329.977 152.833L330.285 157.602L324.276 157.783L324.593 163.846L319.697 164.163L319.199 158.163L312.747 158.444L312.484 153.403L318.81 153.005Z" fill="white"/>
<path d="M319.697 164.624C319.461 164.624 319.262 164.443 319.244 164.208L318.783 158.643L312.774 158.905C312.52 158.905 312.312 158.724 312.294 158.471L312.032 153.43C312.023 153.177 312.213 152.969 312.457 152.95L318.321 152.588L317.977 147.068C317.977 146.941 318.013 146.824 318.095 146.733C318.176 146.643 318.294 146.589 318.412 146.579L323.642 146.344C323.896 146.317 324.104 146.525 324.122 146.779L324.457 152.453L329.977 152.38C330.221 152.38 330.42 152.561 330.439 152.806L330.746 157.575C330.746 157.701 330.71 157.819 330.629 157.91C330.547 158 330.429 158.054 330.303 158.063L324.755 158.226L325.045 163.828C325.054 164.081 324.864 164.29 324.62 164.308L319.715 164.624C319.715 164.624 319.697 164.624 319.688 164.624H319.697ZM319.199 157.711C319.434 157.711 319.633 157.892 319.651 158.127L320.113 163.683L324.113 163.43L323.814 157.81C323.814 157.683 323.85 157.566 323.932 157.475C324.013 157.385 324.131 157.33 324.258 157.33L329.796 157.168L329.543 153.303L324.022 153.376C323.778 153.376 323.579 153.186 323.561 152.941L323.226 147.276L318.918 147.466L319.262 152.978C319.262 153.095 319.226 153.222 319.145 153.312C319.063 153.403 318.955 153.457 318.828 153.466L312.955 153.828L313.172 157.964L319.172 157.701C319.172 157.701 319.181 157.701 319.19 157.701L319.199 157.711Z" fill="#282828"/>
<defs>
<linearGradient id="paint0_linear_1886_19456" x1="-103.668" y1="64.3635" x2="-113.404" y2="138.874" gradientUnits="userSpaceOnUse">
<stop stop-color="#EC6625"/>
<stop offset="1" stop-color="#831B1D"/>
</linearGradient>
<linearGradient id="paint1_linear_1886_19456" x1="-104.538" y1="79.4857" x2="-105.958" y2="108.202" gradientUnits="userSpaceOnUse">
<stop stop-color="#EC6625"/>
<stop offset="1" stop-color="#831B1D"/>
</linearGradient>
<linearGradient id="paint2_linear_1886_19456" x1="-105.13" y1="64.4107" x2="-114.946" y2="139.399" gradientUnits="userSpaceOnUse">
<stop stop-color="#EC6625"/>
<stop offset="1" stop-color="#831B1D"/>
</linearGradient>
</defs>
</svg>
