<svg width="24" height="24" viewBox="0 0 24 24" fill="none" xmlns="http://www.w3.org/2000/svg">
<path d="M11.0831 6.91675L9.88314 5.71674C9.80814 5.64174 9.70635 5.59959 9.60028 5.59959C9.49421 5.59959 9.39242 5.64174 9.31742 5.71674L7.20029 7.83387L6.68316 7.31675C6.60816 7.24175 6.50638 7.19961 6.4003 7.19961C6.29423 7.19961 6.19244 7.24175 6.11744 7.31675L4.91744 8.51676C4.84244 8.59176 4.80029 8.69354 4.80029 8.79962C4.80029 8.90569 4.84244 9.00748 4.91744 9.08248L6.91745 11.0825C6.99245 11.1575 7.09424 11.1996 7.20031 11.1996C7.30638 11.1996 7.40817 11.1575 7.48317 11.0825L11.0832 7.48246C11.1582 7.40746 11.2003 7.30568 11.2003 7.19961C11.2003 7.09353 11.1582 6.99175 11.0832 6.91675H11.0831ZM7.20024 10.2339L5.76595 8.79959L6.40024 8.1653L6.91736 8.68243C6.99236 8.75743 7.09415 8.79957 7.20022 8.79957C7.30629 8.79957 7.40808 8.75743 7.48308 8.68243L9.60021 6.56529L10.2345 7.19958L7.20024 10.2339Z" fill="#282828"/>
<path d="M24.0002 19.5998C24.0002 19.4071 23.8627 19.2418 23.6732 19.2064C23.4837 19.1712 23.2961 19.2762 23.2268 19.4562C23.1755 19.6039 23.0825 19.7337 22.9591 19.8298C22.8357 19.9259 22.687 19.9841 22.5311 19.9975L23.9848 14.9099C24.0193 14.7892 23.9952 14.6594 23.9197 14.559C23.8439 14.4588 23.7257 14.3999 23.6002 14.3999H22.0002V10.7999C22.0002 10.6938 21.958 10.592 21.883 10.517C21.808 10.442 21.7062 10.3999 21.6002 10.3999H21.2002V8.39986C21.2002 8.29379 21.158 8.192 21.083 8.117C21.008 8.042 20.9062 7.99986 20.8002 7.99986H18.4002C18.1793 7.99986 18.0001 8.17897 18.0001 8.39986V10.3999H14.1112C14.8294 8.66807 15.1962 6.65397 15.2001 4.40075C15.2003 4.25521 15.1216 4.1211 14.9944 4.05039L7.79436 0.0503592C7.67347 -0.0167864 7.52668 -0.0167864 7.40579 0.0503592L0.20574 4.05039C0.0789548 4.12075 0.000202271 4.25431 2.39838e-05 4.39932C2.39838e-05 4.47539 0.0034169 6.28984 0.565011 8.52008C1.19414 11.0182 2.28233 13.0262 3.74003 14.3999H0.400027C0.261457 14.3999 0.132702 14.4717 0.0598462 14.5895C-0.013192 14.7076 -0.0197979 14.8547 0.042346 14.9788L2.54805 19.9905C2.49895 19.9969 2.44949 20 2.40002 20C2.05341 20 1.88198 19.8673 1.64499 19.6837C1.36642 19.4682 1.01998 19.2 0.400003 19.2C0.17911 19.2 6.1594e-07 19.3791 6.1594e-07 19.6V23.6C6.1594e-07 23.7061 0.042144 23.8079 0.117144 23.8829C0.192145 23.9579 0.293932 24 0.400003 24H23.6002C23.7062 24 23.808 23.9579 23.883 23.8829C23.958 23.8079 24.0002 23.7061 24.0002 23.6L24.0002 19.5998ZM18.8001 8.79973H20.4002V10.3997H18.8001V8.79973ZM21.2002 11.1997V14.3998H16.0001C15.7792 14.3998 15.6001 14.5789 15.6001 14.7998V16.7998H12.4001V14.7998C12.4001 14.6937 12.358 14.5919 12.283 14.5169C12.208 14.4419 12.1062 14.3998 12.0001 14.3998H10.0001V11.1997H21.2002ZM9.60008 10.3997C9.37919 10.3997 9.20008 10.5789 9.20008 10.7997V12.494C8.6947 12.9035 8.13401 13.2397 7.5347 13.4928C6.65702 13.1949 5.91434 12.6928 5.26771 11.9603C4.58414 11.186 4.02272 10.1633 3.59967 8.92083C3.2586 7.89262 3.02431 6.83208 2.90074 5.75582L7.6002 3.14529L12.3431 5.78033C12.1926 7.58532 11.7402 9.13642 10.9981 10.3998L9.60008 10.3997ZM1.3454 8.34295C1.04039 7.1274 0.859495 5.88401 0.805414 4.63202L7.59998 0.857368L14.3982 4.63417C14.3689 6.82152 13.9789 8.75831 13.2398 10.3997H11.9123C12.6166 9.04755 13.036 7.43094 13.1602 5.58183H13.1603C13.1707 5.42719 13.0907 5.28058 12.9553 5.2054L7.79415 2.33805C7.67326 2.2709 7.52647 2.2709 7.40557 2.33805L2.27914 5.18593C2.13932 5.26378 2.05932 5.41736 2.07557 5.57665C2.16628 6.46022 2.37307 7.8024 2.84202 9.179C3.29971 10.5219 3.9138 11.636 4.66777 12.4899C5.44652 13.3719 6.34974 13.964 7.42975 14.3C7.516 14.3267 7.60868 14.3237 7.69279 14.291C8.22422 14.0823 8.72978 13.8134 9.19977 13.4892V14.4H4.98923C2.85367 12.843 1.82902 10.2549 1.34527 8.34323L1.3454 8.34295ZM1.047 15.1997H11.5998V17.1997C11.5998 17.3058 11.6419 17.4076 11.7169 17.4826C11.7919 17.5576 11.8937 17.5997 11.9998 17.5997H15.9998C16.1059 17.5997 16.2077 17.5576 16.2826 17.4826C16.3576 17.4076 16.3998 17.3058 16.3998 17.1997V15.1997H23.0696L21.7628 19.7734C21.7245 19.7452 21.6856 19.7152 21.6447 19.6834C21.3665 19.4681 21.0199 19.1999 20.3999 19.1999C19.7799 19.1999 19.4335 19.4681 19.1549 19.6836C18.918 19.8672 18.7465 19.9999 18.3999 19.9999C18.0533 19.9999 17.8819 19.8672 17.6449 19.6836C17.3665 19.4681 17.0199 19.1999 16.3999 19.1999C15.7799 19.1999 15.4334 19.4681 15.1549 19.6836C14.9179 19.8672 14.7465 19.9999 14.3999 19.9999C14.0532 19.9999 13.8818 19.8672 13.6448 19.6836C13.3663 19.4681 13.0198 19.1999 12.3999 19.1999C11.7799 19.1999 11.4334 19.4681 11.1549 19.6836C10.9177 19.8672 10.7465 19.9999 10.3998 19.9999C10.0532 19.9999 9.88181 19.8672 9.64482 19.6836C9.36625 19.4681 9.01981 19.1999 8.39983 19.1999C7.77985 19.1999 7.43338 19.4681 7.15484 19.6836C6.91787 19.8672 6.74644 19.9999 6.39982 19.9999C6.05319 19.9999 5.88178 19.8672 5.64479 19.6836C5.36622 19.4681 5.01978 19.1999 4.3998 19.1999C3.84945 19.1999 3.51481 19.4111 3.25177 19.6093L1.047 15.1997ZM23.1998 23.1997H0.799687V21.6806C0.92665 21.7453 1.04576 21.8242 1.15469 21.916C1.43326 22.1315 1.7797 22.3998 2.39968 22.3998C3.01966 22.3998 3.36613 22.1315 3.64467 21.916C3.88164 21.7324 4.05307 21.5997 4.39969 21.5997C4.74632 21.5997 4.91773 21.7324 5.15472 21.916C5.43329 22.1315 5.77972 22.3998 6.39971 22.3998C7.01969 22.3998 7.36616 22.1315 7.6447 21.916C7.88184 21.7324 8.05327 21.5997 8.39972 21.5997C8.74617 21.5997 8.91776 21.7324 9.15474 21.916C9.43332 22.1315 9.77975 22.3998 10.3997 22.3998C11.0197 22.3998 11.3662 22.1315 11.6447 21.916C11.882 21.7324 12.0533 21.5997 12.3997 21.5997C12.7462 21.5997 12.9178 21.7324 13.1548 21.916C13.4333 22.1315 13.7798 22.3998 14.3998 22.3998C15.0197 22.3998 15.3662 22.1315 15.6448 21.916C15.8819 21.7324 16.0533 21.5997 16.3998 21.5997C16.7462 21.5997 16.9178 21.7324 17.1548 21.916C17.433 22.1315 17.7798 22.3998 18.3998 22.3998C19.0198 22.3998 19.3662 22.1315 19.6448 21.916C19.8819 21.7324 20.0534 21.5997 20.3998 21.5997C20.7463 21.5997 20.9178 21.7324 21.1548 21.916C21.4311 22.1299 21.7743 22.3955 22.3856 22.3996C22.4081 22.401 22.4318 22.4017 22.4566 22.4017C22.7152 22.3985 22.9695 22.3355 23.1999 22.218L23.1998 23.1997ZM23.1998 21.1187C23.1339 21.2664 23.0257 21.3912 22.8886 21.4769C22.7516 21.5628 22.5922 21.606 22.4305 21.6008C22.4203 21.6001 22.41 21.5997 22.3998 21.5997C22.0532 21.5997 21.8818 21.4671 21.6448 21.2835C21.3664 21.068 21.0198 20.7997 20.3998 20.7997C19.7798 20.7997 19.4333 21.068 19.1548 21.2835C18.9178 21.4671 18.7464 21.5997 18.3998 21.5997C18.0532 21.5997 17.8817 21.4671 17.6448 21.2835C17.3664 21.068 17.0198 20.7997 16.3998 20.7997C15.7798 20.7997 15.4333 21.068 15.1548 21.2835C14.9178 21.4671 14.7464 21.5997 14.3998 21.5997C14.0531 21.5997 13.8817 21.4671 13.6447 21.2835C13.3662 21.068 13.0197 20.7997 12.3997 20.7997C11.7798 20.7997 11.4333 21.068 11.1548 21.2835C10.9176 21.4671 10.7464 21.5997 10.3997 21.5997C10.0531 21.5997 9.88169 21.4671 9.64471 21.2835C9.36613 21.068 9.0197 20.7997 8.39972 20.7997C7.77974 20.7997 7.43326 21.068 7.15473 21.2835C6.91776 21.4671 6.74633 21.5997 6.3997 21.5997C6.05308 21.5997 5.88167 21.4671 5.64468 21.2835C5.36611 21.068 5.01967 20.7997 4.39969 20.7997C3.77971 20.7997 3.43324 21.068 3.1547 21.2835C2.91773 21.4671 2.7463 21.5997 2.39968 21.5997C2.05305 21.5997 1.88164 21.4671 1.64465 21.2835C1.43287 21.1196 1.18106 20.9253 0.799665 20.8417V20.0803C0.926628 20.1449 1.04574 20.224 1.15467 20.316C1.43324 20.5315 1.77968 20.7997 2.39966 20.7997C3.01964 20.7997 3.36611 20.5315 3.64465 20.316C3.88161 20.1324 4.05304 19.9997 4.39967 19.9997C4.7463 19.9997 4.91771 20.1324 5.15469 20.316C5.43327 20.5315 5.7797 20.7997 6.39968 20.7997C7.01967 20.7997 7.36614 20.5315 7.64468 20.316C7.88182 20.1324 8.05325 19.9997 8.3997 19.9997C8.74615 19.9997 8.91774 20.1324 9.15472 20.316C9.4333 20.5315 9.77973 20.7997 10.3997 20.7997C11.0197 20.7997 11.3662 20.5315 11.6447 20.316C11.882 20.1324 12.0533 19.9997 12.3997 19.9997C12.7462 19.9997 12.9178 20.1324 13.1547 20.316C13.4333 20.5315 13.7798 20.7997 14.3997 20.7997C15.0197 20.7997 15.3662 20.5315 15.6447 20.316C15.8819 20.1324 16.0533 19.9997 16.3998 19.9997C16.7462 19.9997 16.9178 20.1324 17.1548 20.316C17.433 20.5315 17.7798 20.7997 18.3998 20.7997C19.0197 20.7997 19.3662 20.5315 19.6448 20.316C19.8819 20.1324 20.0533 19.9997 20.3998 19.9997C20.7462 19.9997 20.9178 20.1324 21.1548 20.316C21.4311 20.5299 21.7743 20.7954 22.3855 20.7996V20.7997C22.668 20.8097 22.9484 20.7471 23.1998 20.6179L23.1998 21.1187Z" fill="#282828"/>
<path d="M6.40018 18.3998C6.7184 18.3998 7.02377 18.2734 7.24873 18.0484C7.4737 17.8234 7.60017 17.518 7.60017 17.1998C7.60017 16.8816 7.47374 16.5762 7.24873 16.3513C7.02373 16.1263 6.71835 15.9998 6.40018 15.9998C6.08201 15.9998 5.77659 16.1263 5.55163 16.3513C5.32666 16.5763 5.2002 16.8816 5.2002 17.1998C5.20055 17.518 5.32716 17.823 5.55198 18.0481C5.77699 18.2729 6.082 18.3995 6.40022 18.3998L6.40018 18.3998ZM6.40018 16.7998C6.56197 16.7998 6.70786 16.8973 6.76965 17.0468C6.83161 17.1962 6.7975 17.3682 6.68304 17.4827C6.56858 17.5971 6.39661 17.6312 6.24714 17.5693C6.09768 17.5075 6.00018 17.3616 6.00018 17.1998C6.00036 16.9789 6.17929 16.8 6.40018 16.7998Z" fill="#282828"/>
</svg>
