<svg width="44" height="44" viewBox="0 0 44 44" fill="none" xmlns="http://www.w3.org/2000/svg">
<path d="M41.9375 37.6876C42.1198 37.6876 42.2947 37.6152 42.4236 37.4863C42.5526 37.3573 42.625 37.1825 42.625 37.0001V34.4999C42.625 34.3175 42.5526 34.1427 42.4236 34.0137C42.2947 33.8848 42.1198 33.8124 41.9375 33.8124H41.0667C40.9625 33.4899 40.8323 33.1765 40.6773 32.8751L41.294 32.2584C41.3578 32.1946 41.4085 32.1188 41.4431 32.0354C41.4776 31.952 41.4954 31.8626 41.4954 31.7723C41.4954 31.6821 41.4776 31.5927 41.4431 31.5093C41.4085 31.4259 41.3578 31.3501 41.294 31.2863L39.5269 29.5192C39.4631 29.4552 39.3873 29.4044 39.3038 29.3697C39.2203 29.335 39.1308 29.3171 39.0405 29.3171C38.8581 29.3172 38.683 29.3896 38.5541 29.5185L37.9374 30.1352C37.636 29.9803 37.3225 29.8501 37.0001 29.7458V28.875C37.0001 28.6927 36.9277 28.5178 36.7988 28.3889C36.6698 28.2599 36.495 28.1875 36.3126 28.1875H33.8124C33.63 28.1875 33.4552 28.2599 33.3262 28.3889C33.1973 28.5178 33.1249 28.6927 33.1249 28.875V29.7458C32.8024 29.85 32.489 29.9802 32.1876 30.1352L31.5709 29.5185C31.5071 29.4547 31.4313 29.404 31.3479 29.3694C31.2645 29.3349 31.1751 29.3171 31.0848 29.3171C30.9946 29.3171 30.9052 29.3349 30.8218 29.3694C30.7384 29.404 30.6626 29.4547 30.5988 29.5185L28.831 31.2863C28.7671 31.3501 28.7165 31.4259 28.6819 31.5093C28.6474 31.5927 28.6296 31.6821 28.6296 31.7724C28.6296 31.8627 28.6474 31.952 28.6819 32.0355C28.7165 32.1189 28.7671 32.1946 28.831 32.2585L29.4477 32.8751C29.2928 33.1765 29.1625 33.49 29.0583 33.8124H28.1875C28.0052 33.8124 27.8303 33.8848 27.7014 34.0138C27.5724 34.1427 27.5 34.3176 27.5 34.4999V37.0001C27.5 37.1825 27.5724 37.3573 27.7014 37.4863C27.8303 37.6152 28.0052 37.6876 28.1875 37.6876H29.0583C29.1625 38.0101 29.2927 38.3235 29.4477 38.6249L28.831 39.2416C28.7672 39.3054 28.7165 39.3812 28.6819 39.4646C28.6474 39.548 28.6296 39.6374 28.6296 39.7277C28.6296 39.818 28.6474 39.9073 28.6819 39.9908C28.7165 40.0742 28.7672 40.1499 28.831 40.2138L30.5988 41.9815C30.6626 42.0454 30.7384 42.096 30.8218 42.1306C30.9052 42.1651 30.9946 42.1829 31.0849 42.1829C31.1752 42.1829 31.2645 42.1651 31.348 42.1306C31.4314 42.096 31.5071 42.0454 31.571 41.9815L32.1876 41.3648C32.489 41.5197 32.8025 41.65 33.1249 41.7542V42.625C33.1249 42.8073 33.1973 42.9822 33.3263 43.1111C33.4552 43.2401 33.6301 43.3125 33.8124 43.3125H36.3126C36.495 43.3125 36.6698 43.2401 36.7988 43.1111C36.9277 42.9822 37.0001 42.8073 37.0001 42.625V41.7542C37.3226 41.65 37.636 41.5198 37.9374 41.3648L38.5541 41.9815C38.6179 42.0453 38.6937 42.096 38.7771 42.1306C38.8605 42.1651 38.9499 42.1829 39.0402 42.1829C39.1305 42.1829 39.2198 42.1651 39.3033 42.1306C39.3867 42.096 39.4624 42.0453 39.5263 41.9815L41.294 40.2137C41.3579 40.1499 41.4085 40.0741 41.4431 39.9907C41.4776 39.9073 41.4954 39.8179 41.4954 39.7276C41.4954 39.6373 41.4776 39.548 41.4431 39.4645C41.4085 39.3811 41.3579 39.3054 41.294 39.2415L40.6773 38.6249C40.8322 38.3235 40.9625 38.01 41.0667 37.6876L41.9375 37.6876ZM39.7652 37.2432C39.6803 37.5097 39.5729 37.7684 39.444 38.0166C39.3116 38.2635 39.2618 38.5463 39.3017 38.8236C39.3416 39.101 39.4692 39.3582 39.6659 39.5578L39.8357 39.7276L39.0401 40.5232L38.8703 40.3534C38.6709 40.1566 38.4137 40.0288 38.1364 39.9889C37.8591 39.9489 37.5763 39.9989 37.3294 40.1315C37.0811 40.2603 36.8222 40.3678 36.5557 40.4527C36.288 40.5341 36.0534 40.6989 35.886 40.923C35.7186 41.147 35.6272 41.4188 35.6251 41.6985V41.9375H34.4999V41.6985C34.4978 41.4188 34.4064 41.1471 34.239 40.923C34.0716 40.6989 33.837 40.5341 33.5693 40.4527C33.3028 40.3679 33.0441 40.2604 32.7959 40.1315C32.549 39.999 32.2662 39.9491 31.9888 39.9891C31.7115 40.029 31.4543 40.1567 31.2547 40.3534L31.0849 40.5232L30.2893 39.7276L30.4591 39.5578C30.6558 39.3583 30.7834 39.1011 30.8233 38.8238C30.8632 38.5466 30.8134 38.2638 30.681 38.0169C30.5522 37.7686 30.4447 37.5097 30.3598 37.2432C30.2784 36.9756 30.1136 36.7409 29.8895 36.5735C29.6655 36.4061 29.3937 36.3147 29.114 36.3126H28.875V35.1874H29.114C29.3937 35.1853 29.6654 35.0939 29.8895 34.9265C30.1136 34.7591 30.2784 34.5245 30.3598 34.2568C30.4446 33.9903 30.5521 33.7316 30.681 33.4834C30.8134 33.2365 30.8632 32.9537 30.8233 32.6764C30.7834 32.399 30.6558 32.1418 30.4591 31.9422L30.2893 31.7724L31.0849 30.9768L31.2547 31.1466C31.4542 31.3434 31.7114 31.4711 31.9886 31.511C32.2659 31.5509 32.5487 31.501 32.7956 31.3685C33.0439 31.2397 33.3028 31.1322 33.5693 31.0473C33.8369 30.9659 34.0716 30.8011 34.239 30.577C34.4064 30.353 34.4978 30.0812 34.4999 29.8015V29.5625H35.6251V29.8015C35.6272 30.0812 35.7186 30.3529 35.886 30.577C36.0534 30.8011 36.288 30.9659 36.5557 31.0473C36.8221 31.1321 37.0809 31.2396 37.3291 31.3685C37.5761 31.5008 37.8588 31.5506 38.1361 31.5106C38.4134 31.4707 38.6706 31.3432 38.8703 31.1466L39.0401 30.9771L39.8357 31.7724L39.6659 31.9422C39.4692 32.1417 39.3416 32.3989 39.3017 32.6762C39.2618 32.9534 39.3116 33.2362 39.444 33.4831C39.5728 33.7314 39.6803 33.9903 39.7652 34.2568C39.8466 34.5244 40.0113 34.7591 40.2354 34.9265C40.4595 35.0939 40.7313 35.1853 41.011 35.1874H41.25V36.3126H41.011C40.7313 36.3147 40.4596 36.4061 40.2355 36.5735C40.0114 36.7409 39.8466 36.9755 39.7652 37.2432Z" fill="#282828"/>
<path d="M35.0625 31.9688C34.3146 31.9688 33.5836 32.1905 32.9618 32.606C32.3399 33.0215 31.8553 33.612 31.5691 34.303C31.2829 34.9939 31.208 35.7542 31.3539 36.4877C31.4998 37.2212 31.8599 37.8949 32.3888 38.4237C32.9176 38.9526 33.5913 39.3127 34.3248 39.4586C35.0583 39.6045 35.8186 39.5296 36.5095 39.2434C37.2005 38.9572 37.791 38.4726 38.2065 37.8508C38.622 37.2289 38.8438 36.4979 38.8438 35.75C38.8426 34.7475 38.4439 33.7864 37.735 33.0775C37.0261 32.3686 36.065 31.9699 35.0625 31.9688ZM35.0625 38.1562C34.5866 38.1562 34.1214 38.0151 33.7257 37.7507C33.33 37.4863 33.0215 37.1105 32.8394 36.6708C32.6573 36.2311 32.6096 35.7473 32.7025 35.2806C32.7953 34.8138 33.0245 34.385 33.361 34.0485C33.6975 33.712 34.1263 33.4828 34.5931 33.39C35.0598 33.2971 35.5436 33.3448 35.9833 33.5269C36.423 33.709 36.7988 34.0175 37.0632 34.4132C37.3276 34.8089 37.4688 35.2741 37.4688 35.75C37.468 36.3879 37.2142 36.9995 36.7631 37.4506C36.312 37.9017 35.7004 38.1555 35.0625 38.1562Z" fill="#282828"/>
<path d="M1.91644 24.0468L4.81246 24.6763V37.1251C4.81248 37.2784 4.86372 37.4273 4.95806 37.5481C5.05239 37.669 5.1844 37.7548 5.33312 37.7921L21.8331 41.9171C21.9421 41.9468 22.0574 41.9443 22.165 41.9101L22.1668 41.9171L27.6668 40.5421L27.3331 39.208L22.6875 40.3695V23.8586L25.603 27.26C25.6675 27.3353 25.7476 27.3957 25.8377 27.4372C25.9278 27.4786 26.0258 27.5 26.125 27.5001C26.1741 27.5001 26.223 27.4948 26.271 27.4842L37.8125 24.9753V28.1876H39.1875V24.6763L42.0835 24.0468C42.2041 24.0206 42.3155 23.9624 42.4059 23.8782C42.4962 23.7941 42.5623 23.6872 42.5971 23.5688C42.6318 23.4503 42.6341 23.3247 42.6036 23.2051C42.573 23.0855 42.5108 22.9763 42.4235 22.889L38.2985 18.764C38.1998 18.6674 38.0741 18.603 37.9381 18.5792L37.939 18.5743L26.939 16.5118L26.6859 17.8633L33.946 19.2246L22 21.3021L10.054 19.2246L17.314 17.8634L17.0609 16.5119L6.06094 18.5744L6.06182 18.5792C5.92577 18.603 5.80011 18.6674 5.7014 18.764L1.5764 22.889C1.48909 22.9763 1.4269 23.0855 1.39636 23.2051C1.36582 23.3247 1.36807 23.4504 1.40286 23.5688C1.43765 23.6873 1.5037 23.7942 1.59408 23.8783C1.68445 23.9624 1.79579 24.0206 1.91644 24.0468ZM6.18746 36.5883V24.9753L17.7289 27.4843C17.7769 27.4948 17.8259 27.5001 17.875 27.5001C17.9741 27.5 18.0721 27.4786 18.1622 27.4372C18.2523 27.3957 18.3324 27.3353 18.397 27.26L21.3125 23.8586V40.3695L6.18746 36.5883ZM37.5788 19.9886L40.5608 22.9709L26.3798 26.0536L23.3085 22.4704L37.5788 19.9886ZM6.4211 19.9886L20.6914 22.4704L17.6202 26.0536L3.43914 22.9709L6.4211 19.9886Z" fill="#282828"/>
<path d="M15.8425 9.13014C15.742 10.1481 15.8868 11.1753 16.2648 12.1259C16.6428 13.0764 17.243 13.9225 18.0151 14.5935C18.1875 14.7427 18.3256 14.9273 18.4201 15.1348C18.5145 15.3423 18.563 15.5677 18.5623 15.7957V17.1875C18.5631 17.9165 18.8531 18.6155 19.3686 19.1311C19.8842 19.6466 20.5832 19.9366 21.3123 19.9375H22.6873C23.4163 19.9366 24.1153 19.6466 24.6309 19.1311C25.1464 18.6155 25.4364 17.9165 25.4373 17.1875V15.7953C25.4346 15.5708 25.4806 15.3483 25.5723 15.1432C25.6639 14.9382 25.7989 14.7555 25.968 14.6077C26.6558 14.0135 27.2094 13.2798 27.592 12.4552C27.9746 11.6307 28.1774 10.7343 28.1869 9.82539C28.1965 8.9165 28.0127 8.01596 27.6476 7.18357C27.2825 6.35117 26.7445 5.60596 26.0694 4.99739C25.4283 4.41759 24.6705 3.98191 23.8469 3.7197C23.0233 3.4575 22.153 3.37487 21.2948 3.47738C19.8776 3.65665 18.5643 4.31493 17.5726 5.34307C16.581 6.37121 15.9705 7.70743 15.8425 9.13014ZM19.9373 15.8125H24.0623V16.5H19.9373V15.8125ZM22.6873 18.5625H21.3123C21.072 18.5617 20.8361 18.4978 20.6284 18.3771C20.4206 18.2565 20.2482 18.0833 20.1285 17.875H23.871C23.7513 18.0833 23.5789 18.2565 23.3712 18.3771C23.1634 18.4978 22.9275 18.5617 22.6873 18.5625ZM21.4499 4.84367C21.6336 4.82269 21.8183 4.81215 22.0031 4.81212C23.167 4.81092 24.2898 5.24249 25.1532 6.02296C25.6821 6.50082 26.1035 7.08557 26.3894 7.73849C26.6754 8.39141 26.8194 9.09762 26.812 9.81038C26.8045 10.5231 26.6457 11.2262 26.3462 11.873C26.0467 12.5198 25.6131 13.0956 25.0744 13.5623C24.7944 13.8072 24.5649 14.1045 24.399 14.4375H22.6873V13.0625C22.6873 12.9557 22.6625 12.8505 22.6148 12.755C22.5671 12.6596 22.4977 12.5766 22.4123 12.5126L20.0511 10.7415C20.0158 10.7149 19.9872 10.6805 19.9675 10.641C19.9477 10.6015 19.9374 10.558 19.9373 10.5139V9.90964C19.9417 9.85544 19.961 9.80352 19.993 9.75957C20.025 9.71563 20.0686 9.68136 20.1188 9.66054C20.169 9.63973 20.224 9.63316 20.2778 9.64157C20.3315 9.64998 20.3819 9.67303 20.4233 9.7082L20.8262 10.111C21.1423 10.4129 21.5626 10.5813 21.9997 10.5813C22.4369 10.5813 22.8572 10.4129 23.1733 10.111L23.5762 9.7082C23.6176 9.67305 23.668 9.65 23.7217 9.6416C23.7754 9.6332 23.8304 9.63977 23.8807 9.66059C23.9309 9.68141 23.9744 9.71566 24.0064 9.7596C24.0385 9.80354 24.0578 9.85545 24.0622 9.90964V10.5139C24.0621 10.5581 24.0517 10.6017 24.0319 10.6412C24.0121 10.6808 23.9834 10.7152 23.9481 10.7418L22.9622 11.4813L23.7873 12.5811L24.7729 11.8419C24.9787 11.6869 25.1458 11.4863 25.2611 11.2559C25.3763 11.0255 25.4366 10.7715 25.4373 10.5139V9.90964C25.4373 9.58139 25.3399 9.26052 25.1575 8.98759C24.9752 8.71466 24.716 8.50194 24.4127 8.37633C24.1094 8.25071 23.7757 8.21784 23.4538 8.28188C23.1318 8.34591 22.8361 8.50398 22.604 8.73608L22.2012 9.13889C22.1477 9.1921 22.0753 9.22197 21.9998 9.22197C21.9243 9.22197 21.8519 9.1921 21.7984 9.13889L21.3955 8.73606C21.1634 8.50395 20.8677 8.34588 20.5457 8.28184C20.2238 8.2178 19.8901 8.25067 19.5868 8.37628C19.2836 8.5019 19.0243 8.71462 18.842 8.98755C18.6596 9.26049 18.5623 9.58137 18.5623 9.90962V10.5139C18.5629 10.7714 18.6231 11.0254 18.7383 11.2557C18.8535 11.4861 19.0205 11.6866 19.2263 11.8416L21.3123 13.4062V14.4375H19.5966C19.4275 14.1009 19.195 13.8001 18.9121 13.5516C18.3066 13.0241 17.8363 12.3593 17.5404 11.6128C17.2446 10.8663 17.1317 10.0598 17.2114 9.26072C17.3192 8.15545 17.796 7.11864 18.5649 6.31735C19.3337 5.51606 20.35 4.99696 21.4499 4.84367Z" fill="#282828"/>
<path d="M22.6875 0.6875H21.3125V2.75H22.6875V0.6875Z" fill="#282828"/>
<path d="M30.9375 8.9375H28.875V10.3125H30.9375V8.9375Z" fill="#282828"/>
<path d="M15.125 8.9375H13.0625V10.3125H15.125V8.9375Z" fill="#282828"/>
<path d="M16.1665 2.81921L15.1943 3.79138L16.6526 5.24963L17.6248 4.27746L16.1665 2.81921Z" fill="#282828"/>
<path d="M27.8337 2.81909L26.3755 4.27734L27.3477 5.24951L28.8059 3.79126L27.8337 2.81909Z" fill="#282828"/>
</svg>
