<svg width="24" height="24" viewBox="0 0 24 24" fill="none" xmlns="http://www.w3.org/2000/svg">
<g clip-path="url(#clip0_1591_14686)">
<path d="M16.5 9C17.3948 8.99901 18.2527 8.64311 18.8854 8.01039C19.5181 7.37767 19.874 6.5198 19.875 5.625V4.125C19.875 3.22989 19.5194 2.37145 18.8865 1.73851C18.2536 1.10558 17.3951 0.75 16.5 0.75C15.6049 0.75 14.7465 1.10558 14.1135 1.73851C13.4806 2.37145 13.125 3.22989 13.125 4.125V5.625C13.126 6.5198 13.4819 7.37767 14.1146 8.01039C14.7473 8.64311 15.6052 8.99901 16.5 9ZM13.875 4.125C13.875 3.42881 14.1516 2.76113 14.6438 2.26884C15.1361 1.77656 15.8038 1.5 16.5 1.5C17.1962 1.5 17.8639 1.77656 18.3562 2.26884C18.8484 2.76113 19.125 3.42881 19.125 4.125V5.625C19.125 6.32119 18.8484 6.98887 18.3562 7.48116C17.8639 7.97344 17.1962 8.25 16.5 8.25C15.8038 8.25 15.1361 7.97344 14.6438 7.48116C14.1516 6.98887 13.875 6.32119 13.875 5.625V4.125Z" fill="#282828"/>
<path d="M19.875 9.75H15V10.5H15.1211L15.7432 12.0555L15 20.2159C14.9949 20.2708 15.002 20.3261 15.0207 20.378C15.0394 20.4298 15.0694 20.4769 15.1084 20.5159L16.2334 21.6409C16.3037 21.7112 16.3991 21.7507 16.4985 21.7507C16.5979 21.7507 16.6933 21.7112 16.7636 21.6409L17.8886 20.5159C17.9276 20.4769 17.9576 20.4298 17.9763 20.378C17.995 20.3261 18.0021 20.2708 17.997 20.2159L17.2568 12.0555L17.8789 10.5H19.875C20.5709 10.5008 21.2382 10.7776 21.7303 11.2697C22.2224 11.7618 22.4992 12.4291 22.5 13.125V22.5H20.625V13.125H19.875V22.5H13.125V21H12.375V22.5H10.125V23.25H22.875C22.9745 23.25 23.0698 23.2105 23.1402 23.1402C23.2105 23.0698 23.25 22.9745 23.25 22.875V13.125C23.249 12.2302 22.8931 11.3723 22.2604 10.7396C21.6277 10.1069 20.7698 9.75099 19.875 9.75ZM17.0711 10.5L16.6211 11.625H16.3789L15.9289 10.5H17.0711ZM16.5 20.8447L15.7642 20.109L16.4674 12.375H16.5326L17.2358 20.109L16.5 20.8447Z" fill="#282828"/>
<path d="M5.37187 22.0582L7.30988 23.1982C7.3675 23.2321 7.43314 23.25 7.5 23.25C7.56686 23.25 7.6325 23.2321 7.69012 23.1982L9.62812 22.0582C11.033 21.2276 12.1977 20.0459 13.008 18.6292C13.8183 17.2125 14.2463 15.6094 14.25 13.9774V9.75C14.25 9.65054 14.2105 9.55516 14.1402 9.48483C14.0698 9.41451 13.9745 9.375 13.875 9.375C11.7661 9.37046 9.71482 8.68669 8.025 7.425L7.725 7.2C7.66009 7.15132 7.58114 7.125 7.5 7.125C7.41886 7.125 7.33991 7.15132 7.275 7.2L6.975 7.425C5.28524 8.68681 3.23389 9.37059 1.125 9.375C1.02554 9.375 0.930161 9.41451 0.859835 9.48483C0.789509 9.55516 0.75 9.65054 0.75 9.75V13.9774C0.753694 15.6094 1.18169 17.2125 1.99198 18.6292C2.80227 20.0459 3.96701 21.2276 5.37187 22.0582ZM1.5 10.1179C3.64152 10.0371 5.70788 9.30723 7.425 8.025L7.5 7.96912L7.575 8.025C9.29212 9.30723 11.3585 10.0371 13.5 10.1179V13.9774C13.4968 15.479 13.1031 16.9539 12.3577 18.2574C11.6123 19.5609 10.5408 20.6482 9.24825 21.4125L7.5 22.44L5.75175 21.4125C4.45924 20.6482 3.38769 19.5609 2.64228 18.2574C1.89688 16.9539 1.50324 15.479 1.5 13.9774V10.1179Z" fill="#282828"/>
</g>
<defs>
<clipPath id="clip0_1591_14686">
<rect width="24" height="24" fill="white"/>
</clipPath>
</defs>
</svg>
