<svg width="24" height="24" viewBox="0 0 24 24" fill="none" xmlns="http://www.w3.org/2000/svg">
<g clip-path="url(#clip0_1_3753)">
<path d="M16.127 22.8182H15.2724L14.7888 13.8C14.7815 13.6509 14.6434 13.5345 14.5015 13.5418C14.3524 13.5491 14.2361 13.68 14.2434 13.8291L14.727 22.8182H12.7997L13.4797 10.1818C13.5706 10.2 13.6652 10.2109 13.7634 10.2109C13.8615 10.2109 13.9561 10.2 14.047 10.1818L14.1815 12.6582C14.1888 12.8036 14.3088 12.9163 14.4543 12.9163H14.4688C14.6179 12.9091 14.7343 12.7782 14.727 12.6291L14.5961 10.2145L14.8179 10.6218C14.847 10.6763 14.8943 10.72 14.9524 10.7418L20.1634 12.8763C20.2324 12.9054 20.3015 12.9163 20.367 12.9163C20.5452 12.9163 20.7124 12.8254 20.8106 12.6582C20.9452 12.4291 20.8943 12.1527 20.687 11.9891L16.3015 8.46179C16.2543 8.42179 16.1924 8.39997 16.1306 8.39997H15.0579C14.967 8.13088 14.7961 7.89815 14.5706 7.73452L15.0543 6.91634C15.087 6.86179 15.0979 6.79997 15.0906 6.73815L14.2797 1.16724C14.2434 0.905425 14.0288 0.719971 13.7634 0.719971C13.4979 0.719971 13.287 0.901789 13.247 1.16724L12.4361 6.73815C12.4288 6.79997 12.4397 6.86179 12.4724 6.91634L12.9561 7.73452C12.7306 7.89815 12.5597 8.13088 12.4688 8.39997H11.3961C11.3343 8.39997 11.2724 8.42179 11.2252 8.46179L6.83608 11.9891C6.62881 12.1563 6.5779 12.4327 6.71608 12.6582C6.81427 12.8254 6.98154 12.9163 7.15972 12.9163C7.22881 12.9163 7.2979 12.9018 7.36336 12.8763L12.5743 10.7418C12.6324 10.72 12.6797 10.6763 12.7088 10.6218L12.9343 10.2145L12.2543 22.8182H11.3961C11.247 22.8182 11.1234 22.9418 11.1234 23.0909C11.1234 23.24 11.247 23.3636 11.3961 23.3636H16.127C16.2761 23.3636 16.3997 23.24 16.3997 23.0909C16.3997 22.9418 16.2797 22.8182 16.127 22.8182ZM13.3452 9.54906C13.2834 9.5127 13.2288 9.4727 13.1779 9.42543C13.1743 9.42179 13.1743 9.42179 13.1706 9.41815C13.0252 9.26906 12.9343 9.06543 12.9343 8.83997C12.9343 8.78543 12.9415 8.73088 12.9524 8.67634C13.0288 8.29815 13.3634 8.01452 13.7634 8.01452C14.1634 8.01452 14.4979 8.29815 14.5743 8.67634C14.5852 8.73088 14.5924 8.78543 14.5924 8.83997C14.5924 9.06543 14.5015 9.26906 14.3561 9.41815C14.3524 9.42179 14.3524 9.42179 14.3488 9.42543C14.1997 9.57452 13.9924 9.66906 13.7634 9.66906C13.6106 9.66543 13.4688 9.62179 13.3452 9.54906ZM20.2143 12.3091L15.2506 10.2763L14.8906 9.62179C15.0252 9.42906 15.1052 9.19997 15.1234 8.9527H16.0361L20.2143 12.3091ZM12.9924 6.71997L13.7634 1.41088L14.5343 6.71997L14.0688 7.50179C13.9706 7.47997 13.8688 7.46543 13.7597 7.46543C13.6506 7.46543 13.5524 7.47997 13.4506 7.50179L12.9924 6.71997ZM12.2761 10.2727L7.30881 12.3091L11.4906 8.94543H12.4034C12.4215 9.1927 12.5015 9.42179 12.6361 9.61452L12.2761 10.2727Z" fill="black"/>
<path d="M7.03303 14.6328C6.98576 14.5928 6.92394 14.5709 6.86212 14.5709H6.2403C6.18212 14.4328 6.09121 14.3128 5.97848 14.2146L6.24758 13.7564C6.2803 13.7018 6.29121 13.64 6.28394 13.5782L5.7603 9.97821C5.72758 9.76366 5.54939 9.6073 5.33121 9.6073C5.11303 9.6073 4.93485 9.76366 4.90212 9.97821L4.37848 13.5782C4.37121 13.64 4.38212 13.7018 4.41485 13.7564L4.68394 14.2146C4.57121 14.3128 4.4803 14.4328 4.42212 14.5709H3.8003C3.73848 14.5709 3.67667 14.5928 3.62939 14.6328L0.800302 16.9128C0.629393 17.0473 0.589393 17.2837 0.698484 17.4691C0.778484 17.6073 0.920302 17.6837 1.06939 17.6837C1.12394 17.6837 1.18212 17.6728 1.23667 17.6509L4.6003 16.2728C4.62576 16.2618 4.65121 16.2473 4.67303 16.2255L4.57485 17.8037C4.56394 17.9528 4.6803 18.0837 4.82939 18.0909C4.97485 18.1018 5.10939 17.9855 5.11667 17.8364L5.23303 15.9309C5.25121 15.9346 5.26939 15.9309 5.28758 15.9309C5.30212 15.9309 5.31303 15.9346 5.32758 15.9346C5.34212 15.9346 5.35667 15.9309 5.36758 15.9309C5.38576 15.9309 5.40394 15.9346 5.42212 15.9309L5.84394 22.8182H4.80758L5.06212 18.6437C5.07303 18.4946 4.95667 18.3637 4.80758 18.3564C4.65485 18.3455 4.52758 18.4618 4.5203 18.6109L4.26212 22.8182H3.79667C3.64757 22.8182 3.52394 22.9418 3.52394 23.0909C3.52394 23.24 3.64757 23.3637 3.79667 23.3637H6.85485C7.00394 23.3637 7.12758 23.24 7.12758 23.0909C7.12758 22.9418 7.00394 22.8182 6.85485 22.8182H6.4003L5.99667 16.2291C6.01848 16.2473 6.04394 16.2618 6.06939 16.2728L9.43667 17.6509C9.49121 17.6728 9.54576 17.6837 9.60394 17.6837C9.75303 17.6837 9.89485 17.6073 9.97485 17.4691C10.0839 17.2837 10.0439 17.0473 9.87303 16.9128L7.03303 14.6328ZM5.47667 15.36C5.43303 15.3746 5.38576 15.3891 5.33485 15.3891C5.28394 15.3891 5.23667 15.3746 5.19303 15.36C5.17485 15.3528 5.15667 15.3455 5.13848 15.3382C4.99667 15.2655 4.89485 15.1237 4.89485 14.9528C4.89485 14.7128 5.09121 14.5164 5.33121 14.5164C5.57121 14.5164 5.76758 14.7128 5.76758 14.9528C5.76758 15.1237 5.66576 15.2691 5.52394 15.3382C5.50939 15.3491 5.49485 15.3564 5.47667 15.36ZM4.93485 13.5673L5.33121 10.8291L5.72758 13.5673L5.4803 13.9855C5.43303 13.9782 5.38212 13.9709 5.33121 13.9709C5.2803 13.9709 5.22939 13.9782 5.18212 13.9855L4.93485 13.5673ZM1.74212 16.8546L3.89848 15.12H4.36758C4.38939 15.2437 4.43303 15.3564 4.49485 15.4582L4.30576 15.8037L1.74212 16.8546ZM6.36394 15.8037L6.17485 15.4582C6.23667 15.3564 6.2803 15.2437 6.30212 15.12H6.77121L8.92758 16.8546L6.36394 15.8037Z" fill="black"/>
<path d="M6.64324 5.78912C6.78869 5.50185 6.86505 5.18185 6.86505 4.86185C6.86505 3.73094 5.94505 2.81458 4.81778 2.81458C3.68687 2.81458 2.77051 3.73458 2.77051 4.86185C2.77051 5.99276 3.69051 6.90912 4.81778 6.90912C5.25051 6.90912 5.66142 6.77458 6.01051 6.52367C6.13414 6.43639 6.1596 6.26548 6.07233 6.14185C5.98505 6.01821 5.81414 5.99276 5.69051 6.08003C5.43233 6.26548 5.13051 6.36367 4.81414 6.36367C3.98505 6.36367 3.31233 5.69094 3.31233 4.86185C3.31233 4.03276 3.98505 3.36003 4.81414 3.36003C5.64324 3.36003 6.31596 4.03276 6.31596 4.86185C6.31596 5.10185 6.26142 5.33094 6.15233 5.54185C6.08324 5.67639 6.13778 5.84003 6.27233 5.90912C6.41051 5.97821 6.57414 5.92367 6.64324 5.78912Z" fill="black"/>
<path d="M4.82183 2.33817C4.97092 2.33817 5.09092 2.21817 5.09092 2.06908V0.905443C5.09092 0.756353 4.97092 0.636353 4.82183 0.636353C4.67273 0.636353 4.55273 0.756353 4.55273 0.905443V2.06908C4.55273 2.21817 4.67273 2.33817 4.82183 2.33817Z" fill="black"/>
<path d="M3.50138 2.38186C3.54502 2.48732 3.6432 2.54913 3.75229 2.54913C3.78502 2.54913 3.82138 2.54186 3.85411 2.52732C3.99229 2.46913 4.05775 2.31277 3.99956 2.17459L3.74502 1.56368C3.68684 1.4255 3.53047 1.36004 3.39229 1.41822C3.25411 1.47641 3.18866 1.63277 3.24684 1.77095L3.50138 2.38186Z" fill="black"/>
<path d="M1.52022 3.78542L2.13477 4.03997C2.16749 4.05452 2.20386 4.06179 2.23659 4.06179C2.34204 4.06179 2.44386 3.99997 2.48749 3.89452C2.54568 3.75633 2.48022 3.59997 2.34204 3.54179L1.72749 3.28724C1.58931 3.22906 1.43295 3.29452 1.37477 3.4327C1.31659 3.57088 1.38204 3.72724 1.52022 3.78542Z" fill="black"/>
<path d="M2.48359 5.8254C2.42541 5.68722 2.26904 5.62176 2.13086 5.67994L1.51632 5.93449C1.37813 5.99267 1.31268 6.14903 1.37086 6.28722C1.4145 6.39267 1.51268 6.45449 1.61813 6.45449C1.65086 6.45449 1.68722 6.44722 1.71995 6.43267L2.3345 6.17812C2.47632 6.11994 2.54177 5.96358 2.48359 5.8254Z" fill="black"/>
<path d="M3.49455 7.34187L3.24 7.95641C3.18182 8.09459 3.24727 8.25096 3.38546 8.30914C3.42182 8.32005 3.45455 8.32732 3.49091 8.32732C3.59637 8.32732 3.69818 8.2655 3.73818 8.16005L3.99273 7.5455C4.05091 7.40732 3.98546 7.25096 3.84727 7.19277C3.70909 7.13823 3.55273 7.20368 3.49455 7.34187Z" fill="black"/>
<path d="M5.77803 7.19636C5.63985 7.25455 5.5744 7.41091 5.63258 7.54909L5.88713 8.16364C5.93076 8.26909 6.02894 8.33091 6.13803 8.33091C6.17076 8.33091 6.20713 8.32364 6.23985 8.30909C6.37803 8.25091 6.44349 8.09455 6.38531 7.95636L6.13076 7.34182C6.07622 7.20727 5.91622 7.14182 5.77803 7.19636Z" fill="black"/>
<path d="M8.01073 6.45815C8.11618 6.45815 8.218 6.39633 8.258 6.29088C8.31618 6.1527 8.25073 5.99633 8.11255 5.93815L7.498 5.6836C7.35982 5.62542 7.20346 5.69088 7.14527 5.82906C7.08709 5.96724 7.15255 6.1236 7.29073 6.18179L7.90527 6.43633C7.94164 6.45451 7.978 6.45815 8.01073 6.45815Z" fill="black"/>
<path d="M7.15309 3.90184C7.19672 4.00729 7.29491 4.06911 7.404 4.06911C7.43672 4.06911 7.47309 4.06184 7.50581 4.04729L8.12036 3.79275C8.25854 3.73457 8.324 3.5782 8.26581 3.44002C8.20763 3.30184 8.05127 3.23639 7.91309 3.29457L7.29854 3.54911C7.16036 3.60366 7.09491 3.76366 7.15309 3.90184Z" fill="black"/>
<path d="M5.7853 2.53095C5.82166 2.5455 5.85439 2.55277 5.89075 2.55277C5.99621 2.55277 6.09802 2.49095 6.13802 2.3855L6.39257 1.77095C6.45075 1.63277 6.3853 1.47641 6.24712 1.41822C6.10893 1.36004 5.95257 1.4255 5.89439 1.56368L5.63984 2.17822C5.5853 2.31641 5.64711 2.47641 5.7853 2.53095Z" fill="black"/>
<path d="M2.65455 3.07631C2.70545 3.12722 2.77455 3.15267 2.84364 3.15267C2.91273 3.15267 2.98182 3.12722 3.03273 3.07267C3.13818 2.96722 3.13818 2.79631 3.03273 2.69085L2.21091 1.87267C2.10545 1.76722 1.93455 1.76722 1.82909 1.87267C1.72364 1.97812 1.72364 2.14903 1.82909 2.25449L2.65455 3.07631Z" fill="black"/>
<path d="M0.861864 5.12729H2.0255C2.17459 5.12729 2.29459 5.00729 2.29459 4.8582C2.29459 4.70911 2.17459 4.58911 2.0255 4.58911H0.861864C0.712773 4.58911 0.592773 4.70911 0.592773 4.8582C0.592773 5.00729 0.712773 5.12729 0.861864 5.12729Z" fill="black"/>
<path d="M2.01791 7.9273C2.087 7.9273 2.15609 7.90185 2.207 7.8473L3.02882 7.02548C3.13428 6.92003 3.13428 6.74912 3.02882 6.64367C2.92337 6.53821 2.75246 6.53821 2.647 6.64367L1.82518 7.46548C1.71973 7.57094 1.71973 7.74185 1.82518 7.8473C1.87973 7.90185 1.94882 7.9273 2.01791 7.9273Z" fill="black"/>
<path d="M4.5459 7.65813V8.82177C4.5459 8.97086 4.6659 9.09086 4.81499 9.09086C4.96408 9.09086 5.08408 8.97086 5.08408 8.82177V7.65813C5.08408 7.50904 4.96408 7.38904 4.81499 7.38904C4.6659 7.38904 4.5459 7.50904 4.5459 7.65813Z" fill="black"/>
<path d="M7.42212 7.8545C7.47303 7.90541 7.54212 7.9345 7.61121 7.9345C7.68031 7.9345 7.7494 7.90905 7.80031 7.8545C7.90576 7.74905 7.90576 7.57814 7.80031 7.47269L6.97849 6.65087C6.87303 6.54541 6.70212 6.54541 6.59667 6.65087C6.49121 6.75632 6.49121 6.92723 6.59667 7.03269L7.42212 7.8545Z" fill="black"/>
<path d="M7.3418 4.8654C7.3418 5.0145 7.4618 5.1345 7.61089 5.1345H8.77452C8.92361 5.1345 9.04362 5.0145 9.04362 4.8654C9.04362 4.71631 8.92361 4.59631 8.77452 4.59631H7.61089C7.4618 4.59631 7.3418 4.71631 7.3418 4.8654Z" fill="black"/>
<path d="M6.79623 3.15997C6.86532 3.15997 6.93441 3.13451 6.98532 3.07997L7.80714 2.25815C7.9126 2.1527 7.9126 1.98179 7.80714 1.87633C7.70169 1.77088 7.53078 1.77088 7.42532 1.87633L6.6035 2.69815C6.49805 2.8036 6.49805 2.97451 6.6035 3.07997C6.65805 3.13451 6.72714 3.15997 6.79623 3.15997Z" fill="black"/>
<path d="M23.4038 21.3564L22.6874 16.4182C22.6438 16.1091 22.3747 15.88 22.0656 15.88H17.0728C16.7638 15.88 16.4947 16.1127 16.451 16.4182L15.7347 21.3564C15.7092 21.5382 15.7638 21.72 15.8801 21.8582C15.9965 21.9964 16.1747 22.0764 16.3565 22.0764H17.9201H18.5383V22.8182H17.6765C17.5274 22.8182 17.4038 22.9418 17.4038 23.0909C17.4038 23.24 17.5274 23.3636 17.6765 23.3636H21.4547C21.6038 23.3636 21.7274 23.24 21.7274 23.0909C21.7274 22.9418 21.6038 22.8182 21.4547 22.8182H20.5965V22.0764H21.2147H21.6292C21.7783 22.0764 21.9019 21.9527 21.9019 21.8036C21.9019 21.6546 21.7783 21.5309 21.6292 21.5309H21.491V20.7055H22.7601L22.8656 21.4364C22.8692 21.4691 22.8547 21.4909 22.8474 21.5018C22.8365 21.5127 22.8183 21.5309 22.7819 21.5309H22.4728C22.3238 21.5309 22.2001 21.6546 22.2001 21.8036C22.2001 21.9527 22.3238 22.0764 22.4728 22.0764H22.7783C22.9601 22.0764 23.1347 21.9964 23.2547 21.8582C23.3747 21.72 23.4292 21.5346 23.4038 21.3564ZM18.1928 21.5309V20.7055H19.2947V21.5309H18.1928ZM18.1928 20.1564V19.2473H19.2947V20.1564H18.1928ZM19.2947 17.2509H18.1928V16.4218H19.2947V17.2509ZM19.8401 16.4218H20.9456V17.2509H19.8401V16.4218ZM19.2947 17.7964V18.7055H18.1928V17.7964H19.2947ZM17.6474 18.7018H16.6656L16.7965 17.7927H17.6438V18.7018H17.6474ZM16.5892 19.2473H17.6474V20.1564H16.4583L16.5892 19.2473ZM19.8401 19.2473H20.9456V20.1564H19.8401V19.2473ZM19.8401 18.7018V17.7927H20.9456V18.7018H19.8401ZM21.491 17.7964H22.3383L22.4692 18.7055H21.491V17.7964ZM22.1456 16.4946L22.2547 17.2509H21.491V16.4218H22.0656C22.1056 16.4218 22.1419 16.4546 22.1456 16.4946ZM17.0728 16.4218H17.6474V17.2509H16.8765L16.9856 16.4946C16.9928 16.4546 17.0292 16.4218 17.0728 16.4218ZM16.291 21.5018C16.2801 21.4909 16.2656 21.4691 16.2728 21.4327L16.3783 20.7018H17.6474V21.5273H16.3565C16.3238 21.5309 16.3019 21.5127 16.291 21.5018ZM19.0838 22.8182V22.0764H20.051V22.8182H19.0838ZM20.9456 21.5309H19.8401V20.7055H20.9456V21.5309ZM21.491 20.1564V19.2473H22.5456L22.6765 20.1564H21.491Z" fill="black"/>
<path d="M17.8658 3.09449H22.1313C22.2804 3.09449 22.404 2.97085 22.404 2.82176C22.404 2.67267 22.2804 2.54904 22.1313 2.54904H17.8658C17.5131 2.54904 17.2222 2.26176 17.2222 1.9054C17.2222 1.55267 17.5095 1.26176 17.8658 1.26176C18.0149 1.26176 18.1386 1.13813 18.1386 0.989036C18.1386 0.839945 18.0149 0.716309 17.8658 0.716309C17.2113 0.716309 16.6768 1.24722 16.6768 1.9054C16.6768 2.56358 17.2113 3.09449 17.8658 3.09449Z" fill="black"/>
<path d="M18.04 5.09095C18.04 5.74549 18.5709 6.28004 19.2255 6.28004C19.3746 6.28004 19.4982 6.1564 19.4982 6.00731C19.4982 5.85822 19.3746 5.73458 19.2255 5.73458C18.8728 5.73458 18.5855 5.44731 18.5855 5.09095C18.5855 4.73822 18.8728 4.44731 19.2255 4.44731H22.7637C22.9128 4.44731 23.0364 4.32367 23.0364 4.17458C23.0364 4.02549 22.9128 3.90186 22.7637 3.90186H19.2255C18.5709 3.90186 18.04 4.4364 18.04 5.09095Z" fill="black"/>
</g>
<defs>
<clipPath id="clip0_1_3753">
<rect width="24" height="24" fill="white"/>
</clipPath>
</defs>
</svg>
