<svg width="24" height="24" viewBox="0 0 24 24" fill="none" xmlns="http://www.w3.org/2000/svg">
<g clip-path="url(#clip0_1_5949)">
<path d="M20.5 24H3.5C2.673 24 2 23.327 2 22.5V6.5C2 6.224 2.224 6 2.5 6H21.5C21.776 6 22 6.224 22 6.5V22.5C22 23.327 21.327 24 20.5 24ZM3 7V22.5C3 22.776 3.225 23 3.5 23H20.5C20.775 23 21 22.776 21 22.5V7H3Z" fill="#282828"/>
<path d="M23.5002 7H0.500188C0.339188 7 0.188188 6.923 0.0951884 6.792C0.000188343 6.662 -0.0248117 6.494 0.0251883 6.342L2.02519 0.342C2.09419 0.138 2.28519 0 2.50019 0H21.5002C21.7152 0 21.9062 0.138 21.9752 0.342L23.9752 6.342C24.0262 6.494 24.0002 6.662 23.9062 6.793C23.8122 6.923 23.6612 7 23.5002 7ZM1.19319 6H22.8062L21.1402 1H2.86019L1.19319 6Z" fill="#282828"/>
<path d="M18.5 24H5.5C5.224 24 5 23.776 5 23.5V11.5C5 11.224 5.224 11 5.5 11H18.5C18.776 11 19 11.224 19 11.5V23.5C19 23.776 18.776 24 18.5 24ZM6 23H18V12H6V23Z" fill="#282828"/>
<path d="M18.5 16H5.5C5.224 16 5 15.776 5 15.5C5 15.224 5.224 15 5.5 15H18.5C18.776 15 19 15.224 19 15.5C19 15.776 18.776 16 18.5 16Z" fill="#282828"/>
<path d="M18.5 20H5.5C5.224 20 5 19.776 5 19.5C5 19.224 5.224 19 5.5 19H18.5C18.776 19 19 19.224 19 19.5C19 19.776 18.776 20 18.5 20Z" fill="#282828"/>
</g>
<defs>
<clipPath id="clip0_1_5949">
<rect width="24" height="24" fill="white"/>
</clipPath>
</defs>
</svg>
