<svg width="24" height="24" viewBox="0 0 24 24" fill="none" xmlns="http://www.w3.org/2000/svg">
<path d="M23.76 10.66L22.4 10.0644V8.996C22.4016 8.74838 22.2866 8.51443 22.0896 8.3644L11.4456 0.0843997C11.3012 -0.0279705 11.0989 -0.0279705 10.9544 0.0843997L7.20002 3.0048V2C7.20002 1.55817 6.84185 1.2 6.40002 1.2H4.00002C3.55819 1.2 3.20002 1.55817 3.20002 2V6.1164L0.314019 8.36C0.114716 8.51046 -0.00171643 8.74629 1.91319e-05 8.996V11.184C1.91319e-05 11.6258 0.358191 11.984 0.800019 11.984C0.977849 11.9841 1.15039 11.9235 1.28922 11.8124L2.40002 10.9484V22.8C2.40002 23.4627 2.93728 24 3.60002 24H17.6C17.7541 23.9999 17.9043 23.9514 18.0292 23.8612L22.1756 20.87C23.3196 20.0433 23.998 18.7183 24 17.3068V11.0268C24.0001 10.8677 23.9059 10.7236 23.76 10.66ZM4.00002 2H6.40002V3.6272L4.00002 5.494V2ZM0.800019 11.184V8.996L3.04002 7.2544L3.04602 7.2516L11.2 0.9068L19.3544 7.2516C19.3572 7.2516 19.3608 7.2544 19.3636 7.2564L21.6 8.996V9.716L17.76 8.036C17.6868 8.00644 17.6063 7.99988 17.5292 8.0172L11.4456 3.284C11.3012 3.17163 11.0989 3.17163 10.9544 3.284L0.800019 11.184ZM3.20002 22.8V10.3264L11.2 4.1068L16.68 8.3668L11.44 10.66C11.2943 10.7236 11.2001 10.8674 11.2 11.0264V14.4H8.40002C7.73728 14.4 7.20002 14.9373 7.20002 15.6V23.2H3.60002C3.3791 23.2 3.20002 23.0209 3.20002 22.8ZM8.00002 23.2V15.6C8.00002 15.3791 8.1791 15.2 8.40002 15.2H11.2V17.3068C11.202 18.7183 11.8804 20.0433 13.0244 20.87L14.4 21.8624V23.2H8.00002ZM16.254 23.2H15.2V22.44L16.254 23.2ZM23.2 17.3068C23.1982 18.4612 22.6434 19.5448 21.708 20.2212L17.6 23.1844L13.492 20.2212C12.5566 19.5448 12.0019 18.4612 12 17.3068V11.288L17.6 8.8368L23.2 11.288V17.3068Z" fill="#282828"/>
<path d="M17.4398 9.78L13.0398 11.7064C12.8941 11.77 12.7999 11.9138 12.7998 12.0728V17.3068C12.801 18.2043 13.2324 19.0467 13.9598 19.5724L17.3658 22.0292C17.5055 22.13 17.6941 22.13 17.8338 22.0292L21.2398 19.572C21.9671 19.0464 22.3984 18.2041 22.3998 17.3068V12.0728C22.3997 11.9138 22.3055 11.77 22.1598 11.7064L17.7598 9.78C17.6578 9.73547 17.5418 9.73547 17.4398 9.78ZM21.5998 12.334V17.3068C21.599 17.9472 21.291 18.5483 20.7718 18.9232L17.5998 21.2116L14.4278 18.9236C13.9089 18.5483 13.601 17.9472 13.5998 17.3068V12.334L17.5998 10.5832L21.5998 12.334Z" fill="#282828"/>
<path d="M15.4674 16.2628C15.3618 16.1638 15.2109 16.1297 15.0729 16.1735C14.9349 16.2173 14.8313 16.3323 14.8022 16.4741C14.773 16.6159 14.8227 16.7625 14.9322 16.8572L16.5322 18.2972C16.6057 18.3634 16.701 18.4 16.7998 18.4C16.8165 18.4001 16.8333 18.399 16.8498 18.3968C16.965 18.3823 17.0682 18.3185 17.1326 18.222L20.3326 13.422C20.4119 13.3031 20.4218 13.1509 20.3585 13.0228C20.2952 12.8947 20.1683 12.81 20.0257 12.8008C19.8831 12.7916 19.7463 12.8591 19.667 12.978L16.7238 17.3932L15.4674 16.2628Z" fill="#282828"/>
</svg>
