<svg width="24" height="24" viewBox="0 0 24 24" fill="none" xmlns="http://www.w3.org/2000/svg">
<g clip-path="url(#clip0_1_5959)">
<path d="M19 24H12C11.724 24 11.5 23.776 11.5 23.5V17.5C11.5 17.224 11.724 17 12 17H19C19.276 17 19.5 17.224 19.5 17.5V23.5C19.5 23.776 19.276 24 19 24ZM12.5 23H18.5V18H12.5V23Z" fill="#282828"/>
<path d="M15.5 18H8.5C8.224 18 8 17.776 8 17.5V11.5C8 11.224 8.224 11 8.5 11H15.5C15.776 11 16 11.224 16 11.5V17.5C16 17.776 15.776 18 15.5 18ZM9 17H15V12H9V17Z" fill="#282828"/>
<path d="M12 24H5C4.724 24 4.5 23.776 4.5 23.5V17.5C4.5 17.224 4.724 17 5 17H12C12.276 17 12.5 17.224 12.5 17.5V23.5C12.5 23.776 12.276 24 12 24ZM5.5 23H11.5V18H5.5V23Z" fill="#282828"/>
<path d="M12 13.5C11.724 13.5 11.5 13.276 11.5 13V11.5C11.5 11.224 11.724 11 12 11C12.276 11 12.5 11.224 12.5 11.5V13C12.5 13.276 12.276 13.5 12 13.5Z" fill="#282828"/>
<path d="M8.5 19.5C8.224 19.5 8 19.276 8 19V17.5C8 17.224 8.224 17 8.5 17C8.776 17 9 17.224 9 17.5V19C9 19.276 8.776 19.5 8.5 19.5Z" fill="#282828"/>
<path d="M15.5 19.5C15.224 19.5 15 19.276 15 19V17.5C15 17.224 15.224 17 15.5 17C15.776 17 16 17.224 16 17.5V19C16 19.276 15.776 19.5 15.5 19.5Z" fill="#282828"/>
<path d="M0.5 9C0.391 9 0.283 8.964 0.194 8.896C0.071 8.801 0 8.655 0 8.5V6.5C0 6.272 0.153 6.074 0.374 6.016L23.374 0.0160002C23.52 -0.0239998 23.683 0.0100002 23.806 0.104C23.929 0.198 24 0.345 24 0.5V2.5C24 2.728 23.847 2.926 23.626 2.984L0.626 8.984C0.585 8.995 0.542 9 0.5 9ZM1 6.886V7.853L23 2.114V1.147L1 6.886Z" fill="#282828"/>
<path d="M21.5 24H2.5C2.224 24 2 23.776 2 23.5V7.978C2 7.702 2.224 7.478 2.5 7.478C2.776 7.478 3 7.702 3 7.978V23H21V3.022C21 2.746 21.224 2.522 21.5 2.522C21.776 2.522 22 2.746 22 3.022V23.5C22 23.776 21.776 24 21.5 24Z" fill="#282828"/>
<path d="M4.5 5.957C4.391 5.957 4.283 5.921 4.194 5.853C4.071 5.757 4 5.611 4 5.457V2.5C4 2.311 4.107 2.138 4.276 2.053L6.276 1.053C6.43 0.974999 6.615 0.983999 6.762 1.075C6.91 1.166 7 1.327 7 1.5V4.935C7 5.163 6.847 5.361 6.626 5.419L4.626 5.941C4.585 5.951 4.542 5.957 4.5 5.957ZM5 2.809V4.809L6 4.548V2.309L5 2.809Z" fill="#282828"/>
</g>
<defs>
<clipPath id="clip0_1_5959">
<rect width="24" height="24" fill="white"/>
</clipPath>
</defs>
</svg>
